<svg width="36" height="36" viewBox="0 0 36 36" fill="none" xmlns="http://www.w3.org/2000/svg">
<path d="M20.9997 7.49984C20.2497 8.24984 18.7452 8.11784 16.4997 6.26384M16.4997 6.26384C16.8317 5.99184 17.1762 5.67884 17.5332 5.32484C20.9922 1.89884 25.7022 2.56934 27.9087 5.32484C28.8477 6.49784 30.6882 8.74634 29.7312 14.2498M16.4997 6.26384C16.1677 5.99184 15.8232 5.67884 15.4662 5.32484C12.0072 1.89884 7.29717 2.56934 5.09067 5.32484C3.56667 7.22984 -0.333331 11.9698 9.21267 28.8598C9.60867 29.5588 10.3962 29.9998 11.2437 29.9998C12.5967 29.9998 13.6542 28.9198 13.6977 27.6598C13.7667 25.7053 14.1447 23.5273 15.1992 22.4998M23.9997 25.4998L25.0257 26.5258C25.2462 26.7463 25.3572 26.8573 25.4907 26.8498C25.6257 26.8423 25.7232 26.7208 25.9182 26.4763L28.4997 23.2498M19.4997 23.1808V23.7598C19.4997 25.5628 19.4997 26.4643 19.7217 27.2893C19.999 28.3126 20.521 29.2531 21.2427 30.0298C21.8277 30.6628 22.6017 31.1548 24.1482 32.1403C24.8397 32.5813 25.1862 32.8018 25.5552 32.9053C26.0097 33.0313 26.4912 33.0313 26.9457 32.9053C27.3132 32.8018 27.6597 32.5813 28.3512 32.1403C29.8977 31.1548 30.6717 30.6628 31.2567 30.0298C31.9783 29.2531 32.5003 28.3126 32.7777 27.2893C32.9997 26.4643 32.9997 25.5643 32.9997 23.7598V23.1808C32.9997 22.0588 32.9997 21.4978 32.7867 21.0238C32.653 20.7313 32.4652 20.4666 32.2332 20.2438C31.8537 19.8838 31.3152 19.6858 30.2382 19.2913L28.0272 18.4813C27.1482 18.1603 26.7087 17.9998 26.2497 17.9998C25.7907 17.9998 25.3512 18.1603 24.4722 18.4828L22.2612 19.2928C21.1842 19.6858 20.6457 19.8823 20.2662 20.2438C20.0336 20.4665 19.8453 20.7311 19.7112 21.0238C19.4997 21.4978 19.4997 22.0588 19.4997 23.1808Z" stroke="#0E374A" stroke-width="2.5" stroke-linecap="round" stroke-linejoin="round"/>
</svg>
