<svg width="1946" height="1150" viewBox="0 0 1946 1150" fill="none" xmlns="http://www.w3.org/2000/svg">
<path d="M327.025 302.528C359.573 332.325 391.016 336.325 402.669 334.6C407.455 334.263 420.305 314.777 392.118 311.076C363.931 307.374 348.038 268.32 277.176 252.643C206.313 236.966 172.906 378.569 194.012 443.438C215.118 508.307 193.785 649.07 200.246 725.688C206.706 802.306 271.693 784.634 285.61 743.734C299.526 702.834 279.591 720.156 249.15 748.061C218.71 775.967 226.296 648.781 233.266 587.03C240.235 525.278 227.779 398.878 235.444 349.181C243.109 299.485 286.34 265.282 327.025 302.528Z" fill="#DCEDEB"/>
<path d="M479.584 291.966C456.264 278.33 427.094 283.801 407.717 291.242C400.16 294.144 398.211 304.126 405.825 306.877C413.428 309.623 424.751 309.651 443.207 304.18C475.014 294.752 487.384 331.497 495.399 365.029C503.414 398.56 495.802 494.023 435.801 587.03C375.799 680.037 294.437 676.507 292.347 642.25C290.256 607.993 358.875 507.622 362.208 433.722C365.54 359.823 310.305 505.491 266.832 613.412C223.359 721.333 388.747 757.277 485.426 570.966C582.104 384.654 517.061 313.878 479.584 291.966Z" fill="#DCEDEB"/>
<path d="M1190 462.845C1234.39 412.204 1264.22 397.636 1269.08 430.241C1273.92 462.748 1224.29 540.504 1154.55 600.226C1154.14 600.579 1153.82 601.015 1153.62 601.518C1149.02 613.057 1143.07 638.57 1153.92 654.311C1167.68 674.254 1214.16 653.459 1241.32 619.955C1241.78 619.384 1242.04 618.68 1242.08 617.947C1242.68 607.384 1246.75 588.162 1258.95 587.642C1274.77 586.969 1267.03 603.403 1262.99 619.074C1258.95 634.744 1274.77 672.531 1307.4 654.311C1332.63 640.223 1356.55 618.748 1366.32 608.82C1366.95 608.185 1367.29 607.331 1367.29 606.441V590.229C1367.29 589.81 1367.36 589.393 1367.53 589.007C1368.91 585.745 1372.31 580.205 1376.69 580.205C1382.51 580.205 1387.92 584.247 1387.5 592.504C1387.21 598.366 1382.96 632.644 1380.17 654.635C1379.8 657.597 1383.1 659.579 1385.53 657.833C1407.5 641.985 1442.34 614.695 1444.45 604.144C1447.36 589.595 1454.01 580.45 1460.66 582.944C1467.31 585.438 1473.96 589.726 1456.92 622.018C1439.88 654.31 1456.09 639.477 1488.51 611.21C1520.94 582.944 1529.67 601.65 1531.74 622.018C1533.82 642.386 1534.19 671.361 1588.83 641.286C1643.47 611.211 1675.47 582.944 1844.82 630.418L1771.24 616.847C1736.31 612.481 1692.02 604.151 1617.17 641.286C1542.32 678.42 1527.97 674.742 1515.49 641.286C1503.02 607.829 1516.36 600.232 1488.51 627.271C1460.66 654.31 1438.13 682.109 1424.53 672.224C1410.93 662.339 1430.88 654.405 1437.66 634.71C1443.04 619.122 1400.21 658.857 1377.42 681.351C1376.94 681.828 1376.63 682.397 1376.49 683.062C1367.32 727.015 1336.7 825.039 1312.57 862.48C1286.52 902.904 1230.64 941.469 1236.21 854.395C1239.83 797.895 1315.32 720.355 1353.87 694.17C1354.69 693.615 1355.21 692.764 1355.34 691.785L1361.82 644.165C1362.25 640.974 1358.39 638.899 1355.89 640.932C1333.86 658.857 1294.19 682.425 1267.44 668.003C1261.06 664.368 1249.03 655.425 1244.06 644.94C1242.85 642.39 1239.18 641.25 1237.1 643.159C1213.47 664.869 1168.31 695.254 1143.18 672.224C1139.67 668.683 1132.74 658.624 1129.97 644.347C1129.47 641.75 1126.43 640.368 1124.24 641.846C1092.65 663.136 1039.96 686.377 1040.03 636.947C1040.04 633.886 1036.43 631.886 1034.02 633.775C1009.65 652.897 968.523 681.555 958.32 674.569C952.741 670.749 949.563 665.833 947.857 661.237C946.665 658.024 940.794 655.967 938.394 658.413C917.169 680.045 879.21 706.843 850.568 686.761C844.651 681.299 832.977 665.31 829.811 642.421C829.432 639.683 826.191 638.223 823.952 639.845C796.237 659.936 745.789 685.965 730.206 653.516C709.431 610.255 723.944 600.486 690.452 628.675C656.96 656.864 647.191 684.449 631.282 674.727C629.167 673.052 627.378 664.791 637.143 645.143C649.351 620.582 571.834 687.566 525.782 681.147C495.564 676.935 487.69 662.045 487.376 651.385C487.296 648.663 484.672 646.194 482.068 646.992L479.074 647.91C475.426 649.028 472.337 643.541 474.984 640.793C482.62 632.871 490.929 622.617 495.899 611.998C506.482 589.39 554.104 552.831 576.232 575.92C598.003 598.637 547.601 625.545 513.9 641.526C512.864 642.017 512.136 642.98 512.05 644.123C511.152 655.975 518.165 673.839 553.624 662.507C590.134 650.839 631.154 625.028 648.238 612.799C648.962 612.281 649.435 611.514 649.598 610.638C651.524 600.354 655.999 582.173 660.415 582.173C666.188 582.173 685.949 574.912 673.182 600.762C660.415 626.613 651.829 650.943 660.415 643.72C669.001 636.497 718.041 577.573 730.206 600.762C742.371 623.952 741.611 666.15 775.445 649.803C801.608 637.163 819.933 623.267 826.507 617.317C826.931 616.933 827.237 616.457 827.418 615.914C831.945 602.328 840.876 575.41 845.485 561.127C846.199 558.914 844.543 556.664 842.218 556.664H792.169C791.918 556.663 791.668 556.641 791.428 556.57C789.067 555.874 785.04 553.13 785.329 546.78C785.61 540.591 789.165 537.612 791.302 536.698C791.621 536.561 791.968 536.515 792.316 536.515H851.928C853.461 536.515 854.806 535.501 855.249 534.033C859.277 520.664 867.529 497.931 873.525 497.359C881.509 496.599 883.879 497.442 888.777 498.972C892.235 500.054 886.231 519.119 881.608 531.834C880.785 534.101 882.451 536.515 884.862 536.515H977.413C979.601 536.814 984.035 538.349 984.274 542.096C984.573 546.78 981.888 549.256 977.413 549.554C973.91 549.788 909.582 549.66 875.757 549.561C874.39 549.557 873.177 550.343 872.636 551.598C858.872 583.507 837.246 647.722 854.517 665.005C876.579 687.081 913.572 674.954 958.32 616.729C996.164 567.488 1029.95 569.705 1041.29 579.321C1043.47 581.171 1047.97 581.925 1050.49 580.59C1052.73 579.409 1055.27 578.896 1057.57 580.205C1063.39 583.505 1065.78 588.342 1061.67 597.46C1057.57 606.579 1052.89 645.078 1061.67 647.78C1070.39 650.462 1092.43 654.809 1125.8 619.829C1126.26 619.346 1126.57 618.752 1126.69 618.097C1133.27 582.409 1154.8 502.987 1190 462.845ZM1345.1 719.521C1287.65 779.774 1256.12 825.281 1256.12 865.249C1256.12 931.807 1318.47 825.314 1345.1 719.521ZM1039.66 598.479C1038.05 592.04 1037.51 585.6 1013.37 592.039C1001.38 595.438 975.59 609.426 968.292 638.188C959.169 674.141 987.61 653.75 1007.46 638.188C1027.32 622.626 1041.27 604.918 1039.66 598.479ZM559.397 596.87C565.3 581.308 556.178 580.771 542.763 587.747C532.03 593.327 518.258 616.903 512.713 627.993C526.307 622.805 554.675 609.319 559.397 596.87ZM1249.47 460.035C1257.52 431.594 1254.84 422.471 1221.03 453.058C1193.99 477.527 1167.91 548.038 1158.25 580.235C1185.98 549.648 1243.03 482.787 1249.47 460.035ZM1259.97 546.461C1266.85 539.488 1283.21 542.743 1276.85 549.554L1276.52 549.913C1270.27 556.61 1263.94 563.392 1253.1 562.723C1244.27 562.178 1254 551.655 1259.97 546.461ZM1394.38 510.643C1401.26 503.669 1417.61 506.924 1411.26 513.736L1410.92 514.093C1404.67 520.791 1398.35 527.574 1387.5 526.905C1378.67 526.36 1388.41 515.836 1394.38 510.643Z" fill="#6DB0A6"/>
</svg>
