<svg width="305" height="342" viewBox="0 0 305 342" fill="none" xmlns="http://www.w3.org/2000/svg">
<path d="M-32.4745 -90.9692C-14.5179 -63.7137 25.3207 -1.67837 61.7335 65.8658C90.2576 118.788 111.127 164.678 123.752 202.249C129.547 219.495 133.601 234.968 135.905 248.626C136.493 252.105 136.969 255.465 137.328 258.707C137.708 262.099 137.958 265.366 138.085 268.501C138.222 271.783 138.22 274.916 138.084 277.905C137.939 281.055 137.642 284.039 137.194 286.864C136.722 289.861 136.076 292.679 135.26 295.306C134.501 297.773 133.592 300.076 132.529 302.218C132.379 302.517 132.231 302.812 132.078 303.109L124.209 318.102C124.359 317.803 124.512 317.506 124.66 317.211C125.713 315.081 126.618 312.801 127.373 310.353L127.375 310.35C128.193 307.715 128.843 304.899 129.315 301.902C129.766 299.079 130.065 296.091 130.208 292.946C130.347 289.958 130.351 286.822 130.214 283.548C130.092 280.412 129.841 277.148 129.464 273.749C129.103 270.493 128.627 267.117 128.034 263.622C127.471 260.268 126.798 256.806 126.02 253.235C123.633 242.262 120.256 230.258 115.882 217.245C103.26 179.667 82.3904 133.778 53.8595 80.8606C17.5823 13.5567 -22.1039 -48.2718 -40.1509 -75.6819L-32.4745 -90.9692Z" fill="white" fill-opacity="0.1"/>
<path d="M-17.045 -121.698C0.725769 -94.7496 40.881 -32.3075 77.5515 35.7274C106.081 88.6477 126.947 134.536 139.574 172.112C148.401 198.375 153.183 220.531 153.909 238.408C154.043 241.672 154.04 244.791 153.904 247.764C153.755 250.911 153.462 253.897 153.015 256.727C152.543 259.724 151.899 262.538 151.079 265.168C150.321 267.631 149.412 269.934 148.352 272.078C148.202 272.376 148.051 272.67 147.897 272.967C146.609 275.424 145.032 277.845 143.171 280.238C143.986 277.61 144.631 274.796 145.104 271.795C145.551 268.974 145.846 265.985 145.989 262.839C146.129 259.851 146.131 256.71 145.997 253.429C145.87 250.312 145.618 247.064 145.243 243.688C143.471 227.709 138.94 208.842 131.661 187.184C119.036 149.604 98.1697 103.716 69.6422 50.7926C33.0988 -16.9936 -6.89562 -79.2289 -24.7601 -106.333L-17.045 -121.698Z" fill="white" fill-opacity="0.1"/>
<path d="M-1.61287 -152.43C15.9536 -125.811 56.4254 -62.9542 93.3738 5.58144C121.901 58.5051 142.77 104.395 155.394 141.969C167.537 178.109 172.028 206.475 168.831 226.619L168.829 226.623C168.352 229.605 167.713 232.401 166.903 235.018C166.141 237.488 165.232 239.792 164.169 241.934C164.024 242.231 163.875 242.529 163.718 242.824L156.038 257.45C156.112 257.302 156.186 257.155 156.258 257.002C157.32 254.864 158.232 252.562 158.988 250.102L158.99 250.099C159.807 247.468 160.451 244.645 160.928 241.646C161.371 238.831 161.668 235.864 161.816 232.733C162.712 213.441 157.929 188.116 147.487 157.039C134.861 119.46 113.995 73.572 85.4661 20.6517C48.6533 -47.6268 8.34228 -110.277 -9.32968 -137.062L-1.61287 -152.43Z" fill="white" fill-opacity="0.1"/>
<path d="M13.7784 -183.081C31.1272 -156.815 71.934 -93.5294 109.153 -24.4796C137.683 28.4407 158.549 74.3289 171.174 111.908C186.809 158.425 189.758 192.061 179.947 211.876C179.804 212.169 179.649 212.47 179.494 212.762C178.214 215.202 176.647 217.612 174.798 219.997C181.105 199.675 177.253 168.421 163.3 126.903C150.675 89.3237 129.809 43.4355 101.285 -9.48644C64.2006 -78.2791 23.5614 -141.355 6.10201 -167.794L13.7784 -183.081Z" fill="white" fill-opacity="0.1"/>
<path d="M127.373 310.352C126.618 312.8 125.713 315.08 124.66 317.21C124.512 317.506 124.358 317.803 124.208 318.101C113.99 337.556 85.7228 355.084 40.1399 370.214C2.76246 382.622 -46.1504 393.383 -105.247 402.198C-183.291 413.839 -258.859 418.974 -289.414 420.715L-281.894 405.74C-251.57 404.017 -175.72 398.886 -97.3761 387.201C-38.2815 378.39 10.6331 367.625 48.0088 355.221C87.8638 341.995 114.487 326.93 127.373 310.352Z" fill="white" fill-opacity="0.1"/>
<path d="M130.208 292.946C130.065 296.092 129.766 299.08 129.314 301.903C114.974 315.889 90.3997 328.706 55.9215 340.15C18.5441 352.558 -30.3705 363.323 -89.4702 372.136C-168.112 383.863 -244.245 388.987 -274.335 390.688L-266.779 375.639C-236.939 373.96 -160.514 368.839 -81.5575 357.064C-22.4611 348.249 26.4551 337.489 63.8325 325.082C93.2211 315.325 115.415 304.572 130.208 292.946Z" fill="white" fill-opacity="0.1"/>
<path d="M129.463 273.749C129.84 277.148 130.091 280.412 130.214 283.548C115.827 293.017 96.2928 301.862 71.7418 310.008C34.3678 322.417 -14.5535 333.178 -73.6448 341.991C-152.915 353.815 -229.634 358.926 -259.22 360.586L-251.662 345.534C-222.336 343.899 -145.321 338.793 -65.7354 326.926C-6.64244 318.109 42.2754 307.347 79.6529 294.939C99.5863 288.318 116.213 281.247 129.463 273.749Z" fill="white" fill-opacity="0.1"/>
<path d="M126.02 253.234C126.798 256.804 127.47 260.267 128.033 263.62C116.561 269.302 103.064 274.723 87.5603 279.867C50.1862 292.277 1.27002 303.036 -57.8297 311.849C-137.736 323.769 -215.05 328.868 -244.107 330.487L-236.586 315.508C-207.802 313.916 -130.185 308.823 -49.9557 296.854C9.13894 288.043 58.0568 277.28 95.4343 264.872C106.688 261.14 116.884 257.257 126.02 253.234Z" fill="white" fill-opacity="0.1"/>
</svg>
