<svg width="118" height="117" viewBox="0 0 118 117" fill="none" xmlns="http://www.w3.org/2000/svg">
<path d="M77.9989 56.4115L74.4371 58.3287L77.9868 60.2683L114.472 80.2047L106.676 93.6285L69.4585 72.4342L66.1504 70.5503L66.1792 74.3571L66.4857 114.806H51.5143L51.8208 74.3571L51.8496 70.5503L48.5415 72.4342L11.324 93.6285L3.53184 80.2115L40.3297 60.2719L43.916 58.3286L40.3176 56.4079L3.52341 36.7679L11.3387 23.0662L48.5415 44.2522L51.8498 46.1362L51.8208 42.3291L51.5144 2.19375H66.4856L66.1792 42.3291L66.1502 46.1362L69.4585 44.2522L106.661 23.0662L114.48 36.7747L77.9989 56.4115Z" stroke="#2093CA" stroke-width="4.3875"/>
</svg>
