<svg width="46" height="46" viewBox="0 0 46 46" fill="none" xmlns="http://www.w3.org/2000/svg">
<path fill-rule="evenodd" clip-rule="evenodd" d="M37.2444 5.84159C37.6083 5.82888 37.9624 5.96125 38.2287 6.2096C38.495 6.45794 38.6517 6.80191 38.6644 7.16583L39.2394 23.6318C39.2522 23.9957 39.1198 24.3497 38.8714 24.6161C38.6231 24.8824 38.2791 25.0391 37.9152 25.0518C37.5513 25.0645 37.1972 24.9322 36.9309 24.6838C36.6646 24.4355 36.5078 24.0915 36.4951 23.7276L36.0358 10.5741L9.16434 39.393C9.04122 39.525 8.89329 39.6315 8.72902 39.7064C8.56474 39.7813 8.38732 39.823 8.2069 39.8293C8.02648 39.8356 7.84658 39.8063 7.67748 39.7431C7.50838 39.6799 7.35339 39.584 7.22136 39.4609C7.08933 39.3377 6.98284 39.1898 6.90797 39.0255C6.83311 38.8613 6.79133 38.6838 6.78503 38.5034C6.77873 38.323 6.80803 38.1431 6.87125 37.974C6.93448 37.8049 7.03039 37.6499 7.15351 37.5179L34.0278 8.70158L20.8743 9.16091C20.5104 9.17362 20.1563 9.04124 19.89 8.7929C19.6237 8.54455 19.4669 8.20058 19.4542 7.83666C19.4415 7.47274 19.5739 7.11868 19.8222 6.85236C20.0706 6.58605 20.4145 6.4293 20.7784 6.41659L37.2444 5.84159Z" fill="white"/>
</svg>
