<svg width="209" height="209" viewBox="0 0 209 209" fill="none" xmlns="http://www.w3.org/2000/svg">
<path d="M138.874 101.578L134.003 104.2L138.857 106.852L204.859 142.918L190.002 168.5L122.728 130.189L118.204 127.613L118.243 132.819L118.798 206H90.2024L90.7568 132.819L90.7963 127.613L86.2723 130.189L18.9981 168.5L4.1461 142.927L70.711 106.857L75.6154 104.2L70.6945 101.573L4.13458 66.0449L19.0183 39.9511L86.2723 78.2504L90.7966 80.8268L90.7568 75.6205L90.2025 3H118.797L118.243 75.6205L118.203 80.8268L122.728 78.2504L189.982 39.9511L204.871 66.0543L138.874 101.578Z" stroke="#1CC198" stroke-width="6"/>
</svg>
