<svg width="169" height="168" viewBox="0 0 169 168" fill="none" xmlns="http://www.w3.org/2000/svg">
<g opacity="0.2">
<path d="M112.613 81.7483L108.877 83.7596L112.601 85.7943L165.754 114.839L153.7 135.595L99.5281 104.745L96.0577 102.769L96.0879 106.763L96.5344 165.699H73.3269L73.7734 106.763L73.8036 102.769L70.3332 104.745L16.1615 135.595L4.11124 114.846L57.7177 85.7982L61.4799 83.7595L57.705 81.7445L4.10239 53.1326L16.177 31.9636L70.3332 62.8041L73.8039 64.7805L73.7734 60.7867L73.327 2.30137H96.5343L96.0879 60.7867L96.0574 64.7805L99.5281 62.8041L153.684 31.9636L165.763 53.1397L112.613 81.7483Z" stroke="white" stroke-width="4.60274"/>
</g>
</svg>
