<svg width="71" height="71" viewBox="0 0 71 71" fill="none" xmlns="http://www.w3.org/2000/svg">
<path d="M52.7572 26.625C50.5341 26.625 48.4022 25.7419 46.8302 24.17C45.2583 22.598 44.3752 20.4661 44.3752 18.243C44.3752 16.02 43.4921 13.888 41.9202 12.3161C40.3483 10.7442 38.2163 9.86108 35.9933 9.86108H35.0072C32.7841 9.86108 30.6522 10.7442 29.0802 12.3161C27.5083 13.888 26.6252 16.02 26.6252 18.243C26.6252 20.4661 25.7421 22.598 24.1702 24.17C22.5983 25.7419 20.4663 26.625 18.2433 26.625C16.0202 26.625 13.8883 27.5081 12.3163 29.08C10.7444 30.6519 9.86133 32.7839 9.86133 35.0069V35.993C9.86133 38.2161 10.7444 40.348 12.3163 41.92C13.8883 43.4919 16.0202 44.375 18.2433 44.375C20.4663 44.375 22.5983 45.2581 24.1702 46.83C25.7421 48.4019 26.6252 50.5339 26.6252 52.7569C26.6252 54.9799 27.5083 57.1119 29.0802 58.6838C30.6522 60.2558 32.7841 61.1389 35.0072 61.1389H35.9933C38.2163 61.1389 40.3483 60.2558 41.9202 58.6838C43.4921 57.1119 44.3752 54.9799 44.3752 52.7569C44.3752 50.5339 45.2583 48.4019 46.8302 46.83C48.4022 45.2581 50.5341 44.375 52.7572 44.375C54.9802 44.375 57.1122 43.4919 58.6841 41.92C60.256 40.348 61.1391 38.2161 61.1391 35.993V35.0069C61.1391 32.7839 60.256 30.6519 58.6841 29.08C57.1122 27.5081 54.9802 26.625 52.7572 26.625Z" stroke="#1CC198" stroke-width="1.5" stroke-linecap="round" stroke-linejoin="round"/>
<path d="M53.9795 41.4271C52.4078 39.8552 51.5249 37.7234 51.5249 35.5006C51.5249 33.2778 52.4078 31.146 53.9795 29.5741C55.5511 28.0022 56.4341 25.8704 56.4341 23.6475C56.4341 21.4247 55.5511 19.2929 53.9795 17.721L53.2813 17.0228C51.7094 15.4512 49.5776 14.5682 47.3548 14.5682C45.1319 14.5682 43.0001 15.4512 41.4282 17.0228C40.6499 17.8014 39.7258 18.4189 38.7087 18.8403C37.6917 19.2616 36.6016 19.4784 35.5007 19.4784C34.3999 19.4784 33.3098 19.2616 32.2927 18.8403C31.2757 18.4189 30.3516 17.8014 29.5732 17.0228C28.0013 15.4512 25.8695 14.5682 23.6467 14.5682C21.4239 14.5682 19.292 15.4512 17.7202 17.0228L17.022 17.719C15.4503 19.2909 14.5674 21.4227 14.5674 23.6456C14.5674 25.8684 15.4503 28.0002 17.022 29.5721C17.8005 30.3505 18.4181 31.2745 18.8394 32.2916C19.2607 33.3087 19.4776 34.3987 19.4776 35.4996C19.4776 36.6005 19.2607 37.6906 18.8394 38.7076C18.4181 39.7247 17.8005 40.6488 17.022 41.4271C15.4503 42.999 14.5674 45.1308 14.5674 47.3537C14.5674 49.5765 15.4503 51.7083 17.022 53.2802L17.7182 53.9784C19.2901 55.55 21.4219 56.433 23.6447 56.433C25.8676 56.433 27.9994 55.55 29.5712 53.9784C30.3496 53.1998 31.2737 52.5823 32.2907 52.1609C33.3078 51.7396 34.3979 51.5228 35.4988 51.5228C36.5996 51.5228 37.6897 51.7396 38.7068 52.1609C39.7238 52.5823 40.6479 53.1998 41.4263 53.9784C42.9982 55.55 45.13 56.433 47.3528 56.433C49.5756 56.433 51.7074 55.55 53.2793 53.9784L53.9775 53.2822C55.5492 51.7103 56.4321 49.5785 56.4321 47.3556C56.4321 45.1328 55.5492 43.001 53.9775 41.4291" stroke="#1CC198" stroke-width="1.5" stroke-linecap="round" stroke-linejoin="round"/>
</svg>
