<svg width="535" height="764" viewBox="0 0 535 764" fill="none" xmlns="http://www.w3.org/2000/svg">
<path d="M-149.339 -61.4411C-112.952 -6.2106 -32.2234 119.498 41.5636 256.369C99.3649 363.61 141.654 456.601 167.239 532.735C178.98 567.682 187.196 599.038 191.864 626.713C193.056 633.764 194.021 640.573 194.747 647.143C195.518 654.016 196.024 660.637 196.282 666.989C196.559 673.64 196.555 679.988 196.28 686.046C195.986 692.427 195.384 698.475 194.476 704.199C193.52 710.273 192.211 715.982 190.559 721.307C189.019 726.305 187.178 730.973 185.024 735.313C184.72 735.918 184.419 736.516 184.109 737.118L168.163 767.5C168.467 766.895 168.778 766.293 169.078 765.695C171.212 761.378 173.046 756.758 174.575 751.798L174.579 751.791C176.238 746.453 177.554 740.747 178.51 734.673C179.425 728.952 180.03 722.898 180.32 716.523C180.603 710.468 180.61 704.114 180.333 697.48C180.085 691.125 179.576 684.51 178.812 677.624C178.082 671.026 177.117 664.183 175.915 657.102C174.773 650.307 173.411 643.289 171.834 636.054C166.998 613.818 160.154 589.493 151.29 563.124C125.712 486.977 83.4227 393.985 25.6078 286.755C-47.9045 150.37 -128.325 25.0808 -164.895 -30.463L-149.339 -61.4411Z" fill="white" fill-opacity="0.1"/>
<path d="M-118.072 -123.709C-82.0611 -69.1021 -0.690691 57.4306 73.6185 195.296C131.43 302.534 173.713 395.522 199.3 471.665C217.188 524.884 226.878 569.782 228.35 606.008C228.621 612.621 228.614 618.942 228.338 624.966C228.038 631.344 227.443 637.395 226.538 643.129C225.582 649.203 224.276 654.906 222.614 660.234C221.078 665.225 219.236 669.893 217.089 674.237C216.785 674.842 216.478 675.437 216.167 676.038C213.556 681.017 210.36 685.924 206.589 690.772C208.242 685.448 209.548 679.745 210.507 673.664C211.412 667.947 212.011 661.889 212.3 655.515C212.583 649.46 212.587 643.095 212.316 636.447C212.058 630.13 211.549 623.55 210.788 616.707C207.197 584.329 198.016 546.096 183.266 502.207C157.682 426.057 115.399 333.069 57.591 225.824C-16.4605 88.4626 -97.5051 -37.6509 -133.706 -92.575L-118.072 -123.709Z" fill="white" fill-opacity="0.1"/>
<path d="M-86.8002 -185.985C-51.2035 -132.045 30.8085 -4.67116 105.681 134.209C163.489 241.454 205.778 334.445 231.359 410.585C255.965 483.819 265.065 541.299 258.586 582.121L258.583 582.127C257.617 588.171 256.321 593.836 254.679 599.14C253.136 604.145 251.295 608.813 249.141 613.153C248.847 613.755 248.543 614.36 248.226 614.958L232.663 644.596C232.813 644.297 232.963 643.998 233.11 643.688C235.26 639.355 237.109 634.69 238.641 629.706L238.645 629.699C240.3 624.368 241.606 618.648 242.573 612.57C243.47 606.867 244.073 600.854 244.373 594.51C246.188 555.415 236.496 504.098 215.335 441.124C189.751 364.973 147.468 271.985 89.6565 164.748C15.059 26.3882 -66.6271 -100.567 -102.438 -154.844L-86.8002 -185.985Z" fill="white" fill-opacity="0.1"/>
<path d="M-55.6116 -248.097C-20.4559 -194.872 62.235 -66.6297 137.656 73.2927C195.468 180.53 237.751 273.518 263.335 349.669C295.018 443.931 300.994 512.091 281.113 552.243C280.823 552.838 280.509 553.447 280.195 554.038C277.601 558.983 274.426 563.866 270.679 568.701C283.459 527.519 275.654 464.187 247.379 380.054C221.795 303.904 179.512 210.916 121.711 103.675C46.564 -35.7266 -35.7873 -163.543 -71.1669 -217.119L-55.6116 -248.097Z" fill="white" fill-opacity="0.1"/>
<path d="M174.575 751.798C173.046 756.759 171.211 761.379 169.078 765.695C168.778 766.294 168.467 766.895 168.163 767.5C147.456 806.923 90.176 842.443 -2.19318 873.102C-77.9348 898.245 -177.052 920.051 -296.804 937.913C-454.954 961.503 -608.083 971.909 -670 975.437L-654.762 945.091C-593.315 941.6 -439.611 931.202 -280.855 907.525C-161.106 889.669 -61.9857 867.856 13.7524 842.72C94.5146 815.919 148.463 785.391 174.575 751.798Z" fill="white" fill-opacity="0.1"/>
<path d="M180.32 716.524C180.031 722.899 179.425 728.953 178.51 734.673C149.451 763.016 99.6536 788.989 29.787 812.179C-45.9546 837.321 -145.075 859.135 -264.834 876.993C-424.195 900.758 -578.471 911.142 -639.445 914.589L-624.132 884.093C-563.665 880.69 -408.797 870.314 -248.8 846.452C-129.047 828.589 -29.9237 806.786 45.8179 781.644C105.371 761.872 150.344 740.082 180.32 716.524Z" fill="white" fill-opacity="0.1"/>
<path d="M178.812 677.624C179.576 684.511 180.085 691.125 180.333 697.48C151.18 716.667 111.595 734.592 61.8453 751.098C-13.8895 776.244 -113.023 798.05 -232.766 815.909C-393.399 839.869 -548.862 850.227 -608.816 853.591L-593.499 823.089C-534.073 819.775 -378.012 809.428 -216.739 785.381C-96.9926 767.515 2.1346 745.706 77.8762 720.563C118.269 707.147 151.962 692.818 178.812 677.624Z" fill="white" fill-opacity="0.1"/>
<path d="M171.835 636.054C173.411 643.289 174.773 650.306 175.915 657.102C152.667 668.615 125.318 679.6 93.9007 690.024C18.1659 715.17 -80.9579 736.973 -200.717 754.832C-362.64 778.987 -519.308 789.319 -578.189 792.6L-562.948 762.247C-504.621 759.02 -347.338 748.699 -184.762 724.447C-65.0123 706.591 34.1149 684.781 109.856 659.639C132.662 652.075 153.321 644.207 171.835 636.054Z" fill="white" fill-opacity="0.1"/>
</svg>
