<svg width="1300" height="770" viewBox="0 0 1300 770" fill="none" xmlns="http://www.w3.org/2000/svg">
<path opacity="0.2" d="M-64.8438 874.271C-44.8084 890.038 27.8522 904.433 158.212 835.872C321.161 750.171 394.993 624.647 524.424 573.679C653.855 522.711 861.838 568.293 1139.45 379.001C1417.07 189.709 1400.38 -60.0494 1455.49 -135.717C1496.16 -191.56 1574.89 -195.021 1598.18 -195.262" stroke="#F0F0F0" stroke-width="2"/>
<path opacity="0.2" d="M-39.6006 920.806C-19.5653 936.574 53.0954 950.969 183.455 882.408C346.404 796.707 420.236 671.182 549.667 620.214C679.098 569.246 887.081 614.828 1164.7 425.536C1442.31 236.245 1425.62 -13.514 1480.73 -89.1821C1521.4 -145.024 1600.13 -148.485 1623.42 -148.727" stroke="#F0F0F0" stroke-width="2"/>
<path d="M1162.99 400.887C1160.72 397.495 1164.4 393.29 1168.06 395.086L1175.76 398.861C1177.04 399.487 1178.55 399.386 1179.73 398.596L1186.86 393.834C1190.25 391.569 1194.46 395.249 1192.66 398.912L1188.88 406.609C1188.26 407.887 1188.36 409.401 1189.15 410.584L1193.91 417.714C1196.17 421.106 1192.49 425.311 1188.83 423.515L1181.14 419.74C1179.86 419.113 1178.34 419.214 1177.16 420.004L1170.03 424.766C1166.64 427.031 1162.44 423.351 1164.23 419.689L1168.01 411.991C1168.64 410.714 1168.54 409.199 1167.75 408.016L1162.99 400.887Z" fill="#F77D89"/>
<path opacity="0.2" d="M-88.6895 830.313C-68.6541 846.081 4.00648 860.476 134.366 791.915C297.315 706.214 371.147 580.689 500.578 529.721C630.009 478.753 837.992 524.335 1115.61 335.044C1393.22 145.752 1376.54 -104.007 1431.64 -179.675C1472.31 -235.517 1551.04 -238.978 1574.34 -239.219" stroke="#F0F0F0" stroke-width="2"/>
<path d="M1215.85 201.599C1223.21 200.963 1230.52 203.278 1236.17 208.034C1241.83 212.79 1245.36 219.598 1245.99 226.959C1246.63 234.321 1244.31 241.634 1239.56 247.289C1234.8 252.944 1228 256.478 1220.64 257.114L1215.85 201.599Z" fill="#2093CA"/>
<path d="M500.954 507.992C504.039 502.355 509.235 498.175 515.4 496.37C521.566 494.565 528.195 495.284 533.829 498.369C539.464 501.453 543.642 506.651 545.446 512.817C547.249 518.984 546.529 525.615 543.444 531.252L500.954 507.992Z" fill="#FFC947"/>
<path d="M450.187 672.958C447.923 669.566 451.603 665.361 455.264 667.157L462.959 670.932C464.236 671.559 465.75 671.458 466.932 670.668L474.061 665.906C477.452 663.641 481.656 667.321 479.86 670.983L476.084 678.681C475.458 679.959 475.558 681.473 476.348 682.656L481.107 689.785C483.371 693.177 479.691 697.382 476.03 695.586L468.335 691.811C467.059 691.185 465.545 691.286 464.362 692.076L457.233 696.838C453.842 699.103 449.639 695.423 451.435 691.761L455.21 684.063C455.837 682.785 455.736 681.271 454.946 680.088L450.187 672.958Z" fill="#F77D89"/>
</svg>
