<svg width="140" height="154" viewBox="0 0 140 154" fill="none" xmlns="http://www.w3.org/2000/svg">
<path d="M50 8.547C59.7607 2.91168 64.641 0.0940104 70 0.0940101C75.359 0.0940101 80.2393 2.91167 90 8.547L119.282 25.453C129.043 31.0883 133.923 33.906 136.603 38.547C139.282 43.188 139.282 48.8234 139.282 60.094V93.906C139.282 105.177 139.282 110.812 136.603 115.453C133.923 120.094 129.043 122.912 119.282 128.547L90 145.453C80.2393 151.088 75.359 153.906 70 153.906C64.641 153.906 59.7607 151.088 50 145.453L20.718 128.547C10.9573 122.912 6.07695 120.094 3.39746 115.453C0.717964 110.812 0.717964 105.177 0.717964 93.906V60.094C0.717964 48.8234 0.717964 43.188 3.39746 38.547C6.07695 33.906 10.9573 31.0883 20.718 25.453L50 8.547Z" fill="#1CC198"/>
</svg>
