<svg width="160" height="160" viewBox="0 0 160 160" fill="none" xmlns="http://www.w3.org/2000/svg">
<mask id="mask0_317_10564" style="mask-type:alpha" maskUnits="userSpaceOnUse" x="10" y="0" width="140" height="160">
<path d="M76 2.3094C77.9521 1.18234 78.9282 0.618802 80 0.618802C81.0718 0.618802 82.0479 1.18233 84 2.3094L145.282 37.6906C147.234 38.8177 148.21 39.3812 148.746 40.3094C149.282 41.2376 149.282 42.3647 149.282 44.6188V115.381C149.282 117.635 149.282 118.762 148.746 119.691C148.21 120.619 147.234 121.182 145.282 122.309L84 157.691C82.0479 158.818 81.0718 159.381 80 159.381C78.9282 159.381 77.9521 158.818 76 157.691L14.718 122.309C12.7658 121.182 11.7898 120.619 11.2539 119.691C10.718 118.762 10.718 117.635 10.718 115.381V44.6188C10.718 42.3647 10.718 41.2376 11.2539 40.3094C11.7898 39.3812 12.7658 38.8177 14.718 37.6906L76 2.3094Z" fill="url(#paint0_linear_317_10564)"/>
</mask>
<g mask="url(#mask0_317_10564)">
<path d="M60 11.547C69.7607 5.91168 74.641 3.09401 80 3.09401C85.359 3.09401 90.2393 5.91167 100 11.547L129.282 28.453C139.043 34.0883 143.923 36.906 146.603 41.547C149.282 46.188 149.282 51.8234 149.282 63.094V96.906C149.282 108.177 149.282 113.812 146.603 118.453C143.923 123.094 139.043 125.912 129.282 131.547L100 148.453C90.2393 154.088 85.359 156.906 80 156.906C74.641 156.906 69.7607 154.088 60 148.453L30.718 131.547C20.9573 125.912 16.0769 123.094 13.3975 118.453C10.718 113.812 10.718 108.177 10.718 96.906V63.094C10.718 51.8234 10.718 46.188 13.3975 41.547C16.0769 36.906 20.9573 34.0883 30.718 28.453L60 11.547Z" fill="#2093CA"/>
</g>
<defs>
<linearGradient id="paint0_linear_317_10564" x1="1.76471" y1="80" x2="160" y2="80" gradientUnits="userSpaceOnUse">
<stop stop-color="#202CD3"/>
<stop offset="1" stop-color="#0778F9"/>
</linearGradient>
</defs>
</svg>
