<svg width="220" height="225" viewBox="0 0 220 225" fill="none" xmlns="http://www.w3.org/2000/svg">
<g opacity="0.2">
<path d="M146.064 109.81L141.326 112.419L146.048 115.057L215.403 153.816L199.638 181.578L129.057 140.47L124.508 137.821L124.547 143.085L125.13 221.727H94.8761L95.4586 143.085L95.4976 137.821L90.9489 140.47L20.3681 181.578L4.60854 153.825L74.5538 115.062L79.3244 112.419L74.5371 109.805L4.59753 71.6244L20.3884 43.311L90.9489 84.4065L95.4979 87.0559L95.4586 81.7918L94.8762 3.75H125.13L124.547 81.7918L124.508 87.0559L129.057 84.4065L199.617 43.311L215.414 71.6337L146.064 109.81Z" stroke="white" stroke-width="6"/>
</g>
</svg>
