<svg width="160" height="160" viewBox="0 0 160 160" fill="none" xmlns="http://www.w3.org/2000/svg">
<path d="M105.981 77.1439L101.111 79.7657L105.965 82.4181L155.859 109.682L145.198 128.039L94.3023 99.0553L89.7783 96.479L89.8178 101.685L90.2369 157H69.7632L70.1822 101.685L70.2217 96.479L65.6977 99.0553L14.802 128.039L4.14611 109.691L54.4679 82.4232L59.3723 79.7656L54.4514 77.1389L4.13458 50.2809L14.8222 31.5435L65.6977 60.5158L70.222 63.0922L70.1822 57.8859L69.7633 3H90.2367L89.8178 57.8859L89.778 63.0922L94.3023 60.5158L145.178 31.5436L155.871 50.2902L105.981 77.1439Z" stroke="#2093CA" stroke-width="6"/>
</svg>
