<svg width="275" height="288" viewBox="0 0 275 288" fill="none" xmlns="http://www.w3.org/2000/svg">
<path d="M169.984 141.141L165.114 143.763L169.968 146.415L219.862 173.679L209.201 192.036L158.305 163.052L153.781 160.476L153.821 165.682L154.24 220.997H133.766L134.185 165.682L134.225 160.476L129.701 163.052L78.8049 192.036L68.149 173.688L118.471 146.42L123.375 143.763L118.454 141.136L68.1375 114.278L78.8251 95.5405L129.701 124.513L134.225 127.089L134.185 121.883L133.766 66.9969H154.24L153.821 121.883L153.781 127.089L158.305 124.513L209.181 95.5405L219.874 114.287L169.984 141.141Z" stroke="white" stroke-opacity="0.7" stroke-width="6"/>
</svg>
