<svg width="220" height="219" viewBox="0 0 220 219" fill="none" xmlns="http://www.w3.org/2000/svg">
<g opacity="0.2">
<path d="M146.086 106.565L141.216 109.187L146.07 111.839L215.359 149.7L199.646 176.758L129.029 136.543L124.505 133.967L124.544 139.173L125.126 216H94.8736L95.4557 139.173L95.4951 133.967L90.9712 136.543L20.3545 176.758L4.6461 149.71L74.526 111.844L79.4303 109.187L74.5094 106.56L4.63458 69.2621L20.3747 41.6669L90.9712 81.8696L95.4954 84.4461L95.4557 79.2398L94.8738 3H125.126L124.544 79.2398L124.505 84.4461L129.029 81.8696L199.625 41.6669L215.371 69.2714L146.086 106.565Z" stroke="white" stroke-width="6"/>
</g>
</svg>
