<svg width="175" height="175" viewBox="0 0 175 175" fill="none" xmlns="http://www.w3.org/2000/svg">
<path d="M79.9254 152.216L79.6001 154.55L76.4243 154.105C75.8375 154.023 75.3544 154.131 74.9748 154.429C74.5952 154.727 74.3707 155.125 74.3014 155.622C74.2534 155.967 74.2873 156.283 74.403 156.573C74.5188 156.862 74.7063 157.103 74.9656 157.295C75.2121 157.486 75.533 157.609 75.9284 157.664L79.1043 158.109L78.7871 160.386L75.8599 159.976C75.3625 159.906 74.9438 159.971 74.604 160.171C74.2623 160.383 74.0559 160.744 73.9849 161.254C73.9155 161.752 74.0171 162.143 74.2894 162.428C74.56 162.726 74.944 162.91 75.4414 162.98L78.3686 163.39L78.0434 165.724L74.5422 165.234C73.6749 165.112 72.9637 164.85 72.4087 164.447C71.8409 164.043 71.4349 163.55 71.1907 162.97C70.9465 162.39 70.8697 161.774 70.9603 161.124C71.0758 160.294 71.4414 159.63 72.0571 159.131C72.6727 158.632 73.5186 158.348 74.5947 158.277L74.3769 159.281C73.2719 158.905 72.4596 158.342 71.9397 157.593C71.4072 156.843 71.2084 155.982 71.3435 155.013C71.4466 154.273 71.7248 153.629 72.1782 153.082C72.6171 152.545 73.2049 152.153 73.9416 151.905C74.6656 151.655 75.5059 151.597 76.4625 151.731L79.9254 152.216ZM82.2212 152.537L80.3392 166.045L77.3738 165.63L79.2557 152.122L82.2212 152.537Z" fill="white"/>
<path d="M64.5984 148.214C65.654 148.59 66.5088 149.147 67.1627 149.885C67.8044 150.619 68.216 151.463 68.3976 152.416C68.5627 153.377 68.4647 154.367 68.1034 155.387L65.3425 163.181L62.4668 162.157L65.2857 154.2C65.4664 153.69 65.5141 153.208 65.429 152.754C65.3439 152.3 65.1498 151.903 64.8468 151.563C64.5273 151.23 64.137 150.982 63.6759 150.818C63.1906 150.645 62.7315 150.591 62.2987 150.656C61.8615 150.733 61.4753 150.917 61.14 151.208C60.7883 151.506 60.5221 151.911 60.3415 152.42L57.5161 160.396L54.6403 159.373L57.4077 151.561C57.7689 150.541 58.3138 149.717 59.0423 149.088C59.7708 148.458 60.615 148.061 61.575 147.897C62.5349 147.733 63.5427 147.838 64.5984 148.214Z" fill="white"/>
<path d="M56.9056 144.914L50.2972 156.845L47.6466 155.371L54.255 143.44L56.9056 144.914Z" fill="white"/>
<path d="M50.2636 140.877L41.9119 151.66L39.5176 149.798L47.8693 139.015L50.2636 140.877ZM48.4183 139.442L46.7859 141.55L41.4635 137.411L43.096 135.303L48.4183 139.442Z" fill="white"/>
<path d="M39.8302 131.651L37.8181 133.4L35.6051 130.844C35.0656 130.221 34.472 129.781 33.8243 129.525C33.1669 129.277 32.4905 129.234 31.795 129.395C31.0995 129.556 30.4262 129.919 29.7749 130.485C29.1237 131.051 28.6785 131.668 28.4396 132.337C28.1922 132.996 28.1445 133.668 28.2964 134.355C28.4399 135.033 28.7814 135.683 29.321 136.306L31.5971 138.935L29.5996 140.671L27.2981 138.013C26.6237 137.234 26.1305 136.409 25.8184 135.537C25.4881 134.663 25.3455 133.781 25.3906 132.888C25.4175 131.995 25.633 131.142 26.0372 130.33C26.4233 129.516 26.9954 128.78 27.7536 128.121C28.502 127.471 29.3102 127.007 30.1781 126.73C31.0375 126.444 31.9064 126.346 32.7848 126.436C33.6631 126.525 34.5153 126.791 35.3413 127.234C36.1589 127.666 36.9007 128.267 37.5667 129.037L39.8302 131.651ZM41.1706 133.199L30.8768 142.146L28.8915 139.853L39.1853 130.906L41.1706 133.199Z" fill="white"/>
<path d="M29.2438 116.513L14.5781 116.606L13.5534 114.062L24.1997 103.987L25.3976 106.962L16.4316 115.003L16.0202 113.981L28.0676 113.592L29.2438 116.513ZM25.8038 114.591L23.5112 115.517L20.733 108.618L23.0256 107.691L25.8038 114.591Z" fill="white"/>
<path d="M22.9371 90.721C23.0026 91.8395 22.8789 92.8144 22.5663 93.6454C22.2401 94.4644 21.7236 95.23 21.017 95.9422L18.9542 94.0892C19.43 93.6227 19.794 93.1176 20.046 92.5739C20.2844 92.0181 20.383 91.3866 20.3416 90.6795C20.304 90.0366 20.1594 89.5484 19.9077 89.2148C19.6552 88.8684 19.3232 88.7072 18.9118 88.7313C18.539 88.7531 18.2436 88.8865 18.0257 89.1315C17.8078 89.3765 17.6266 89.6967 17.482 90.0922C17.3366 90.4749 17.2004 90.9021 17.0731 91.374C16.9452 91.833 16.7979 92.2932 16.6314 92.7545C16.452 93.2165 16.2257 93.6491 15.9525 94.0521C15.6658 94.443 15.3041 94.7674 14.8677 95.0252C14.4184 95.2837 13.8466 95.4333 13.1523 95.4739C12.3166 95.5229 11.585 95.3658 10.9574 95.0026C10.329 94.6266 9.83954 94.0876 9.48887 93.3856C9.12535 92.6845 8.91615 91.8646 8.86127 90.9261C8.80564 89.9746 8.92204 89.097 9.21046 88.2931C9.49814 87.4764 9.91622 86.794 10.4647 86.2458L12.5276 88.0989C12.1273 88.5352 11.8368 88.9715 11.6559 89.4078C11.4742 89.8313 11.3988 90.3066 11.4296 90.8337C11.4604 91.3608 11.5877 91.7727 11.8115 92.0692C12.0224 92.3665 12.3143 92.5042 12.6871 92.4823C13.0342 92.462 13.3103 92.3297 13.5154 92.0855C13.7075 91.842 13.8699 91.5294 14.0024 91.1475C14.1341 90.7527 14.2639 90.3258 14.3919 89.8668C14.5191 89.3949 14.6724 88.9279 14.8518 88.4659C15.0312 88.0039 15.2708 87.577 15.5704 87.1853C15.8564 86.7815 16.2369 86.4496 16.7119 86.1896C17.1741 85.9303 17.7588 85.78 18.4659 85.7386C19.7645 85.6625 20.8136 86.0655 21.6135 86.9475C22.4005 87.8303 22.8417 89.0881 22.9371 90.721Z" fill="white"/>
<path d="M23.731 76.6724C23.5707 77.7814 23.193 78.7286 22.598 79.5141C22.0048 80.2869 21.259 80.8553 20.3605 81.2193C19.4512 81.5687 18.4612 81.6657 17.3906 81.5102L9.20814 80.3216L9.64485 77.3007L17.9993 78.5143C18.5346 78.592 19.0164 78.5449 19.4447 78.3728C19.873 78.2008 20.224 77.9329 20.4978 77.5693C20.7607 77.191 20.9271 76.7597 20.9971 76.2753C21.0709 75.7654 21.0334 75.3045 20.8847 74.8925C20.7234 74.4786 20.4671 74.1356 20.1161 73.8633C19.7542 73.5765 19.3056 73.3942 18.7703 73.3165L10.3967 72.1001L10.8334 69.0792L19.0349 70.2706C20.1055 70.4261 21.0209 70.7998 21.7812 71.3918C22.5415 71.9837 23.0966 72.7346 23.4465 73.6444C23.7965 74.5541 23.8913 75.5635 23.731 76.6724Z" fill="white"/>
<path d="M27.6782 62.7099C27.3277 63.6651 26.8384 64.4936 26.2104 65.1955C25.5748 65.8809 24.8417 66.4205 24.0112 66.8145C23.1851 67.1963 22.3112 67.4096 21.3894 67.4542C20.4555 67.4943 19.5233 67.343 18.5928 67C17.6623 66.6571 16.8603 66.1694 16.187 65.537C15.5016 64.9001 14.9737 64.1702 14.6034 63.3475C14.2331 62.5247 14.0335 61.6482 14.0045 60.7179C13.9678 59.771 14.1247 58.82 14.4753 57.8649C14.848 56.8493 15.3417 56.0086 15.9563 55.343C16.5755 54.6653 17.2777 54.1348 18.0631 53.7517L19.2857 56.3641C18.7989 56.569 18.3641 56.8754 17.9812 57.2833C17.6027 57.6792 17.2981 58.1914 17.0674 58.8201C16.8633 59.3763 16.7714 59.9258 16.7917 60.4686C16.8044 60.9948 16.9238 61.4918 17.15 61.9595C17.3807 62.4151 17.7082 62.8309 18.1327 63.2069C18.5616 63.5709 19.0721 63.8619 19.6643 64.0802C20.2685 64.3028 20.8516 64.4148 21.4137 64.416C21.9801 64.4052 22.4985 64.3011 22.9687 64.1038C23.4434 63.8944 23.8617 63.5956 24.2237 63.2074C24.5901 62.8072 24.8753 62.3289 25.0794 61.7728C25.319 61.1199 25.4248 60.5138 25.3969 59.9544C25.3689 59.3951 25.238 58.8733 25.0041 58.3891L27.631 57.1748C27.9727 58.0007 28.1603 58.8728 28.1937 59.791C28.2316 60.6972 28.0598 61.6701 27.6782 62.7099Z" fill="white"/>
<path d="M34.0823 50.797C33.5419 51.6591 32.892 52.3685 32.1325 52.9252C31.369 53.4642 30.5403 53.8405 29.6464 54.0539C28.7594 54.2565 27.8604 54.2841 26.9495 54.1368C26.0277 53.9827 25.1472 53.6415 24.3079 53.1132C23.4687 52.5849 22.7851 51.9416 22.2573 51.1833C21.7186 50.4181 21.3532 49.5946 21.1612 48.7128C20.9692 47.8311 20.9552 46.932 21.1192 46.0157C21.2792 45.0816 21.6295 44.1835 22.1699 43.3214C22.7445 42.4048 23.4013 41.6845 24.1403 41.1605C24.886 40.6255 25.6827 40.252 26.5302 40.0397L27.1857 42.8492C26.6672 42.9489 26.1785 43.1587 25.7195 43.4785C25.2675 43.7875 24.8635 44.2256 24.5078 44.7931C24.1931 45.295 23.9896 45.8137 23.8972 46.349C23.8007 46.8666 23.8148 47.3776 23.9393 47.8821C24.0707 48.3757 24.3051 48.8504 24.6425 49.3063C24.9868 49.7512 25.4259 50.1418 25.96 50.478C26.505 50.821 27.0522 51.0514 27.6017 51.169C28.158 51.2757 28.6866 51.2812 29.1874 51.1855C29.695 51.079 30.166 50.8732 30.6003 50.5684C31.0415 50.2526 31.4195 49.8437 31.7341 49.3417C32.1036 48.7525 32.3324 48.1813 32.4208 47.6282C32.5091 47.0751 32.489 46.5374 32.3604 46.0152L35.1811 45.371C35.3445 46.25 35.3476 47.1422 35.1904 48.0476C35.04 48.9421 34.6707 49.8586 34.0823 50.797Z" fill="white"/>
<path d="M38.2548 44.9396L28.351 35.5624L30.432 33.3559L40.3358 42.7331L38.2548 44.9396ZM39.8454 43.2531L37.9375 41.4467L43.0671 36.0078L44.975 37.8142L39.8454 43.2531ZM35.7071 39.3349L33.8694 37.5949L38.5351 32.6479L40.3728 34.3878L35.7071 39.3349ZM31.8353 35.669L29.9415 33.8759L35.0049 28.5072L36.8986 30.3003L31.8353 35.669Z" fill="white"/>
<path d="M50.2437 34.3894C49.3347 35.0445 48.4459 35.4628 47.5774 35.6443C46.7118 35.8078 45.7895 35.7819 44.8105 35.5667L45.2712 32.8296C45.9193 32.9816 46.5402 33.0183 47.1339 32.9397C47.7304 32.8432 48.316 32.5878 48.8907 32.1736C49.4131 31.7971 49.7478 31.4131 49.8947 31.0214C50.052 30.6223 50.0105 30.2553 49.7701 29.9205C49.5523 29.6171 49.2818 29.4391 48.9585 29.3863C48.6352 29.3335 48.268 29.3521 47.8569 29.442C47.4563 29.5244 47.0228 29.6383 46.5566 29.7839C46.1007 29.9219 45.6337 30.0442 45.1553 30.1508C44.6694 30.247 44.1834 30.2877 43.6972 30.273C43.2139 30.2403 42.7468 30.1086 42.2958 29.878C41.8374 29.6369 41.4053 29.2339 40.9997 28.669C40.5115 27.9889 40.2528 27.2864 40.2237 26.5612C40.205 25.8286 40.3981 25.1258 40.8029 24.4531C41.2002 23.7698 41.7802 23.1534 42.543 22.6037C43.3161 22.0464 44.119 21.6742 44.9517 21.4868C45.7947 21.292 46.5943 21.2793 47.3502 21.4489L46.8896 24.186C46.3073 24.0817 45.7838 24.0701 45.3188 24.1512C44.8643 24.2248 44.4228 24.416 43.9944 24.7247C43.5661 25.0334 43.2866 25.3618 43.156 25.71C43.0179 26.0476 43.0578 26.3681 43.2756 26.6715C43.4784 26.954 43.7377 27.1164 44.0534 27.1587C44.3617 27.1905 44.7124 27.16 45.1055 27.0672C45.5091 26.9669 45.9388 26.8477 46.3946 26.7097C46.8609 26.5641 47.337 26.4433 47.8228 26.3471C48.3087 26.2509 48.797 26.2244 49.2878 26.2676C49.7815 26.2928 50.2651 26.4364 50.7386 26.6984C51.2046 26.9499 51.6442 27.3634 52.0573 27.9388C52.8159 28.9954 53.0369 30.0982 52.7203 31.2472C52.3962 32.3857 51.5706 33.4331 50.2437 34.3894Z" fill="white"/>
<path d="M61.2861 28.0861C60.2668 28.5512 59.3134 28.788 58.426 28.7965C57.5449 28.7879 56.6452 28.5827 55.7268 28.1806L56.712 25.5864C57.3183 25.8619 57.9202 26.0191 58.5179 26.0578C59.1219 26.0795 59.7462 25.9433 60.3906 25.6493C60.9764 25.382 61.3796 25.0706 61.6 24.7152C61.8321 24.3545 61.8629 23.9866 61.6924 23.6114C61.5378 23.2714 61.3071 23.044 61.0003 22.9292C60.6934 22.8143 60.3296 22.7609 59.9088 22.7689C59.4997 22.7715 59.0523 22.7987 58.5665 22.8505C58.0925 22.8969 57.6104 22.9257 57.1204 22.937C56.625 22.9365 56.1403 22.8816 55.6662 22.7723C55.1985 22.646 54.7659 22.4257 54.3684 22.1116C53.9656 21.7858 53.6203 21.3063 53.3325 20.6732C52.9861 19.9111 52.8692 19.1717 52.982 18.4549C53.1064 17.7328 53.4327 17.0813 53.961 16.5006C54.4839 15.9081 55.173 15.4167 56.0283 15.0264C56.8954 14.6308 57.7556 14.4224 58.6089 14.4011C59.4739 14.3745 60.2607 14.5181 60.9692 14.8318L59.984 17.426C59.4332 17.2102 58.9218 17.0967 58.4499 17.0855C57.9896 17.069 57.5193 17.1703 57.0389 17.3895C56.5585 17.6087 56.2204 17.8762 56.0244 18.1921C55.8232 18.4963 55.7998 18.8184 55.9544 19.1584C56.0983 19.475 56.321 19.6848 56.6225 19.7879C56.9187 19.8792 57.2687 19.9177 57.6724 19.9034C58.0879 19.8837 58.5327 19.8506 59.0067 19.8042C59.4925 19.7525 59.983 19.7268 60.4784 19.7273C60.9738 19.7278 61.458 19.7971 61.931 19.9351C62.4105 20.0561 62.8569 20.2913 63.2703 20.6406C63.6785 20.9782 64.0291 21.4694 64.3222 22.1142C64.8605 23.2984 64.8624 24.4229 64.328 25.4878C63.7881 26.541 62.7742 27.4071 61.2861 28.0861Z" fill="white"/>
<path d="M79.4072 22.7545L79.1524 20.4114L82.3403 20.0637C82.9293 19.9995 83.3714 19.7764 83.6667 19.3944C83.962 19.0124 84.0824 18.5717 84.0281 18.0724C83.9905 17.7267 83.8803 17.4278 83.6974 17.1757C83.5145 16.9236 83.2739 16.736 82.9755 16.6131C82.6899 16.4888 82.3487 16.4483 81.9518 16.4916L78.7638 16.8393L78.5152 14.5538L81.4535 14.2334C81.9529 14.1789 82.3429 14.0133 82.6237 13.7365C82.9031 13.4469 83.015 13.0461 82.9593 12.5339C82.905 12.0346 82.711 11.6801 82.3772 11.4703C82.0421 11.2478 81.6249 11.1637 81.1256 11.2182L78.1873 11.5386L77.9324 9.19559L81.4468 8.81229C82.3174 8.71734 83.071 8.79709 83.7076 9.05155C84.3569 9.30461 84.8709 9.68256 85.2495 10.1854C85.6281 10.6882 85.8529 11.2661 85.9239 11.9191C86.0144 12.7513 85.8221 13.4849 85.3471 14.1197C84.872 14.7545 84.1214 15.2379 83.0952 15.5701L83.0613 14.5438C84.2245 14.6372 85.1495 14.9833 85.8365 15.5821C86.5363 16.1794 86.9391 16.9646 87.0449 17.9377C87.1257 18.6803 87.0132 19.3727 86.7073 20.015C86.4129 20.643 85.9388 21.1676 85.2851 21.5887C84.6441 22.0084 83.8435 22.2706 82.8833 22.3753L79.4072 22.7545ZM77.1027 23.0058L75.6278 9.44693L78.6045 9.12228L80.0794 22.6812L77.1027 23.0058Z" fill="white"/>
<path d="M92.646 16.7842L92.8418 14.5518L95.7092 14.8047C96.3121 14.8579 96.7875 14.7447 97.1352 14.465C97.4958 14.1866 97.6992 13.7843 97.7453 13.2583C97.7881 12.7707 97.6631 12.3525 97.3706 12.0034C97.078 11.6544 96.6302 11.4533 96.0272 11.4001L93.1406 11.1455L93.3466 8.79768L96.5796 9.08283C97.4776 9.16204 98.2514 9.40483 98.901 9.8112C99.5516 10.2047 100.043 10.72 100.375 11.3569C100.707 11.9939 100.839 12.7037 100.77 13.4863C100.7 14.2817 100.446 14.964 100.009 15.533C99.572 16.0892 98.9926 16.5036 98.2706 16.776C97.5486 17.0485 96.7193 17.1434 95.7827 17.0608L92.646 16.7842ZM89.8455 22.1807L91.0373 8.59401L94.0586 8.86048L92.8668 22.4471L89.8455 22.1807ZM97.2351 22.8324L93.5147 16.6087L96.3516 16.1026L100.814 23.1481L97.2351 22.8324Z" fill="white"/>
<path d="M101.489 23.5248L110.565 12.0038L113.193 12.7901L114.426 27.3951L111.354 26.4759L110.662 14.4526L111.717 14.7682L104.506 24.4273L101.489 23.5248ZM105.138 22.0353L105.844 19.6654L112.97 21.7971L112.264 24.167L105.138 22.0353Z" fill="white"/>
<path d="M115.295 28.2707L121.807 16.2866L123.672 17.3044L123.169 20.1326L117.957 29.7233L115.295 28.2707ZM123.554 32.7765L121.415 19.8801L123.672 17.3044L125.811 30.2008L123.554 32.7765ZM123.554 32.7765L124.142 29.9945L129.353 20.4039L132.016 21.8565L125.504 33.8405L123.554 32.7765Z" fill="white"/>
<path d="M128.474 36.6142L130.204 34.5857L132.772 36.7844C133.398 37.3205 134.05 37.667 134.729 37.8241C135.416 37.9713 136.091 37.9137 136.755 37.6513C137.419 37.3889 138.031 36.9294 138.591 36.2729C139.15 35.6163 139.499 34.9397 139.636 34.2432C139.783 33.5551 139.73 32.8826 139.478 32.2257C139.235 31.5773 138.801 30.985 138.175 30.449L135.533 28.1875L137.25 26.1737L139.921 28.4603C140.704 29.1303 141.314 29.8734 141.753 30.6893C142.209 31.5039 142.481 32.3558 142.569 33.2449C142.675 34.1327 142.589 35.0081 142.31 35.8712C142.049 36.7329 141.593 37.546 140.941 38.3103C140.297 39.0649 139.567 39.6434 138.75 40.0459C137.942 40.4567 137.098 40.683 136.216 40.7248C135.334 40.7666 134.452 40.6301 133.569 40.3153C132.696 40.0089 131.874 39.5249 131.101 38.8632L128.474 36.6142ZM126.918 35.2825L135.768 24.9047L138.072 26.8772L129.222 37.255L126.918 35.2825Z" fill="white"/>
<path d="M143.373 53.6601L153.153 43.1825L154.617 45.8166L147.014 53.7301L146.442 52.7001L157.123 50.3251L158.277 52.4021L150.637 60.248L150.074 59.2349L160.783 56.9106L162.238 59.5279L148.197 62.3393L147.042 60.2624L154.674 52.3996L155.218 53.3789L144.527 55.737L143.373 53.6601Z" fill="white"/>
<path d="M149.203 66.2191L162.156 61.9483L163.103 64.8297L150.15 69.1005L149.203 66.2191Z" fill="white"/>
<path d="M151.895 76.9438L165.171 74.818L165.649 77.8131L152.373 79.9389L151.895 76.9438ZM162.076 70.9899L164.689 70.5715L166.513 81.9985L163.9 82.417L162.076 70.9899Z" fill="white"/>
<path d="M152.861 86.3113L166.487 86.9109L166.355 89.941L152.729 89.3414L152.861 86.3113ZM152.493 94.7454L166.118 95.3451L165.985 98.3945L152.36 97.7948L152.493 94.7454ZM158.476 88.3761L161.1 88.4916L160.767 96.1151L158.142 95.9996L158.476 88.3761Z" fill="white"/>
<path d="M148.955 109.506L151.435 110.484L150.199 113.631C149.897 114.398 149.784 115.128 149.857 115.822C149.943 116.52 150.218 117.141 150.682 117.684C151.147 118.227 151.781 118.657 152.583 118.974C153.386 119.29 154.139 119.4 154.841 119.303C155.538 119.218 156.156 118.95 156.693 118.497C157.226 118.057 157.643 117.453 157.944 116.685L159.216 113.449L161.678 114.42L160.392 117.692C160.016 118.651 159.514 119.471 158.887 120.151C158.267 120.848 157.552 121.383 156.742 121.756C155.938 122.145 155.084 122.348 154.178 122.365C153.279 122.398 152.363 122.23 151.428 121.862C150.506 121.498 149.721 120.994 149.074 120.352C148.423 119.721 147.933 118.995 147.605 118.173C147.278 117.352 147.118 116.472 147.127 115.534C147.131 114.608 147.319 113.671 147.69 112.724L148.955 109.506ZM149.703 107.6L162.391 112.604L161.282 115.427L148.594 110.423L149.703 107.6Z" fill="white"/>
<path d="M144.121 120.075L155.588 127.459L153.951 130.012L142.484 122.628L144.121 120.075ZM142.869 122.027L145.078 123.449L141.042 129.742L138.833 128.32L142.869 122.027ZM147.661 125.112L149.789 126.482L146.118 132.206L143.99 130.836L147.661 125.112ZM152.144 127.999L154.337 129.411L150.353 135.623L148.16 134.211L152.144 127.999Z" fill="white"/>
<path d="M137.467 129.808L147.097 139.466L145.568 140.997L135.866 138.873L136.645 138.094L138.769 147.803L137.227 149.348L127.596 139.69L129.739 137.544L135.755 143.577L135.277 143.864L133.902 137.532L135.322 136.111L141.626 137.508L141.353 137.973L135.337 131.941L137.467 129.808Z" fill="white"/>
<path d="M119.948 143.867C120.825 143.326 121.731 142.979 122.665 142.826C123.588 142.681 124.498 142.71 125.394 142.913C126.29 143.117 127.114 143.486 127.866 144.021C128.625 144.567 129.264 145.262 129.783 146.107C130.309 146.963 130.642 147.847 130.78 148.761C130.918 149.674 130.878 150.569 130.661 151.445C130.45 152.332 130.068 153.15 129.516 153.899C128.96 154.666 128.243 155.32 127.366 155.861C126.5 156.395 125.606 156.735 124.682 156.881C123.755 157.045 122.849 157.021 121.963 156.811C121.074 156.618 120.25 156.249 119.491 155.703C118.739 155.168 118.1 154.473 117.574 153.617C117.055 152.772 116.723 151.888 116.578 150.963C116.439 150.05 116.476 149.15 116.687 148.263C116.904 147.387 117.291 146.566 117.848 145.799C118.393 145.038 119.093 144.394 119.948 143.867ZM121.428 146.2C120.737 146.626 120.229 147.152 119.903 147.777C119.565 148.409 119.423 149.087 119.475 149.811C119.534 150.547 119.786 151.276 120.231 152C120.568 152.549 120.954 152.992 121.388 153.33C121.829 153.678 122.301 153.917 122.803 154.045C123.313 154.185 123.831 154.206 124.36 154.106C124.884 154.025 125.404 153.825 125.919 153.508C126.61 153.081 127.124 152.553 127.461 151.921C127.794 151.307 127.935 150.637 127.882 149.913C127.837 149.2 127.588 148.475 127.136 147.74C126.799 147.192 126.41 146.743 125.969 146.395C125.528 146.046 125.059 145.799 124.56 145.652C124.058 145.523 123.539 145.503 123.004 145.591C122.468 145.679 121.943 145.882 121.428 146.2Z" fill="white"/>
<path d="M107.775 149.29C108.833 148.919 109.847 148.815 110.818 148.979C111.778 149.147 112.627 149.545 113.365 150.172C114.096 150.817 114.64 151.649 114.997 152.67L117.729 160.474L114.85 161.486L112.06 153.518C111.881 153.008 111.617 152.602 111.266 152.303C110.915 152.003 110.515 151.815 110.066 151.741C109.609 151.683 109.15 151.735 108.688 151.898C108.202 152.068 107.811 152.315 107.515 152.638C107.223 152.972 107.037 153.358 106.958 153.796C106.871 154.249 106.917 154.731 107.096 155.242L109.892 163.228L107.013 164.24L104.274 156.418C103.916 155.397 103.824 154.412 103.997 153.464C104.17 152.516 104.579 151.676 105.223 150.945C105.868 150.213 106.718 149.662 107.775 149.29Z" fill="white"/>
<path d="M99.7138 151.553L102.042 164.992L99.0535 165.511L96.7256 152.072L99.7138 151.553Z" fill="white"/>
</svg>
