<svg width="160" height="160" viewBox="0 0 160 160" fill="none" xmlns="http://www.w3.org/2000/svg">
<path d="M105.984 77.1408L101.114 79.7626L105.968 82.4151L155.862 109.679L145.201 128.036L94.3052 99.0522L89.7813 96.476L89.8207 101.682L90.2398 156.997H69.7661L70.1852 101.682L70.2246 96.476L65.7007 99.0522L14.8049 128.036L4.14903 109.688L54.4709 82.4201L59.3752 79.7626L54.4543 77.1359L4.13751 50.2778L14.8251 31.5405L65.7007 60.5127L70.2249 63.0891L70.1852 57.8829L69.7663 2.99695H90.2396L89.8207 57.8829L89.781 63.0891L94.3052 60.5127L145.181 31.5405L155.874 50.2871L105.984 77.1408Z" stroke="white" stroke-opacity="0.7" stroke-width="6"/>
</svg>
