<svg width="40" height="40" viewBox="0 0 40 40" fill="none" xmlns="http://www.w3.org/2000/svg">
<path d="M19.9859 3.33203C10.7859 3.33203 3.33594 10.7987 3.33594 19.9987C3.33594 29.1987 10.7859 36.6654 19.9859 36.6654C29.2026 36.6654 36.6693 29.1987 36.6693 19.9987C36.6693 10.7987 29.2026 3.33203 19.9859 3.33203ZM20.0026 33.332C12.6359 33.332 6.66927 27.3654 6.66927 19.9987C6.66927 12.632 12.6359 6.66536 20.0026 6.66536C27.3693 6.66536 33.3359 12.632 33.3359 19.9987C33.3359 27.3654 27.3693 33.332 20.0026 33.332ZM19.6359 11.6654H19.5359C18.8693 11.6654 18.3359 12.1987 18.3359 12.8654V20.732C18.3359 21.3154 18.6359 21.8654 19.1526 22.1654L26.0693 26.3154C26.6359 26.6487 27.3693 26.482 27.7026 25.9154C27.7863 25.7804 27.842 25.63 27.8663 25.4731C27.8906 25.3162 27.8832 25.1559 27.8443 25.002C27.8054 24.848 27.7359 24.7035 27.64 24.5769C27.5441 24.4504 27.4237 24.3444 27.2859 24.2654L20.8359 20.432V12.8654C20.8359 12.1987 20.3026 11.6654 19.6359 11.6654Z" fill="#0E374A"/>
</svg>
