<svg width="40" height="40" viewBox="0 0 40 40" fill="none" xmlns="http://www.w3.org/2000/svg">
<path d="M6.66927 33.3327C5.75261 33.3327 4.96761 33.006 4.31427 32.3527C3.66094 31.6994 3.33483 30.9149 3.33594 29.9994V9.99935C3.33594 9.08269 3.66261 8.29768 4.31594 7.64435C4.96927 6.99102 5.75372 6.66491 6.66927 6.66602H33.3359C34.2526 6.66602 35.0376 6.99268 35.6909 7.64602C36.3443 8.29935 36.6704 9.0838 36.6693 9.99935V29.9994C36.6693 30.916 36.3426 31.701 35.6893 32.3544C35.0359 33.0077 34.2515 33.3338 33.3359 33.3327H6.66927ZM33.3359 13.3327L20.8776 21.1244C20.7387 21.2077 20.5926 21.2705 20.4393 21.3127C20.2859 21.3549 20.1404 21.3755 20.0026 21.3744C19.8637 21.3744 19.7176 21.3538 19.5643 21.3127C19.4109 21.2716 19.2654 21.2088 19.1276 21.1244L6.66927 13.3327V29.9994H33.3359V13.3327ZM20.0026 18.3327L33.3359 9.99935H6.66927L20.0026 18.3327ZM6.66927 13.7494V11.291V11.3327V11.3127V13.7494Z" fill="#0E374A"/>
</svg>
