<svg width="30" height="31" viewBox="0 0 30 31" fill="none" xmlns="http://www.w3.org/2000/svg">
<path d="M22.9375 11.2917C21.9043 11.2917 20.9133 10.8812 20.1827 10.1506C19.4521 9.41999 19.0417 8.42907 19.0417 7.39583C19.0417 6.36259 18.6312 5.37167 17.9006 4.64106C17.17 3.91045 16.1791 3.5 15.1458 3.5H14.6875C13.6543 3.5 12.6633 3.91045 11.9327 4.64106C11.2021 5.37167 10.7917 6.36259 10.7917 7.39583C10.7917 8.42907 10.3812 9.41999 9.6506 10.1506C8.91999 10.8812 7.92907 11.2917 6.89583 11.2917C5.86259 11.2917 4.87167 11.7021 4.14106 12.4327C3.41045 13.1633 3 14.1543 3 15.1875V15.6458C3 16.6791 3.41045 17.67 4.14106 18.4006C4.87167 19.1312 5.86259 19.5417 6.89583 19.5417C7.92907 19.5417 8.91999 19.9521 9.6506 20.6827C10.3812 21.4133 10.7917 22.4043 10.7917 23.4375C10.7917 24.4707 11.2021 25.4617 11.9327 26.1923C12.6633 26.9229 13.6543 27.3333 14.6875 27.3333H15.1458C16.1791 27.3333 17.17 26.9229 17.9006 26.1923C18.6312 25.4617 19.0417 24.4707 19.0417 23.4375C19.0417 22.4043 19.4521 21.4133 20.1827 20.6827C20.9133 19.9521 21.9043 19.5417 22.9375 19.5417C23.9707 19.5417 24.9617 19.1312 25.6923 18.4006C26.4229 17.67 26.8333 16.6791 26.8333 15.6458V15.1875C26.8333 14.1543 26.4229 13.1633 25.6923 12.4327C24.9617 11.7021 23.9707 11.2917 22.9375 11.2917Z" stroke="white" stroke-width="0.5" stroke-linecap="round" stroke-linejoin="round"/>
<path d="M23.3183 17.9837C22.5878 17.2531 22.1774 16.2623 22.1774 15.2291C22.1774 14.196 22.5878 13.2051 23.3183 12.4745C24.0488 11.7439 24.4592 10.7531 24.4592 9.71996C24.4592 8.68681 24.0488 7.69597 23.3183 6.96538L22.9938 6.64088C22.2632 5.91038 21.2724 5.5 20.2392 5.5C19.2061 5.5 18.2152 5.91038 17.4846 6.64088C17.1229 7.00272 16.6933 7.28975 16.2206 7.48558C15.7479 7.68142 15.2413 7.78221 14.7296 7.78221C14.2179 7.78221 13.7112 7.68142 13.2385 7.48558C12.7658 7.28975 12.3363 7.00272 11.9745 6.64088C11.2439 5.91038 10.2531 5.5 9.21996 5.5C8.18681 5.5 7.19597 5.91038 6.46538 6.64088L6.14088 6.96446C5.41038 7.69505 5 8.6859 5 9.71904C5 10.7522 5.41038 11.743 6.14088 12.4736C6.50272 12.8354 6.78975 13.2649 6.98558 13.7376C7.18142 14.2103 7.28221 14.717 7.28221 15.2287C7.28221 15.7403 7.18142 16.247 6.98558 16.7197C6.78975 17.1924 6.50272 17.6219 6.14088 17.9837C5.41038 18.7143 5 19.7051 5 20.7383C5 21.7714 5.41038 22.7623 6.14088 23.4929L6.46446 23.8174C7.19505 24.5479 8.1859 24.9583 9.21904 24.9583C10.2522 24.9583 11.243 24.5479 11.9736 23.8174C12.3354 23.4555 12.7649 23.1685 13.2376 22.9727C13.7103 22.7768 14.217 22.676 14.7287 22.676C15.2403 22.676 15.747 22.7768 16.2197 22.9727C16.6924 23.1685 17.1219 23.4555 17.4837 23.8174C18.2143 24.5479 19.2051 24.9583 20.2383 24.9583C21.2714 24.9583 22.2623 24.5479 22.9929 23.8174L23.3174 23.4938C24.0479 22.7632 24.4583 21.7724 24.4583 20.7392C24.4583 19.7061 24.0479 18.7152 23.3174 17.9846" stroke="white" stroke-width="0.5" stroke-linecap="round" stroke-linejoin="round"/>
</svg>
