<svg width="24" height="24" viewBox="0 0 24 24" fill="none" xmlns="http://www.w3.org/2000/svg">
<path d="M13.05 7C14.0268 7.19057 14.9244 7.66826 15.6281 8.37194C16.3318 9.07561 16.8095 9.97326 17 10.95M13.05 3C15.0793 3.22544 16.9716 4.13417 18.4163 5.57701C19.8609 7.01984 20.7721 8.91101 21 10.94M17.5 22C8.93959 22 2 15.0604 2 6.5C2 6.11378 2.01413 5.73086 2.04189 5.35173C2.07375 4.91662 2.08968 4.69907 2.2037 4.50103C2.29814 4.33701 2.4655 4.18146 2.63598 4.09925C2.84181 4 3.08188 4 3.56201 4H6.37932C6.78308 4 6.98496 4 7.15802 4.06645C7.31089 4.12515 7.44701 4.22049 7.55442 4.3441C7.67601 4.48403 7.745 4.67376 7.88299 5.05321L9.0491 8.26005C9.2096 8.70153 9.2899 8.92227 9.2763 9.1317C9.2643 9.31637 9.2012 9.49408 9.0942 9.64506C8.97286 9.81628 8.77145 9.93713 8.36863 10.1788L7 11C8.2019 13.6489 10.3501 15.7999 13 17L13.8212 15.6314C14.0629 15.2285 14.1837 15.0271 14.3549 14.9058C14.5059 14.7988 14.6836 14.7357 14.8683 14.7237C15.0777 14.7101 15.2985 14.7904 15.74 14.9509L18.9468 16.117C19.3262 16.255 19.516 16.324 19.6559 16.4456C19.7795 16.553 19.8749 16.6891 19.9335 16.842C20 17.015 20 17.2169 20 17.6207V20.438C20 20.9181 20 21.1582 19.9007 21.364C19.8185 21.5345 19.663 21.7019 19.499 21.7963C19.3009 21.9103 19.0834 21.9262 18.6483 21.9581C18.2691 21.9859 17.8862 22 17.5 22Z" stroke="#5B5F61" stroke-width="1.6" stroke-linecap="round" stroke-linejoin="round"/>
</svg>
