<svg width="33" height="32" viewBox="0 0 33 32" fill="none" xmlns="http://www.w3.org/2000/svg">
<path d="M24.168 14.931C24.1677 13.1421 23.4569 11.4266 22.192 10.1617C20.9271 8.89679 19.2116 8.18601 17.4227 8.18566M28.792 14.459C28.792 13.0417 28.5129 11.6382 27.9704 10.3288C27.428 9.01933 26.6329 7.82957 25.6307 6.82742C24.6284 5.82528 23.4385 5.03037 22.129 4.4881C20.8195 3.94583 19.4161 3.66682 17.9987 3.66699M17.208 26.9563C16.808 26.7737 16.4094 26.591 16.0107 26.3737C14.0551 25.2688 12.2587 23.9035 10.6707 22.315C8.61296 20.3771 6.92226 18.0834 5.68005 15.5443C5.01553 14.1805 4.56663 12.7218 4.34938 11.2203C4.05629 9.70318 4.2244 8.13303 4.83205 6.71233C5.20692 6.10164 5.6596 5.54228 6.17872 5.04833C6.38937 4.81264 6.64546 4.62194 6.93163 4.48768C7.2178 4.35342 7.52815 4.27835 7.84405 4.26699C8.50138 4.36566 9.09738 4.70966 9.50805 5.23099C10.4067 6.22966 11.3707 7.12833 12.3187 8.07633C12.692 8.39633 12.9254 8.84966 12.968 9.34033C12.952 9.75366 12.7934 10.147 12.5187 10.455C12.2027 10.855 11.82 11.2203 11.4547 11.6017C11.2338 11.8144 11.0648 12.0752 10.9608 12.3637C10.8567 12.6523 10.8204 12.9609 10.8547 13.2657C11.084 13.979 11.4774 14.6297 12.0027 15.163C12.633 16.0229 13.2934 16.8603 13.9827 17.6737C15.2684 19.1567 16.7913 20.4161 18.4894 21.4003C18.7245 21.5779 19.0025 21.69 19.2951 21.7251C19.5876 21.7602 19.8842 21.7172 20.1547 21.6003C20.7187 21.2843 21.2214 20.867 21.6347 20.3697C21.9928 19.9341 22.5054 19.6536 23.0654 19.587C23.564 19.6137 24.0334 19.827 24.38 20.187C24.828 20.5683 25.2107 21.0177 25.6267 21.4337C26.0427 21.8497 26.376 22.1497 26.7254 22.531C27.144 22.9008 27.5374 23.2945 27.9054 23.7123C28.1907 24.0817 28.328 24.5457 28.288 25.0097C28.1394 25.5653 27.8194 26.0598 27.3734 26.423C26.7453 27.076 25.9823 27.5841 25.1376 27.9118C24.2929 28.2395 23.3869 28.3789 22.4827 28.3203C20.652 28.2188 18.8584 27.7551 17.208 26.9563Z" stroke="#0C3226" stroke-width="1.5" stroke-miterlimit="10" stroke-linecap="round"/>
</svg>
