<svg width="19" height="18" viewBox="0 0 19 18" fill="none" xmlns="http://www.w3.org/2000/svg">
<path d="M18.7929 7.48269L14.6293 11.5164L15.6117 17.2182C15.6518 17.4707 15.5516 17.7166 15.3444 17.8694C15.2308 17.9558 15.0905 17.9957 14.9501 17.9957C14.8432 17.9957 14.7363 17.9691 14.636 17.9226L9.49005 15.2312L4.34409 17.9226C4.11687 18.0422 3.84955 18.0223 3.64237 17.8694C3.4352 17.7232 3.33495 17.4707 3.37505 17.2182L4.35746 11.5164L0.200596 7.48269C0.0201531 7.30327 -0.0466775 7.0441 0.0335192 6.80486C0.113716 6.56563 0.320891 6.3862 0.574847 6.35298L6.32896 5.52231L8.90194 0.338914C9.12916 -0.112971 9.87767 -0.112971 10.0982 0.338914L12.6712 5.52231L18.4253 6.35298C18.6793 6.39285 18.8864 6.56563 18.9666 6.80486C19.0468 7.0441 18.98 7.30327 18.7929 7.48269Z" fill="#FFA800"/>
</svg>
