<svg width="16" height="16" viewBox="0 0 16 16" fill="none" xmlns="http://www.w3.org/2000/svg">
<path d="M4.66667 7.33435H6V8.66768H4.66667V7.33435ZM14 4.00102V13.3343C14 14.0677 13.4 14.6677 12.6667 14.6677H3.33333C2.97971 14.6677 2.64057 14.5272 2.39052 14.2772C2.14048 14.0271 2 13.688 2 13.3343L2.00667 4.00102C2.00667 3.26768 2.59333 2.66768 3.33333 2.66768H4V1.33435H5.33333V2.66768H10.6667V1.33435H12V2.66768H12.6667C13.4 2.66768 14 3.26768 14 4.00102ZM3.33333 5.33435H12.6667V4.00102H3.33333V5.33435ZM12.6667 13.3343V6.66768H3.33333V13.3343H12.6667ZM10 8.66768H11.3333V7.33435H10V8.66768ZM7.33333 8.66768H8.66667V7.33435H7.33333V8.66768Z" fill="#0E374A"/>
</svg>
