<svg width="28" height="32" viewBox="0 0 28 32" fill="none" xmlns="http://www.w3.org/2000/svg">
<path d="M8.71487 12.9389L8.86816 13.7876C4.97715 14.4292 2.01444 17.8492 2.01444 21.8349C2.01444 26.3334 5.68671 29.9931 10.2003 29.9931C14.0601 29.9931 17.4182 27.2443 18.2093 23.5221H19.0885C18.2877 27.7443 14.5752 30.8533 10.2003 30.8533C5.21044 30.8533 1.15098 26.808 1.15098 21.8349C1.15098 17.3863 4.36699 13.6511 8.71487 12.9389ZM0 21.8349C0 27.4397 4.57603 32 10.2003 32C15.3774 32 19.732 28.1371 20.3297 23.0149C20.3485 22.8524 20.2964 22.6897 20.1876 22.5674C20.0786 22.4451 19.9219 22.3754 19.758 22.3754H17.7285C17.4428 22.3754 17.2007 22.5834 17.1592 22.8648C16.6532 26.2748 13.6614 28.846 10.2003 28.846C6.32082 28.846 3.1648 25.7008 3.1648 21.8349C3.1648 18.229 5.98785 15.1614 9.59135 14.8516C9.75253 14.838 9.90038 14.7568 9.99854 14.6291C10.097 14.5011 10.1367 14.3377 10.1079 14.1786L9.75011 12.1958C9.69649 11.9 9.42623 11.6998 9.12296 11.7266C3.92222 12.2734 0 16.6188 0 21.8349Z" fill="#2093CA"/>
<path d="M23.547 19.8087C23.5539 19.8314 23.5627 19.854 23.5727 19.8758L26.8363 26.9931C26.8611 27.0946 26.8481 27.2 26.7993 27.2939C26.746 27.3953 26.6563 27.4705 26.5445 27.5052C26.3225 27.5753 26.0749 27.4451 26.0049 27.2235C25.9974 27.1985 25.9877 27.1743 25.9762 27.1504L22.9162 20.6961C22.8211 20.4956 22.6184 20.3676 22.396 20.3676H14.0617C13.8529 20.3676 13.6742 20.2188 13.6372 20.014L11.7458 9.538C11.723 9.41209 11.7573 9.28378 11.8394 9.18595C11.9218 9.08782 12.0424 9.03167 12.1705 9.03167H21.4401C21.678 9.03167 21.8719 9.2246 21.8719 9.46162C21.8719 9.69893 21.678 9.89187 21.4401 9.89187H13.3751C13.2046 9.89187 13.0428 9.96704 12.9337 10.0972C12.824 10.2276 12.7786 10.3997 12.8089 10.567L14.3374 19.0355C14.387 19.3087 14.6255 19.5074 14.9039 19.5074H23.1352C23.3246 19.5074 23.49 19.6288 23.547 19.8087ZM23.0222 9.46162C23.0222 8.59206 22.3127 7.88494 21.4401 7.88494H12.1705C11.7006 7.88494 11.2583 8.09086 10.9565 8.45015C10.6551 8.80945 10.53 9.28016 10.613 9.7412L12.5047 20.2169C12.6404 20.9691 13.2955 21.5146 14.0617 21.5146H22.0312L24.9209 27.6088C25.1412 28.2468 25.7365 28.6719 26.4167 28.6719C26.5782 28.6719 26.7381 28.6474 26.8905 28.5991C27.2941 28.4729 27.624 28.1981 27.8194 27.8247C28.0151 27.4512 28.053 27.0242 27.9267 26.6224C27.9197 26.5997 27.9109 26.5774 27.9009 26.5556L24.6328 19.4277C24.4135 18.7879 23.8169 18.3607 23.1352 18.3607H15.3847L14.0632 11.0386H21.4401C22.3127 11.0386 23.0222 10.3309 23.0222 9.46162Z" fill="#2093CA"/>
<path d="M11.2677 6.06654C9.90645 6.06654 8.79942 4.96298 8.79942 3.60672C8.79942 2.25045 9.90645 1.14691 11.2677 1.14691C12.6286 1.14691 13.736 2.25045 13.736 3.60672C13.736 4.96298 12.6286 6.06654 11.2677 6.06654ZM11.2677 -0.000130244C9.27234 -0.000130244 7.64844 1.61791 7.64844 3.60672C7.64844 5.59583 9.27234 7.21387 11.2677 7.21387C13.263 7.21387 14.887 5.59583 14.887 3.60672C14.887 1.61791 13.263 -0.000130244 11.2677 -0.000130244Z" fill="#2093CA"/>
</svg>
