<svg width="37" height="52" viewBox="0 0 37 52" fill="none" xmlns="http://www.w3.org/2000/svg">
<path d="M2.81151 52H29.8604C30.6054 51.9977 31.3192 51.6984 31.846 51.1674C32.3727 50.6364 32.6697 49.9169 32.672 49.166V48.5333H33.2996C34.0446 48.531 34.7584 48.2317 35.2851 47.7007C35.8119 47.1698 36.1088 46.4503 36.1111 45.6993V8.034C36.1088 7.28308 35.8119 6.56357 35.2851 6.03258C34.7584 5.5016 34.0446 5.20229 33.2996 5.2H29.2328V1.95C29.2328 1.43283 29.029 0.936838 28.6662 0.571142C28.3034 0.205446 27.8113 0 27.2983 0H5.37368C4.86061 0 4.36856 0.205446 4.00576 0.571142C3.64297 0.936838 3.43915 1.43283 3.43915 1.95V8.66667H2.81151C2.06655 8.66895 1.35275 8.96827 0.825977 9.49925C0.299207 10.0302 0.00226778 10.7497 0 11.5007V49.166C0.00226778 49.9169 0.299207 50.6364 0.825977 51.1674C1.35275 51.6984 2.06655 51.9977 2.81151 52ZM33.2996 6.93333C33.5892 6.93333 33.8669 7.0493 34.0717 7.25571C34.2765 7.46213 34.3915 7.74209 34.3915 8.034V45.6993C34.3915 45.9912 34.2765 46.2712 34.0717 46.4776C33.8669 46.684 33.5892 46.8 33.2996 46.8H32.672V11.5007C32.6697 10.7497 32.3727 10.0302 31.846 9.49925C31.3192 8.96827 30.6054 8.66895 29.8604 8.66667H29.2328V6.93333H33.2996ZM27.5132 1.95V8.66667H25.7937V1.73333H27.2983C27.3553 1.73333 27.41 1.75616 27.4503 1.79679C27.4906 1.83743 27.5132 1.89254 27.5132 1.95ZM5.15873 1.95C5.15873 1.89254 5.18138 1.83743 5.22169 1.79679C5.262 1.75616 5.31667 1.73333 5.37368 1.73333H6.87831V3.46667C6.87831 3.69652 6.96889 3.91696 7.13013 4.07949C7.29137 4.24202 7.51007 4.33333 7.7381 4.33333C7.96613 4.33333 8.18482 4.24202 8.34606 4.07949C8.5073 3.91696 8.59788 3.69652 8.59788 3.46667V1.73333H10.3175V3.46667C10.3175 3.69652 10.408 3.91696 10.5693 4.07949C10.7305 4.24202 10.9492 4.33333 11.1772 4.33333C11.4053 4.33333 11.624 4.24202 11.7852 4.07949C11.9465 3.91696 12.037 3.69652 12.037 3.46667V1.73333H13.7566V5.2C13.7566 5.42985 13.8472 5.65029 14.0084 5.81283C14.1697 5.97536 14.3884 6.06667 14.6164 6.06667C14.8444 6.06667 15.0631 5.97536 15.2244 5.81283C15.3856 5.65029 15.4762 5.42985 15.4762 5.2V1.73333H17.1958V3.46667C17.1958 3.69652 17.2864 3.91696 17.4476 4.07949C17.6088 4.24202 17.8275 4.33333 18.0556 4.33333C18.2836 4.33333 18.5023 4.24202 18.6635 4.07949C18.8248 3.91696 18.9153 3.69652 18.9153 3.46667V1.73333H20.6349V3.46667C20.6349 3.69652 20.7255 3.91696 20.8867 4.07949C21.048 4.24202 21.2667 4.33333 21.4947 4.33333C21.7227 4.33333 21.9414 4.24202 22.1027 4.07949C22.2639 3.91696 22.3545 3.69652 22.3545 3.46667V1.73333H24.0741V8.66667H5.15873V1.95ZM1.71958 11.4833C1.72409 11.1944 1.84112 10.9189 2.04541 10.7162C2.2497 10.5135 2.52486 10.4 2.81151 10.4H29.8604C30.0038 10.4 30.1458 10.4285 30.2783 10.4838C30.4108 10.5391 30.5312 10.6202 30.6326 10.7224C30.734 10.8246 30.8144 10.9459 30.8693 11.0795C30.9241 11.213 30.9524 11.3561 30.9524 11.5007V49.166C30.9524 49.3105 30.9241 49.4537 30.8693 49.5872C30.8144 49.7207 30.734 49.8421 30.6326 49.9443C30.5312 50.0465 30.4108 50.1276 30.2783 50.1829C30.1458 50.2382 30.0038 50.2667 29.8604 50.2667H2.81151C2.52191 50.2667 2.24417 50.1507 2.0394 49.9443C1.83462 49.7379 1.71958 49.4579 1.71958 49.166V11.4833Z" fill="#2093CA"/>
<path d="M7.80934 30.6711C7.85988 30.7858 7.93301 30.889 8.02429 30.9744C8.07006 31.0081 8.11902 31.0371 8.17045 31.0611C9.21211 32.1964 10.4754 33.1023 11.8811 33.7218C13.2867 34.3414 14.8043 34.6612 16.3384 34.6612C17.8726 34.6612 19.3902 34.3414 20.7958 33.7218C22.2014 33.1023 23.4648 32.1964 24.5064 31.0611C24.5582 31.0344 24.6072 31.0024 24.6526 30.9657C24.7439 30.8803 24.817 30.7771 24.8675 30.6624C26.5719 28.629 27.507 26.053 27.507 23.3911C27.507 20.7291 26.5719 18.1531 24.8675 16.1197C24.817 16.005 24.7439 15.9018 24.6526 15.8164C24.609 15.7795 24.5596 15.7502 24.5064 15.7297C23.4655 14.5933 22.2024 13.6863 20.7966 13.066C19.3909 12.4457 17.873 12.1255 16.3384 12.1255C14.8039 12.1255 13.286 12.4457 11.8803 13.066C10.4745 13.6863 9.21142 14.5933 8.17045 15.7297C8.11902 15.7537 8.07006 15.7827 8.02429 15.8164C7.93301 15.9018 7.85988 16.005 7.80934 16.1197C6.10498 18.1531 5.16992 20.7291 5.16992 23.3911C5.16992 26.053 6.10498 28.629 7.80934 30.6624V30.6711ZM8.71212 17.7924C9.32623 18.3625 10.001 18.8624 10.724 19.2831C10.5014 20.3534 10.3662 21.4404 10.3199 22.5331H6.88077C7.04923 20.8137 7.6827 19.1739 8.71212 17.7924ZM25.7961 22.5331H22.357C22.3192 21.4411 22.1926 20.3542 21.9787 19.2831C22.7049 18.8633 23.3826 18.3633 23.9992 17.7924C25.0121 19.1799 25.6331 20.8182 25.7961 22.5331ZM24.0078 29.0071C23.3936 28.437 22.7189 27.9371 21.9959 27.5164C22.2041 26.4448 22.3248 25.3579 22.357 24.2664H25.7961C25.6277 25.9858 24.9942 27.6256 23.9648 29.0071H24.0078ZM12.3318 20.0457C14.9099 21.0507 17.767 21.0507 20.3451 20.0457C20.4995 20.867 20.5971 21.6981 20.6374 22.5331H12.0395C12.0798 21.6981 12.1774 20.867 12.3318 20.0457ZM20.6374 24.2664C20.6057 25.1007 20.5166 25.9318 20.3708 26.7537C17.7881 25.7748 14.9404 25.7748 12.3576 26.7537C12.1946 25.9331 12.0883 25.1019 12.0395 24.2664H20.6374ZM12.4694 32.0664C11.5051 31.6407 10.6187 31.0548 9.84704 30.3331C10.2598 29.9421 10.7057 29.5883 11.1797 29.2757C11.488 30.2583 11.9215 31.1964 12.4694 32.0664ZM12.7359 28.4264C15.0478 27.4902 17.6291 27.4902 19.941 28.4264C19.1156 31.1997 17.6797 32.9331 16.3384 32.9331C14.9972 32.9331 13.5613 31.1997 12.7359 28.4524V28.4264ZM21.4886 29.2931C21.9664 29.5975 22.4154 29.9456 22.8298 30.3331C22.0751 31.0693 21.2032 31.6728 20.2505 32.1184C20.7875 31.2298 21.2066 30.2741 21.4972 29.2757L21.4886 29.2931ZM21.4886 17.5411C21.1844 16.5529 20.7537 15.609 20.2075 14.7331C21.1602 15.1787 22.0321 15.7822 22.7869 16.5184C22.3857 16.8894 21.9543 17.2257 21.4972 17.5237L21.4886 17.5411ZM19.941 18.4077C17.6291 19.3439 15.0478 19.3439 12.7359 18.4077C13.5613 15.5997 14.9972 13.8664 16.3384 13.8664C17.6797 13.8664 19.1156 15.5997 19.941 18.3471V18.4077ZM11.1797 17.5237C10.7042 17.2134 10.2581 16.8594 9.84704 16.4664C10.6187 15.7447 11.5051 15.1587 12.4694 14.7331C11.9215 15.6031 11.488 16.5412 11.1797 17.5237ZM10.3199 24.2664C10.3577 25.3583 10.4842 26.4453 10.6982 27.5164C9.97326 27.9341 9.29821 28.4343 8.68633 29.0071C7.68146 27.6181 7.07201 25.9789 6.92376 24.2664H10.3199Z" fill="#2093CA"/>
<path d="M4.30315 38.1332H28.3772C28.6053 38.1332 28.8239 38.0419 28.9852 37.8794C29.1464 37.7169 29.237 37.4964 29.237 37.2666C29.237 37.0367 29.1464 36.8163 28.9852 36.6537C28.8239 36.4912 28.6053 36.3999 28.3772 36.3999H4.30315C4.07512 36.3999 3.85643 36.4912 3.69519 36.6537C3.53394 36.8163 3.44336 37.0367 3.44336 37.2666C3.44336 37.4964 3.53394 37.7169 3.69519 37.8794C3.85643 38.0419 4.07512 38.1332 4.30315 38.1332Z" fill="#2093CA"/>
<path d="M23.2199 39.8667H9.4633C9.23527 39.8667 9.01658 39.958 8.85534 40.1205C8.6941 40.2831 8.60352 40.5035 8.60352 40.7334V47.6667C8.60352 47.8966 8.6941 48.117 8.85534 48.2795C9.01658 48.4421 9.23527 48.5334 9.4633 48.5334H23.2199C23.4479 48.5334 23.6666 48.4421 23.8279 48.2795C23.9891 48.117 24.0797 47.8966 24.0797 47.6667V40.7334C24.0797 40.5035 23.9891 40.2831 23.8279 40.1205C23.6666 39.958 23.4479 39.8667 23.2199 39.8667ZM16.3416 41.6H22.3601V43.3334H18.7662C18.5855 42.8314 18.2558 42.3978 17.822 42.0913C17.3882 41.7848 16.8713 41.6204 16.3416 41.6204C15.8119 41.6204 15.295 41.7848 14.8612 42.0913C14.4274 42.3978 14.0977 42.8314 13.917 43.3334H10.3231V41.6H16.3416ZM17.2014 44.2C17.2014 44.3714 17.151 44.539 17.0565 44.6815C16.962 44.824 16.8277 44.9351 16.6706 45.0007C16.5135 45.0663 16.3407 45.0835 16.1739 45.05C16.0071 45.0166 15.8539 44.9341 15.7336 44.8129C15.6134 44.6917 15.5315 44.5372 15.4983 44.3691C15.4652 44.201 15.4822 44.0267 15.5473 43.8684C15.6123 43.71 15.7225 43.5747 15.8639 43.4794C16.0053 43.3842 16.1716 43.3334 16.3416 43.3334C16.5696 43.3334 16.7883 43.4247 16.9496 43.5872C17.1108 43.7497 17.2014 43.9702 17.2014 44.2ZM16.3416 46.8H10.3231V45.0667H13.917C14.0977 45.5686 14.4274 46.0023 14.8612 46.3088C15.295 46.6152 15.8119 46.7796 16.3416 46.7796C16.8713 46.7796 17.3882 46.6152 17.822 46.3088C18.2558 46.0023 18.5855 45.5686 18.7662 45.0667H22.3601V46.8H16.3416Z" fill="#2093CA"/>
</svg>
