<svg width="35" height="32" viewBox="0 0 35 32" fill="none" xmlns="http://www.w3.org/2000/svg">
<path d="M20.4657 5.66257H14.5343V4.96477C14.5343 4.56156 15.0033 4.22116 15.5592 4.22116H19.4411C19.9964 4.22116 20.4657 4.56156 20.4657 4.96477V5.66257ZM13.5039 1.64752H21.4958C23.1341 1.64752 24.4668 2.72632 24.4668 4.05183V5.66257H22.0911V4.96477C22.0911 3.6462 20.9022 2.57329 19.4411 2.57329H15.5592C14.0975 2.57329 12.909 3.6462 12.909 4.96477V5.66257H10.5332V4.05183C10.5332 2.72632 11.8659 1.64752 13.5039 1.64752ZM33.3747 27.9957C33.3747 29.2969 32.3323 30.3518 31.051 30.3518H3.94902C2.66771 30.3518 1.62534 29.2969 1.62534 27.9957V9.66512C1.62534 8.36668 2.66771 7.31008 3.94902 7.31008H31.051C32.3323 7.31008 33.3747 8.36668 33.3747 9.66512V27.9957ZM26.0921 5.66257V4.05183C26.0921 1.81789 24.0306 -1.20091e-06 21.4958 -1.20091e-06H13.5039C10.9694 -1.20091e-06 8.90789 1.81789 8.90789 4.05183V5.66257H3.94902C1.77151 5.66257 0 7.45825 0 9.66512V27.9957C0 30.2025 1.77151 32 3.94902 32H31.051C33.2285 32 35 30.2025 35 27.9957V9.66512C35 7.45825 33.2285 5.66257 31.051 5.66257H26.0921Z" fill="#2093CA"/>
<path d="M23.4867 20.435H19.8957C19.6263 20.435 19.4079 20.6568 19.4079 20.9295V24.5712H16.2435V20.9295C16.2435 20.6568 16.0251 20.435 15.756 20.435H12.1651V17.2278H15.756C16.0251 17.2278 16.2435 17.0061 16.2435 16.7333V13.0934H19.4079V16.7333C19.4079 17.0061 19.6263 17.2278 19.8957 17.2278H23.4867V20.435ZM23.9745 16.2389H20.3835V12.5989C20.3835 12.3262 20.1648 12.1045 19.8957 12.1045H15.756C15.4866 12.1045 15.2682 12.3262 15.2682 12.5989V16.2389H11.6773C11.4079 16.2389 11.1895 16.4602 11.1895 16.7333V20.9295C11.1895 21.2026 11.4079 21.424 11.6773 21.424H15.2682V25.0639C15.2682 25.338 15.4866 25.5566 15.756 25.5566H19.8957C20.1648 25.5566 20.3835 25.338 20.3835 25.0639V21.424H23.9745C24.2436 21.424 24.4619 21.2026 24.4619 20.9295V16.7333C24.4619 16.4602 24.2436 16.2389 23.9745 16.2389Z" fill="#2093CA"/>
</svg>
