<svg width="32" height="21" viewBox="0 0 32 21" fill="none" xmlns="http://www.w3.org/2000/svg">
<path d="M15.6368 5.65442C22.9086 5.65442 29.1573 7.77353 30.8241 8.39122L27.9754 19.4628C26.001 18.8069 19.3245 16.6754 15.9282 16.6754C12.5638 16.6754 5.78334 18.8066 3.77701 19.4622L1.16981 8.40507C2.90981 7.79755 9.483 5.65442 15.6368 5.65442ZM25.484 2.81021L24.773 5.57273C22.1665 5.02627 19.0099 4.58074 15.6368 4.58074C12.6441 4.58074 9.6023 5.05624 7.02721 5.62785L6.36598 2.8235C7.69947 2.36694 11.8195 1.07388 15.6888 1.07388C20.2526 1.07388 24.2033 2.34856 25.484 2.81021ZM2.86653 20.2798C2.90133 20.4268 2.99651 20.5526 3.12901 20.6258C3.26131 20.6993 3.41813 20.7134 3.56134 20.6648C3.64748 20.636 12.213 17.7494 15.9282 17.7494C19.6774 17.7494 28.0921 20.6348 28.1767 20.664C28.2338 20.6837 28.2928 20.6934 28.3519 20.6934C28.4396 20.6934 28.5272 20.6722 28.6061 20.6295C28.7381 20.5582 28.8345 20.4355 28.8715 20.2899L31.9829 8.19559C32.0499 7.93608 31.915 7.66751 31.6677 7.56546C31.6273 7.54878 29.3431 6.62068 25.8226 5.80397L26.6439 2.61204C26.7106 2.35252 26.5757 2.08396 26.3284 1.98162C26.1322 1.90077 21.455 -8.96454e-05 15.6888 -8.96454e-05C10.8193 -8.96454e-05 5.7562 1.8954 5.54305 1.97625C5.2906 2.07152 5.1484 2.33895 5.21031 2.60129L5.98151 5.87068C2.78669 6.64556 0.519034 7.4945 0.347098 7.5598C0.0949884 7.65507 -0.0474623 7.92251 0.0143919 8.18513L2.86653 20.2798Z" fill="#2093CA"/>
</svg>
