<svg width="32" height="32" viewBox="0 0 32 32" fill="none" xmlns="http://www.w3.org/2000/svg">
<path d="M8.73252 12.0873C8.59793 12.2222 8.3625 12.2222 8.22791 12.0873C8.08812 11.9479 8.08812 11.7217 8.22791 11.5823C8.29502 11.5148 8.38473 11.4777 8.48039 11.4777C8.57568 11.4777 8.66541 11.5148 8.73252 11.5823C8.87156 11.7217 8.87156 11.9479 8.73252 12.0873ZM7.97838 11.3335C7.70252 11.6097 7.70252 12.0599 7.97838 12.3364C8.1126 12.4703 8.29055 12.5441 8.48039 12.5441C8.66985 12.5441 8.84782 12.4703 8.98167 12.3364C9.2579 12.0599 9.2579 11.6097 8.98167 11.3335C8.71398 11.0658 8.24645 11.0658 7.97838 11.3335Z" fill="#2093CA"/>
<path d="M10.3543 10.466C10.2152 10.6055 9.98833 10.6058 9.84892 10.466C9.70913 10.327 9.70913 10.1004 9.84892 9.96141C9.91862 9.89207 10.0102 9.85687 10.1014 9.85687C10.1926 9.85687 10.2838 9.89207 10.3543 9.96141C10.4933 10.1004 10.4933 10.327 10.3543 10.466ZM9.59975 9.71226C9.32352 9.98885 9.32352 10.4386 9.59975 10.7152C9.73805 10.8535 9.91936 10.9225 10.1014 10.9225C10.2831 10.9225 10.4644 10.8535 10.6027 10.7152C10.8789 10.4386 10.8789 9.98885 10.6027 9.71226C10.3261 9.43566 9.87597 9.43603 9.59975 9.71226Z" fill="#2093CA"/>
<path d="M11.3566 8.4536C11.4234 8.38612 11.5135 8.34906 11.6087 8.34906C11.7044 8.34906 11.7938 8.38612 11.8616 8.4536C12.0007 8.59301 12.0007 8.81919 11.8616 8.9586C11.7267 9.09356 11.4912 9.09356 11.3566 8.9586C11.2176 8.81919 11.2176 8.59301 11.3566 8.4536ZM11.6087 9.41504C11.7986 9.41504 11.9769 9.3416 12.1104 9.20738C12.3863 8.93116 12.3863 8.48104 12.1104 8.20481C11.8423 7.93674 11.3752 7.93674 11.1078 8.20481C10.8312 8.48104 10.8312 8.93116 11.1078 9.20738C11.2413 9.3416 11.4193 9.41504 11.6087 9.41504Z" fill="#2093CA"/>
<path d="M6.5699 9.92382C6.63923 9.85411 6.73043 9.81965 6.82164 9.81965C6.91359 9.81965 7.0048 9.85411 7.07488 9.92382C7.21392 10.0629 7.21392 10.2894 7.07488 10.4288C6.93547 10.5679 6.70894 10.5679 6.5699 10.4288C6.43086 10.2894 6.43086 10.0629 6.5699 9.92382ZM6.82164 10.8856C7.00369 10.8856 7.185 10.8159 7.32366 10.6776C7.59989 10.4014 7.59989 9.95126 7.32366 9.67503C7.04744 9.39843 6.59733 9.39806 6.32073 9.67503C6.04413 9.95126 6.04413 10.4014 6.32073 10.6776C6.45866 10.8159 6.64033 10.8856 6.82164 10.8856Z" fill="#2093CA"/>
<path d="M8.69364 8.80763C8.55423 8.94704 8.3277 8.94704 8.18866 8.80763C8.04962 8.66859 8.04962 8.44204 8.18866 8.30263C8.25799 8.23293 8.34919 8.19843 8.44114 8.19843C8.53235 8.19843 8.62356 8.23293 8.69364 8.30263C8.83268 8.44204 8.83268 8.66859 8.69364 8.80763ZM7.93987 8.05385C7.66327 8.33044 7.66327 8.78018 7.93987 9.05678C8.07743 9.19508 8.25946 9.26404 8.44114 9.26404C8.62282 9.26404 8.80376 9.19508 8.94242 9.05678C9.21902 8.78018 9.21902 8.33044 8.94242 8.05385C8.6662 7.77762 8.21647 7.77725 7.93987 8.05385Z" fill="#2093CA"/>
<path d="M9.69814 6.79506C9.76785 6.72536 9.85907 6.69125 9.95102 6.69125C10.0422 6.69125 10.1334 6.72536 10.2031 6.79506C10.3426 6.9341 10.3426 7.16065 10.2031 7.30006C10.0637 7.43947 9.83718 7.4391 9.69814 7.30006C9.5591 7.16065 9.5591 6.9341 9.69814 6.79506ZM9.95102 7.7561C10.1323 7.7561 10.314 7.68715 10.4519 7.54885C10.7285 7.27262 10.7285 6.8225 10.4519 6.54627C10.1757 6.26968 9.72595 6.26968 9.44936 6.54627C9.17313 6.8225 9.17313 7.27262 9.44936 7.54885C9.58729 7.68715 9.76897 7.7561 9.95102 7.7561Z" fill="#2093CA"/>
<path d="M5.47136 8.82652C5.33232 8.96593 5.1054 8.96593 4.96636 8.82652C4.82695 8.68748 4.82695 8.46092 4.96636 8.32188C5.03607 8.25218 5.12729 8.21735 5.2185 8.21735C5.31008 8.21735 5.40166 8.25218 5.47136 8.32188C5.6104 8.46092 5.6104 8.68748 5.47136 8.82652ZM4.71721 8.07273C4.44062 8.34933 4.44062 8.79907 4.71721 9.07567C4.85514 9.2136 5.03718 9.28333 5.21812 9.28333C5.40017 9.28333 5.58185 9.2136 5.72015 9.07567C5.99675 8.79907 5.99675 8.34933 5.72015 8.07273C5.44355 7.79651 4.99381 7.79614 4.71721 8.07273Z" fill="#2093CA"/>
<path d="M6.5872 6.70095C6.6569 6.63124 6.74811 6.59674 6.84006 6.59674C6.93127 6.59674 7.02247 6.63124 7.09218 6.70095C7.23159 6.83999 7.23159 7.06653 7.09218 7.20594C6.95314 7.34572 6.72624 7.34498 6.5872 7.20594C6.44816 7.06653 6.44816 6.83999 6.5872 6.70095ZM6.83968 7.66199C7.02136 7.66199 7.20268 7.59303 7.34134 7.45473C7.61794 7.1785 7.61794 6.72838 7.34134 6.45216C7.06475 6.17593 6.615 6.17556 6.33803 6.45216C6.0618 6.72838 6.0618 7.1785 6.33803 7.45473C6.47633 7.59303 6.65837 7.66199 6.83968 7.66199Z" fill="#2093CA"/>
<path d="M8.09501 5.19301C8.16434 5.12368 8.25556 5.08921 8.34751 5.08921C8.43872 5.08921 8.53029 5.12368 8.59963 5.19301C8.73904 5.33243 8.73904 5.5586 8.59963 5.69801C8.46059 5.83742 8.23405 5.83742 8.09501 5.69801C7.95597 5.5586 7.95597 5.33243 8.09501 5.19301ZM8.34713 6.15442C8.52918 6.15442 8.7105 6.08509 8.8488 5.94716C9.12539 5.67057 9.12539 5.22045 8.8488 4.94423C8.5722 4.66615 8.12207 4.66615 7.84584 4.94423C7.56962 5.22045 7.56962 5.67057 7.84584 5.94716C7.98377 6.08509 8.16582 6.15442 8.34713 6.15442Z" fill="#2093CA"/>
<path d="M23.2067 26.5615C23.0669 26.7013 22.8411 26.7009 22.7013 26.5615C22.6338 26.4944 22.5971 26.4047 22.5971 26.3094C22.5971 26.2137 22.6338 26.124 22.7013 26.0569C22.7706 25.9872 22.8626 25.9527 22.9538 25.9527C23.0454 25.9527 23.1366 25.9872 23.2067 26.0569C23.2734 26.1244 23.3109 26.2137 23.3109 26.3094C23.3109 26.4047 23.2734 26.4944 23.2067 26.5615ZM22.4521 25.8078C22.319 25.942 22.2441 26.1199 22.2441 26.3094C22.2441 26.4988 22.319 26.6768 22.4521 26.8107C22.5904 26.949 22.7721 27.0179 22.9538 27.0179C23.1359 27.0179 23.3168 26.949 23.4551 26.8107C23.5889 26.6768 23.6631 26.4988 23.6631 26.3094C23.6631 26.1199 23.5889 25.942 23.4551 25.8078C23.1792 25.5315 22.7287 25.5315 22.4521 25.8078Z" fill="#2093CA"/>
<path d="M24.8284 24.9412C24.6886 25.0806 24.4628 25.0802 24.3231 24.9412C24.184 24.8018 24.184 24.5752 24.3231 24.4362C24.3931 24.3665 24.4843 24.3316 24.5759 24.3316C24.6671 24.3316 24.7591 24.3665 24.8284 24.4362C24.9675 24.5752 24.9675 24.8018 24.8284 24.9412ZM24.0746 24.187C23.798 24.4636 23.798 24.9134 24.0746 25.19C24.2122 25.3283 24.3939 25.3972 24.5759 25.3972C24.7576 25.3972 24.9393 25.3283 25.0776 25.19C25.3534 24.9134 25.3534 24.4636 25.0776 24.187C24.801 23.9108 24.3512 23.9104 24.0746 24.187Z" fill="#2093CA"/>
<path d="M26.3348 23.4334C26.1958 23.5728 25.9689 23.5728 25.8299 23.4334C25.762 23.3662 25.7249 23.2761 25.7249 23.1808C25.7249 23.0856 25.762 22.9958 25.8299 22.9284C25.8996 22.8587 25.9908 22.8238 26.082 22.8238C26.1732 22.8238 26.2651 22.8587 26.3348 22.9284C26.4019 22.9958 26.439 23.0856 26.439 23.1808C26.439 23.2761 26.4019 23.3662 26.3348 23.4334ZM25.5807 22.6796C25.4468 22.8131 25.373 22.9914 25.373 23.1808C25.373 23.3703 25.4468 23.5483 25.5807 23.6821C25.7182 23.8208 25.9003 23.8894 26.082 23.8894C26.2636 23.8894 26.4446 23.8208 26.5836 23.6821C26.7178 23.5483 26.7909 23.3703 26.7909 23.1808C26.7909 22.9914 26.7178 22.8131 26.5836 22.6796C26.307 22.403 25.8573 22.403 25.5807 22.6796Z" fill="#2093CA"/>
<path d="M21.5474 24.903C21.4083 25.0424 21.1818 25.0424 21.0427 24.903C20.9753 24.8359 20.9386 24.7461 20.9386 24.6508C20.9386 24.5556 20.9753 24.4654 21.0427 24.3983C21.1124 24.3286 21.2037 24.2938 21.2956 24.2938C21.3868 24.2938 21.478 24.3286 21.5474 24.3983C21.6148 24.4658 21.6519 24.5556 21.6519 24.6508C21.6519 24.7461 21.6148 24.8359 21.5474 24.903ZM20.7936 24.1492C20.6597 24.283 20.5859 24.4614 20.5859 24.6508C20.5859 24.8403 20.6597 25.0183 20.7936 25.1521C20.9319 25.29 21.1139 25.3594 21.2956 25.3594C21.4765 25.3594 21.6582 25.29 21.7965 25.1521C21.9307 25.0183 22.0045 24.8403 22.0045 24.6508C22.0045 24.4614 21.9307 24.283 21.7965 24.1492C21.5199 23.8726 21.0702 23.8733 20.7936 24.1492Z" fill="#2093CA"/>
<path d="M22.6631 22.7772C22.7328 22.7075 22.8247 22.6731 22.916 22.6731C23.0072 22.6731 23.0984 22.7075 23.1681 22.7772C23.2359 22.8447 23.273 22.9345 23.273 23.0298C23.273 23.125 23.2359 23.2151 23.1681 23.2822C23.0291 23.4217 22.8029 23.422 22.6631 23.2822C22.596 23.2151 22.5589 23.125 22.5589 23.0298C22.5589 22.9345 22.596 22.8447 22.6631 22.7772ZM22.916 23.7386C23.0969 23.7386 23.2786 23.6693 23.4169 23.5314C23.5511 23.3972 23.6249 23.2192 23.6249 23.0298C23.6249 22.8403 23.5511 22.6623 23.4169 22.5285C23.141 22.2519 22.6905 22.2519 22.4139 22.5285C22.2808 22.6623 22.207 22.8403 22.207 23.0298C22.207 23.2192 22.2808 23.3972 22.4139 23.5314C22.5522 23.6693 22.7343 23.7386 22.916 23.7386Z" fill="#2093CA"/>
<path d="M24.1713 21.2698C24.2406 21.2001 24.3326 21.1653 24.4238 21.1653C24.515 21.1653 24.6062 21.2001 24.6766 21.2698C24.7441 21.3373 24.7808 21.4267 24.7808 21.5223C24.7808 21.6176 24.7441 21.7077 24.6766 21.7748C24.5376 21.9138 24.311 21.9138 24.1713 21.7748C24.1038 21.7077 24.0667 21.6176 24.0667 21.5223C24.0667 21.4267 24.1038 21.3373 24.1713 21.2698ZM24.4238 22.2308C24.6051 22.2308 24.7868 22.1619 24.9251 22.0236C25.0589 21.8897 25.1327 21.7114 25.1327 21.5223C25.1327 21.3325 25.0589 21.1545 24.9251 21.021C24.6485 20.7444 24.1987 20.7444 23.9221 21.021C23.7886 21.1545 23.7148 21.3325 23.7148 21.5223C23.7148 21.7114 23.7886 21.8897 23.9221 22.0236C24.0604 22.1619 24.2421 22.2308 24.4238 22.2308Z" fill="#2093CA"/>
<path d="M19.9456 23.3012C19.8066 23.4406 19.58 23.4406 19.441 23.3012C19.3012 23.1617 19.3012 22.9356 19.441 22.7962C19.5103 22.7265 19.6015 22.6916 19.6927 22.6916C19.7851 22.6916 19.8763 22.7265 19.9456 22.7962C20.0846 22.9356 20.0846 23.1617 19.9456 23.3012ZM19.1918 22.5474C18.9152 22.8236 18.9152 23.2737 19.1918 23.5499C19.3301 23.6882 19.5118 23.7572 19.6935 23.7572C19.8748 23.7572 20.0565 23.6882 20.194 23.5499C20.4706 23.2737 20.4706 22.8236 20.194 22.5474C19.9182 22.2704 19.4684 22.2711 19.1918 22.5474Z" fill="#2093CA"/>
<path d="M21.5665 21.6802C21.4319 21.8151 21.1965 21.8151 21.0619 21.6802C20.9944 21.613 20.9577 21.5233 20.9577 21.4276C20.9577 21.3324 20.9944 21.2426 21.0619 21.1752C21.1312 21.1058 21.2224 21.071 21.3148 21.071C21.406 21.071 21.4972 21.1058 21.5665 21.1752C21.634 21.243 21.6714 21.3324 21.6714 21.4276C21.6714 21.5233 21.634 21.613 21.5665 21.6802ZM20.8127 20.9264C20.6789 21.0602 20.6055 21.2385 20.6055 21.4276C20.6055 21.6175 20.6789 21.7955 20.8127 21.9289C20.9466 22.0632 21.1249 22.137 21.3148 22.137C21.5035 22.137 21.6818 22.0632 21.8157 21.9289C21.9495 21.7955 22.0237 21.6175 22.0237 21.4276C22.0237 21.2385 21.9495 21.0602 21.8157 20.9264C21.5391 20.6498 21.0893 20.6498 20.8127 20.9264Z" fill="#2093CA"/>
<path d="M22.5693 19.6677C22.639 19.598 22.731 19.5632 22.8222 19.5632C22.9134 19.5632 23.0046 19.598 23.0743 19.6677C23.1414 19.7348 23.1793 19.8249 23.1793 19.9202C23.1793 20.0155 23.1414 20.1056 23.0743 20.1727C22.9353 20.3121 22.7084 20.3117 22.5693 20.1727C22.5022 20.1056 22.4651 20.0155 22.4651 19.9202C22.4651 19.8249 22.5022 19.7348 22.5693 19.6677ZM22.8222 20.6292C23.0031 20.6292 23.1848 20.5598 23.3235 20.4215C23.4573 20.2876 23.5311 20.1097 23.5311 19.9202C23.5311 19.7308 23.4573 19.5528 23.3235 19.4186C23.0465 19.142 22.5971 19.1423 22.3202 19.4186C22.1863 19.5528 22.1133 19.7308 22.1133 19.9202C22.1133 20.1097 22.1863 20.2876 22.3202 20.4215C22.4585 20.5598 22.6405 20.6292 22.8222 20.6292Z" fill="#2093CA"/>
<path d="M24.814 30.2395C24.2542 30.2395 23.7269 30.0212 23.3302 29.6252L17.2443 23.5389L23.5382 17.2447L29.6248 23.3309C30.0208 23.7273 30.2396 24.2542 30.2396 24.8148C30.2396 25.375 30.0208 25.9019 29.6248 26.2982L26.2979 29.6252C25.9019 30.0212 25.3746 30.2395 24.814 30.2395ZM23.3302 2.37483C23.7395 1.96698 24.2768 1.76305 24.814 1.76305C25.3513 1.76305 25.8893 1.96698 26.2979 2.37483L29.6248 5.7014C30.0208 6.09775 30.2396 6.62461 30.2396 7.18522C30.2396 7.74546 30.0208 8.27271 29.6248 8.66907L8.6687 29.6252C8.27234 30.0212 7.74546 30.2395 7.18522 30.2395C6.62461 30.2395 6.09775 30.0212 5.70177 29.6252H5.70102L2.37444 26.2982C1.97845 25.9019 1.76007 25.375 1.76007 24.8148C1.76007 24.2542 1.97845 23.7273 2.37444 23.3309L23.3302 2.37483ZM8.6687 2.37483L14.7549 8.46105L8.46106 14.7549L2.37444 8.66871C1.97845 8.27272 1.76007 7.74546 1.76007 7.18522C1.76007 6.62461 1.97845 6.09775 2.37444 5.7014L5.70102 2.37483C6.09775 1.9781 6.62461 1.75932 7.18522 1.75932C7.74546 1.75932 8.27234 1.9781 8.6687 2.37483ZM0 24.8148C0 25.8452 0.401185 26.8144 1.12976 27.5429L4.45633 30.8699C5.1849 31.5984 6.15447 32 7.18522 32C8.21523 32 9.18444 31.5984 9.91338 30.8699L15.9993 24.7836L22.0862 30.8699C22.8144 31.5984 23.7836 32 24.814 32C25.8444 32 26.8144 31.5984 27.5426 30.8699L30.8695 27.5429C32.3737 26.0387 32.3737 23.5909 30.8695 22.0863L24.7829 16L30.8695 9.91377C32.3737 8.40917 32.3737 5.96129 30.8695 4.45855L27.5426 1.12901C26.0387 -0.372627 23.5901 -0.372627 22.0862 1.12901L15.9993 7.21639L9.91338 1.12901C8.40915 -0.376334 5.96056 -0.376334 4.45671 1.12901L1.12976 4.45855C0.401185 5.18563 0 6.15484 0 7.18522C0 8.21597 0.401185 9.1852 1.12976 9.91377L7.21638 16L1.12976 22.0863C0.401185 22.8148 0 23.784 0 24.8148Z" fill="#2093CA"/>
<path d="M17.124 12.2529C17.3891 11.9878 17.8511 11.9878 18.1169 12.2529L19.7635 13.8995C19.8959 14.0323 19.9693 14.2087 19.9693 14.396C19.9693 14.5836 19.8959 14.7597 19.7635 14.8924L15.3443 19.3113C15.071 19.585 14.625 19.5853 14.3514 19.3113L12.7047 17.6651C12.4304 17.3911 12.4304 16.9458 12.7044 16.6718L17.124 12.2529ZM13.3555 20.3076V20.308C13.7666 20.7188 14.3072 20.9246 14.8482 20.9246C15.3884 20.9246 15.929 20.7188 16.3402 20.3076L20.7591 15.8883C21.1584 15.4898 21.3775 14.9599 21.3775 14.396C21.3775 13.832 21.1584 13.3022 20.7591 12.9036L19.1125 11.257C18.7142 10.858 18.184 10.6389 17.6201 10.6389C17.0565 10.6389 16.5267 10.858 16.1281 11.257L11.7089 15.6763C10.8861 16.4994 10.8861 17.8379 11.7089 18.661L13.3555 20.3076Z" fill="#2093CA"/>
<path d="M19.9129 8.22744C19.9826 8.1581 20.0746 8.12327 20.1658 8.12327C20.257 8.12327 20.3482 8.1581 20.4186 8.22744C20.5577 8.36722 20.5577 8.5934 20.4186 8.73244C20.2796 8.87185 20.0527 8.87222 19.9129 8.73244C19.7738 8.5934 19.7738 8.36722 19.9129 8.22744ZM20.1658 9.18884C20.3474 9.18884 20.5284 9.11952 20.6671 8.98122C20.9436 8.705 20.9436 8.25488 20.6671 7.97865C20.3901 7.70205 19.9407 7.70205 19.6645 7.97865C19.3879 8.25488 19.3879 8.705 19.6645 8.98122C19.8024 9.11952 19.9841 9.18884 20.1658 9.18884Z" fill="#2093CA"/>
<path d="M21.5322 9.84817C21.6027 9.77883 21.6939 9.74399 21.7851 9.74399C21.8763 9.74399 21.9683 9.77883 22.038 9.84817C22.1051 9.91565 22.1421 10.0054 22.1421 10.1006C22.1421 10.1963 22.1051 10.2857 22.038 10.3532C21.8989 10.4929 21.672 10.4926 21.5322 10.3532C21.4658 10.2857 21.428 10.1963 21.428 10.1006C21.428 10.0054 21.4658 9.91565 21.5322 9.84817ZM21.7851 10.8096C21.9668 10.8096 22.1488 10.7406 22.2864 10.6023C22.421 10.4685 22.494 10.2909 22.494 10.1006C22.494 9.91155 22.421 9.73323 22.2864 9.59938C22.0102 9.32278 21.56 9.32315 21.2842 9.59938C21.15 9.73323 21.0762 9.91155 21.0762 10.1006C21.0762 10.2909 21.15 10.4685 21.2842 10.6023C21.4225 10.7406 21.6034 10.8096 21.7851 10.8096Z" fill="#2093CA"/>
<path d="M23.0404 11.356C23.1097 11.2866 23.2017 11.2514 23.2929 11.2514C23.3845 11.2514 23.4764 11.2866 23.5458 11.356C23.6132 11.4235 23.65 11.5132 23.65 11.6085C23.65 11.7042 23.6132 11.7935 23.5458 11.861C23.4067 12.0008 23.1802 12 23.0404 11.861C22.9737 11.7935 22.9362 11.7042 22.9362 11.6085C22.9362 11.5132 22.9737 11.4235 23.0404 11.356ZM23.2929 12.3174C23.4749 12.3174 23.6566 12.2481 23.7942 12.1098C23.9288 11.9759 24.0022 11.798 24.0022 11.6085C24.0022 11.419 23.9288 11.241 23.7942 11.1072C23.5183 10.8306 23.0678 10.8306 22.792 11.1072C22.6581 11.241 22.584 11.419 22.584 11.6085C22.584 11.798 22.6581 11.9763 22.792 12.1098C22.9303 12.2481 23.1112 12.3174 23.2929 12.3174Z" fill="#2093CA"/>
<path d="M21.572 6.56895C21.6414 6.49962 21.7329 6.46478 21.8242 6.46478C21.9154 6.46478 22.0073 6.49962 22.0767 6.56895C22.1441 6.63643 22.1812 6.72581 22.1812 6.82147C22.1812 6.91676 22.1441 7.00647 22.0767 7.07395C21.9376 7.21299 21.7111 7.21299 21.572 7.07395C21.5038 7.00647 21.4671 6.91676 21.4671 6.82147C21.4671 6.72581 21.5038 6.63643 21.572 6.56895ZM21.8242 7.53003C22.0058 7.53003 22.1868 7.46141 22.3258 7.32274C22.4597 7.18889 22.5331 7.01093 22.5331 6.82147C22.5331 6.63237 22.4597 6.45404 22.3258 6.32056C22.0492 6.04396 21.5995 6.04359 21.3229 6.32056C21.189 6.45404 21.1152 6.63237 21.1152 6.82147C21.1152 7.01093 21.189 7.18889 21.3229 7.32274C21.4612 7.46141 21.6421 7.53003 21.8242 7.53003Z" fill="#2093CA"/>
<path d="M23.6956 8.69468C23.5566 8.83409 23.33 8.83372 23.191 8.69468C23.0519 8.55564 23.0519 8.32913 23.191 8.18972C23.2607 8.12038 23.3519 8.08551 23.4431 8.08551C23.5351 8.08551 23.6263 8.12038 23.6956 8.18972C23.8346 8.32913 23.8346 8.55564 23.6956 8.69468ZM22.9418 7.94089C22.6652 8.21712 22.6652 8.66724 22.9418 8.94347C23.0801 9.08177 23.2618 9.15112 23.4431 9.15112C23.6248 9.15112 23.8065 9.08177 23.9448 8.94347C24.2214 8.66724 24.2214 8.21712 23.9448 7.94089C23.6682 7.6643 23.2184 7.6643 22.9418 7.94089Z" fill="#2093CA"/>
<path d="M24.699 9.69753C24.7687 9.6282 24.8599 9.59296 24.9511 9.59296C25.0423 9.59296 25.1343 9.6282 25.204 9.69753C25.2711 9.76501 25.3089 9.85435 25.3089 9.95001C25.3089 10.0453 25.2711 10.135 25.204 10.2025C25.0649 10.3419 24.838 10.3415 24.699 10.2025C24.6319 10.135 24.594 10.0453 24.594 9.95001C24.594 9.85435 24.6319 9.76501 24.699 9.69753ZM24.9511 10.6589C25.1328 10.6589 25.3148 10.5896 25.4531 10.4513C25.587 10.3175 25.66 10.1395 25.66 9.95001C25.66 9.76055 25.587 9.58259 25.4531 9.44874C25.1765 9.17215 24.7268 9.17215 24.4502 9.44874C24.316 9.58259 24.2422 9.76055 24.2422 9.95001C24.2422 10.1395 24.316 10.3175 24.4502 10.4513C24.5885 10.5896 24.7702 10.6589 24.9511 10.6589Z" fill="#2093CA"/>
<path d="M23.1736 4.96678C23.2433 4.89708 23.3345 4.86261 23.4264 4.86261C23.5169 4.86261 23.6089 4.89708 23.6786 4.96678C23.7457 5.03426 23.7828 5.12401 23.7828 5.2193C23.7828 5.31496 23.7457 5.4043 23.6786 5.47178C23.5388 5.61156 23.3126 5.61119 23.1736 5.47178C23.1065 5.4043 23.0687 5.31496 23.0687 5.2193C23.0687 5.12401 23.1065 5.03426 23.1736 4.96678ZM23.4257 5.92822C23.6074 5.92822 23.7891 5.85887 23.9274 5.72057C24.0608 5.58672 24.1346 5.40876 24.1346 5.2193C24.1346 5.0302 24.0608 4.85147 23.9274 4.71799C23.6508 4.43991 23.201 4.43991 22.9244 4.71799C22.7906 4.85147 22.7168 5.0302 22.7168 5.2193C22.7168 5.40876 22.7906 5.58709 22.9244 5.72057C23.0627 5.85887 23.2448 5.92822 23.4257 5.92822Z" fill="#2093CA"/>
<path d="M24.7926 6.58791C24.8623 6.5182 24.9535 6.48334 25.0447 6.48334C25.1359 6.48334 25.2278 6.5182 25.2976 6.58791C25.4366 6.72732 25.4366 6.95387 25.2976 7.09291C25.1585 7.23232 24.9316 7.23195 24.7926 7.09291C24.6535 6.95387 24.6535 6.72732 24.7926 6.58791ZM25.0447 7.54895C25.2264 7.54895 25.4084 7.47999 25.5467 7.34169C25.8233 7.0651 25.8233 6.61532 25.5467 6.33872C25.2697 6.06287 24.8204 6.06213 24.5434 6.33872C24.2668 6.61532 24.2668 7.0651 24.5434 7.34169C24.6821 7.47999 24.8637 7.54895 25.0447 7.54895Z" fill="#2093CA"/>
<path d="M26.3017 8.09548C26.3711 8.02577 26.4623 7.99127 26.5535 7.99127C26.6455 7.99127 26.737 8.02577 26.8064 8.09548C26.9461 8.23489 26.9461 8.4614 26.8064 8.60044C26.6673 8.73985 26.4408 8.73985 26.3017 8.60044C26.1627 8.4614 26.1627 8.23489 26.3017 8.09548ZM26.5535 9.05688C26.7356 9.05688 26.9172 8.98753 27.0555 8.84923C27.3321 8.573 27.3321 8.12292 27.0555 7.84669C26.7789 7.57047 26.3292 7.5701 26.0526 7.84669C25.7767 8.12292 25.7767 8.573 26.0526 8.84923C26.1909 8.98753 26.3726 9.05688 26.5535 9.05688Z" fill="#2093CA"/>
<path d="M5.94338 23.207C5.80879 23.3416 5.57297 23.3416 5.43838 23.207C5.29934 23.0676 5.29934 22.8411 5.43838 22.702C5.50512 22.6345 5.59558 22.5975 5.6905 22.5975C5.78616 22.5975 5.8759 22.6345 5.94338 22.702C6.08279 22.8411 6.08279 23.0676 5.94338 23.207ZM5.18959 22.4529C4.91337 22.7295 4.91337 23.1792 5.18959 23.4558C5.32307 23.59 5.50177 23.6635 5.6905 23.6635C5.88033 23.6635 6.05832 23.59 6.19216 23.4558C6.46876 23.1792 6.46876 22.7295 6.19216 22.4529C5.92484 22.1852 5.45729 22.1852 5.18959 22.4529Z" fill="#2093CA"/>
<path d="M7.56278 24.828C7.42337 24.9674 7.19684 24.9671 7.0578 24.828C6.91839 24.6886 6.91839 24.462 7.0578 24.3226C7.12713 24.2529 7.21871 24.2184 7.30992 24.2184C7.4015 24.2184 7.49307 24.2529 7.56278 24.3226C7.70182 24.462 7.70182 24.6886 7.56278 24.828ZM6.80901 24.0738C6.53241 24.3504 6.53241 24.8002 6.80901 25.0768C6.94657 25.2151 7.12824 25.2841 7.30992 25.2841C7.49197 25.2841 7.67327 25.2151 7.81157 25.0768C8.08779 24.8002 8.08779 24.3504 7.81157 24.0738C7.53497 23.7976 7.08524 23.7972 6.80901 24.0738Z" fill="#2093CA"/>
<path d="M9.07099 26.3357C8.93158 26.4751 8.70465 26.4751 8.56561 26.3357C8.4262 26.1963 8.4262 25.9697 8.56561 25.8307C8.63532 25.7613 8.72654 25.7265 8.81775 25.7265C8.9097 25.7265 9.00091 25.7613 9.07099 25.8307C9.21003 25.9697 9.21003 26.1963 9.07099 26.3357ZM8.31682 25.5819C8.04023 25.8581 8.04023 26.3079 8.31682 26.5845C8.45475 26.7228 8.63681 26.7917 8.81775 26.7917C8.9998 26.7917 9.18147 26.7228 9.3194 26.5845C9.59599 26.3079 9.59599 25.8581 9.3194 25.5819C9.04317 25.3053 8.59342 25.3049 8.31682 25.5819Z" fill="#2093CA"/>
<path d="M7.60186 21.5482C7.4669 21.6832 7.2322 21.6832 7.09724 21.5482C6.95783 21.4092 6.95783 21.1826 7.09724 21.0436C7.16435 20.9761 7.25407 20.939 7.34936 20.939C7.44502 20.939 7.53475 20.9761 7.60186 21.0436C7.7409 21.1826 7.7409 21.4092 7.60186 21.5482ZM6.84807 20.7945C6.57148 21.071 6.57148 21.5208 6.84807 21.7974C6.98229 21.9316 7.15952 22.005 7.34936 22.005C7.5392 22.005 7.71717 21.9316 7.85139 21.7974C8.12687 21.5208 8.12687 21.071 7.85139 20.7945C7.58295 20.5268 7.11577 20.5268 6.84807 20.7945Z" fill="#2093CA"/>
<path d="M9.2209 23.1692C9.08186 23.3086 8.85569 23.3086 8.71628 23.1692C8.57687 23.0302 8.57687 22.8036 8.71628 22.6642C8.78598 22.5945 8.87719 22.56 8.9684 22.56C9.05998 22.56 9.15119 22.5945 9.2209 22.6642C9.35994 22.8036 9.35994 23.0302 9.2209 23.1692ZM8.46749 22.4154C8.19052 22.6916 8.19052 23.1418 8.46749 23.418C8.60579 23.5563 8.78673 23.6252 8.96878 23.6252C9.15009 23.6252 9.33213 23.5563 9.47043 23.418C9.74665 23.1418 9.74665 22.6916 9.47043 22.4154C9.19383 22.1388 8.74335 22.1392 8.46749 22.4154Z" fill="#2093CA"/>
<path d="M10.7288 24.6767C10.5942 24.8117 10.3591 24.8117 10.2246 24.6767C10.0848 24.5377 10.0848 24.3111 10.2246 24.1721C10.2917 24.1046 10.3814 24.0675 10.4771 24.0675C10.572 24.0675 10.6621 24.1046 10.7288 24.1721C10.8686 24.3111 10.8686 24.5377 10.7288 24.6767ZM9.97503 23.923C9.69843 24.1996 9.69843 24.6493 9.97503 24.9259C10.1092 25.0597 10.2872 25.1339 10.4771 25.1339C10.6661 25.1339 10.8445 25.0597 10.9783 24.9259C11.2542 24.6493 11.2542 24.1996 10.9783 23.923C10.7106 23.6553 10.2435 23.6553 9.97503 23.923Z" fill="#2093CA"/>
<path d="M8.69889 19.4415C8.76822 19.3722 8.85942 19.3373 8.95101 19.3373C9.04259 19.3373 9.13379 19.3722 9.20312 19.4415C9.34291 19.581 9.34291 19.8071 9.20312 19.9465C9.06408 20.086 8.83793 20.086 8.69889 19.9465C8.55911 19.8071 8.55911 19.581 8.69889 19.4415ZM8.95101 20.403C9.13306 20.403 9.31436 20.3336 9.45265 20.1953C9.72851 19.9191 9.72851 19.469 9.45265 19.1924C9.17643 18.9162 8.72595 18.9162 8.44936 19.1924C8.17313 19.469 8.17313 19.9191 8.44936 20.1953C8.58803 20.3336 8.7697 20.403 8.95101 20.403Z" fill="#2093CA"/>
<path d="M10.8247 21.5674C10.6849 21.7064 10.4587 21.7064 10.3197 21.5674C10.1807 21.428 10.1807 21.2014 10.3197 21.062C10.389 20.9927 10.4806 20.9578 10.5722 20.9578C10.6634 20.9578 10.7546 20.9927 10.8247 21.062C10.9637 21.2014 10.9637 21.428 10.8247 21.5674ZM10.0702 20.8132C9.79432 21.0898 9.79432 21.54 10.0702 21.8162C10.2088 21.9545 10.3905 22.0234 10.5722 22.0234C10.7539 22.0234 10.9352 21.9545 11.0735 21.8162C11.3501 21.54 11.3501 21.0898 11.0735 20.8132C10.7973 20.537 10.3468 20.5366 10.0702 20.8132Z" fill="#2093CA"/>
<path d="M12.332 23.0751C12.1971 23.2097 11.9616 23.2097 11.8271 23.0751C11.688 22.9361 11.688 22.7095 11.8271 22.5701C11.8945 22.503 11.9839 22.4655 12.0799 22.4655C12.1752 22.4655 12.2649 22.503 12.332 22.5701C12.4711 22.7095 12.4711 22.9361 12.332 23.0751ZM11.5783 22.3209C11.302 22.5979 11.302 23.0476 11.5783 23.3242C11.7121 23.4581 11.8897 23.5319 12.0799 23.5319C12.2694 23.5319 12.447 23.4581 12.5808 23.3242C12.8574 23.0476 12.8574 22.5979 12.5808 22.3209C12.3131 22.0536 11.846 22.0536 11.5783 22.3209Z" fill="#2093CA"/>
</svg>
