<svg width="33" height="33" viewBox="0 0 33 33" fill="none" xmlns="http://www.w3.org/2000/svg">
<path d="M3.77427 23.6005L26.1432 6.94768C26.3451 6.92314 27.0087 7.24895 27.6794 8.15167C28.3502 9.05439 28.4583 9.78682 28.3898 9.97119L6.02269 26.6236C6.01944 26.6236 6.01657 26.6236 6.01297 26.6236C5.80525 26.6236 5.14533 26.3097 4.48469 25.4185C3.81322 24.5165 3.70755 23.7848 3.77427 23.6005ZM30.2145 18.8606C29.6628 22.6375 27.6722 25.9742 24.6106 28.2508C19.1884 32.2882 11.8214 31.8877 6.86763 27.7024L29.1832 11.0882C30.2434 13.5096 30.6076 16.1817 30.2145 18.8606ZM1.94883 14.7114C2.50238 10.9342 4.49335 7.59892 7.55424 5.31974C10.111 3.41687 13.099 2.49899 16.0644 2.49899C19.3878 2.49899 22.6788 3.65572 25.2957 5.8678L2.98021 22.4834C1.92289 20.0624 1.55576 17.39 1.94883 14.7114ZM16.1019 32.7861C19.422 32.7861 22.7696 31.7578 25.6311 29.6255C29.0606 27.0746 31.2892 23.3389 31.9094 19.1092C32.5297 14.8792 31.4659 10.6607 28.9163 7.2309C23.6503 0.150539 13.6089 -1.3237 6.53188 3.94545C3.10388 6.49775 0.87494 10.2328 0.254683 14.4628C-0.365574 18.6925 0.697501 22.911 3.24849 26.3422C6.38403 30.5563 11.2137 32.7861 16.1019 32.7861Z" fill="#0E374A"/>
</svg>
