<svg width="28" height="32" viewBox="0 0 28 32" fill="none" xmlns="http://www.w3.org/2000/svg">
<path d="M24.0802 17.7465C23.9368 18.4562 23.7995 19.2419 23.6542 20.0735C23.0867 23.3254 22.3798 27.37 20.6701 30.4789C20.6658 30.4851 20.6621 30.4945 20.6581 30.5006C20.5559 30.4727 20.3817 30.4012 20.1158 30.2364C19.9 29.9225 19.7551 28.4986 19.6492 27.4571C19.2728 23.7606 18.704 18.1758 13.9973 17.8572C13.9649 17.855 13.932 17.855 13.8997 17.8572C9.19293 18.1758 8.62417 23.7606 8.24807 27.4571C8.14158 28.4986 7.99692 29.9225 7.78117 30.2364C7.51587 30.4012 7.34106 30.4727 7.23919 30.5006C7.23519 30.4945 7.23118 30.4851 7.22688 30.4789C5.41717 27.1897 4.80686 22.6141 4.40275 19.5873C4.28611 18.7133 4.18547 17.9588 4.07682 17.4042C4.07282 17.3843 4.0682 17.3638 4.06236 17.3439C3.98357 17.0666 3.73242 16.3991 3.29508 15.2429C2.71031 13.6975 1.4943 10.4813 1.46137 9.93446C1.46137 5.2705 5.21773 1.4761 9.83494 1.4761C11.1599 1.4761 12.4587 2.05778 13.6652 2.68639C13.8751 2.79583 14.125 2.79583 14.3349 2.68639C15.5414 2.05778 16.8405 1.4761 18.1651 1.4761C22.7823 1.4761 26.5387 5.2705 26.5387 9.93446C26.5387 10.8177 24.8182 15.7901 24.1144 17.6283C24.1002 17.6666 24.0885 17.7067 24.0802 17.7465ZM18.1651 0C16.661 0 15.2776 0.557737 14 1.20252C12.7222 0.557737 11.339 0 9.83494 0C4.41229 0 0 4.45629 0 9.93446C0 10.5572 0.622502 12.3121 1.9298 15.7695C2.2585 16.6382 2.56935 17.4602 2.64968 17.7241C2.74755 18.2321 2.84358 18.9527 2.95437 19.7844C3.36987 22.8957 3.99557 27.5846 5.90345 31.11C5.9884 31.3867 6.19491 31.7069 6.56332 31.8779C6.73721 31.9588 6.92464 31.9993 7.12623 31.9993C7.54973 31.9993 8.03693 31.8219 8.59893 31.4582C9.35912 30.9701 9.48808 29.7048 9.70168 27.6063C10.131 23.3907 10.7792 19.5863 13.9486 19.3336C17.1175 19.5863 17.7659 23.3907 18.1953 27.6063C18.4089 29.7048 18.5378 30.9701 19.2983 31.4582C20.1278 31.9929 20.7938 32.1298 21.3336 31.8779C21.7024 31.7069 21.9086 31.3867 21.9941 31.11C23.7887 27.7991 24.5117 23.6611 25.0937 20.33C25.2331 19.531 25.3652 18.7755 25.5003 18.0993C25.7533 17.4222 28 11.3453 28 9.93446C28 4.45629 23.5881 0 18.1651 0Z" fill="#2093CA"/>
</svg>
