<svg width="32" height="32" viewBox="0 0 32 32" fill="none" xmlns="http://www.w3.org/2000/svg">
<path d="M8.73252 12.0871C8.59793 12.2221 8.3625 12.2221 8.22791 12.0871C8.08812 11.9477 8.08812 11.7216 8.22791 11.5822C8.29502 11.5147 8.38473 11.4776 8.48039 11.4776C8.57568 11.4776 8.66541 11.5147 8.73252 11.5822C8.87156 11.7216 8.87156 11.9477 8.73252 12.0871ZM7.97838 11.3334C7.70252 11.6096 7.70252 12.0597 7.97838 12.3363C8.1126 12.4702 8.29055 12.5439 8.48039 12.5439C8.66985 12.5439 8.84782 12.4702 8.98167 12.3363C9.2579 12.0597 9.2579 11.6096 8.98167 11.3334C8.71398 11.0657 8.24645 11.0657 7.97838 11.3334Z" fill="#0C3226"/>
<path d="M10.3533 10.4662C10.2143 10.6056 9.98735 10.6059 9.84794 10.4662C9.70816 10.3271 9.70816 10.1006 9.84794 9.96153C9.91764 9.89219 10.0092 9.857 10.1004 9.857C10.1916 9.857 10.2829 9.89219 10.3533 9.96153C10.4923 10.1006 10.4923 10.3271 10.3533 10.4662ZM9.59877 9.71238C9.32254 9.98898 9.32254 10.4387 9.59877 10.7153C9.73707 10.8536 9.91839 10.9226 10.1004 10.9226C10.2821 10.9226 10.4634 10.8536 10.6017 10.7153C10.8779 10.4387 10.8779 9.98898 10.6017 9.71238C10.3251 9.43578 9.875 9.43615 9.59877 9.71238Z" fill="#0C3226"/>
<path d="M11.3556 8.4536C11.4224 8.38612 11.5125 8.34906 11.6078 8.34906C11.7034 8.34906 11.7928 8.38612 11.8606 8.4536C11.9997 8.59301 11.9997 8.81919 11.8606 8.9586C11.7257 9.09356 11.4902 9.09356 11.3556 8.9586C11.2166 8.81919 11.2166 8.59301 11.3556 8.4536ZM11.6078 9.41504C11.7976 9.41504 11.976 9.3416 12.1094 9.20738C12.3853 8.93116 12.3853 8.48104 12.1094 8.20481C11.8414 7.93674 11.3742 7.93674 11.1069 8.20481C10.8303 8.48104 10.8303 8.93116 11.1069 9.20738C11.2403 9.3416 11.4183 9.41504 11.6078 9.41504Z" fill="#0C3226"/>
<path d="M6.56892 9.9237C6.63825 9.85399 6.72945 9.81952 6.82066 9.81952C6.91261 9.81952 7.00382 9.85399 7.0739 9.9237C7.21294 10.0627 7.21294 10.2893 7.0739 10.4287C6.93449 10.5677 6.70796 10.5677 6.56892 10.4287C6.42988 10.2893 6.42988 10.0627 6.56892 9.9237ZM6.82066 10.8855C7.00271 10.8855 7.18402 10.8158 7.32269 10.6775C7.59891 10.4013 7.59891 9.95113 7.32269 9.67491C7.04646 9.39831 6.59635 9.39794 6.31975 9.67491C6.04316 9.95113 6.04316 10.4013 6.31975 10.6775C6.45768 10.8158 6.63935 10.8855 6.82066 10.8855Z" fill="#0C3226"/>
<path d="M8.69461 8.80775C8.5552 8.94716 8.32867 8.94716 8.18963 8.80775C8.05059 8.66871 8.05059 8.44217 8.18963 8.30276C8.25897 8.23305 8.35016 8.19855 8.44211 8.19855C8.53332 8.19855 8.62454 8.23305 8.69461 8.30276C8.83365 8.44217 8.83365 8.66871 8.69461 8.80775ZM7.94085 8.05397C7.66425 8.33057 7.66425 8.78031 7.94085 9.0569C8.0784 9.1952 8.26044 9.26416 8.44211 9.26416C8.62379 9.26416 8.80473 9.1952 8.9434 9.0569C9.22 8.78031 9.22 8.33057 8.9434 8.05397C8.66718 7.77774 8.21744 7.77737 7.94085 8.05397Z" fill="#0C3226"/>
<path d="M9.69717 6.79506C9.76687 6.72536 9.8581 6.69125 9.95005 6.69125C10.0413 6.69125 10.1325 6.72536 10.2022 6.79506C10.3416 6.9341 10.3416 7.16065 10.2022 7.30006C10.0628 7.43947 9.83621 7.4391 9.69717 7.30006C9.55813 7.16065 9.55813 6.9341 9.69717 6.79506ZM9.95005 7.7561C10.1314 7.7561 10.313 7.68715 10.451 7.54885C10.7276 7.27262 10.7276 6.8225 10.451 6.54627C10.1747 6.26968 9.72498 6.26968 9.44838 6.54627C9.17215 6.8225 9.17215 7.27262 9.44838 7.54885C9.58631 7.68715 9.768 7.7561 9.95005 7.7561Z" fill="#0C3226"/>
<path d="M5.47136 8.82664C5.33232 8.96605 5.1054 8.96605 4.96636 8.82664C4.82695 8.6876 4.82695 8.46105 4.96636 8.32201C5.03607 8.2523 5.12729 8.21747 5.2185 8.21747C5.31008 8.21747 5.40166 8.2523 5.47136 8.32201C5.6104 8.46105 5.6104 8.6876 5.47136 8.82664ZM4.71721 8.07286C4.44062 8.34945 4.44062 8.7992 4.71721 9.07579C4.85514 9.21372 5.03718 9.28345 5.21812 9.28345C5.40017 9.28345 5.58185 9.21372 5.72015 9.07579C5.99675 8.7992 5.99675 8.34945 5.72015 8.07286C5.44355 7.79663 4.99381 7.79626 4.71721 8.07286Z" fill="#0C3226"/>
<path d="M6.5872 6.70107C6.6569 6.63136 6.74811 6.59686 6.84006 6.59686C6.93127 6.59686 7.02247 6.63136 7.09218 6.70107C7.23159 6.84011 7.23159 7.06665 7.09218 7.20607C6.95314 7.34585 6.72624 7.34511 6.5872 7.20607C6.44816 7.06665 6.44816 6.84011 6.5872 6.70107ZM6.83968 7.66211C7.02136 7.66211 7.20268 7.59315 7.34134 7.45485C7.61794 7.17863 7.61794 6.72851 7.34134 6.45228C7.06475 6.17605 6.615 6.17568 6.33803 6.45228C6.0618 6.72851 6.0618 7.17863 6.33803 7.45485C6.47633 7.59315 6.65837 7.66211 6.83968 7.66211Z" fill="#0C3226"/>
<path d="M8.09501 5.19314C8.16434 5.1238 8.25556 5.08933 8.34751 5.08933C8.43872 5.08933 8.53029 5.1238 8.59963 5.19314C8.73904 5.33255 8.73904 5.55872 8.59963 5.69813C8.46059 5.83755 8.23405 5.83755 8.09501 5.69813C7.95597 5.55872 7.95597 5.33255 8.09501 5.19314ZM8.34713 6.15454C8.52918 6.15454 8.7105 6.08521 8.8488 5.94728C9.12539 5.67069 9.12539 5.22058 8.8488 4.94435C8.5722 4.66627 8.12207 4.66627 7.84584 4.94435C7.56962 5.22058 7.56962 5.67069 7.84584 5.94728C7.98377 6.08521 8.16582 6.15454 8.34713 6.15454Z" fill="#0C3226"/>
<path d="M23.2067 26.5614C23.0669 26.7012 22.8411 26.7008 22.7013 26.5614C22.6338 26.4943 22.5971 26.4045 22.5971 26.3093C22.5971 26.2136 22.6338 26.1239 22.7013 26.0568C22.7706 25.9871 22.8626 25.9526 22.9538 25.9526C23.0454 25.9526 23.1366 25.9871 23.2067 26.0568C23.2734 26.1243 23.3109 26.2136 23.3109 26.3093C23.3109 26.4045 23.2734 26.4943 23.2067 26.5614ZM22.4521 25.8076C22.319 25.9419 22.2441 26.1198 22.2441 26.3093C22.2441 26.4987 22.319 26.6767 22.4521 26.8106C22.5904 26.9489 22.7721 27.0178 22.9538 27.0178C23.1359 27.0178 23.3168 26.9489 23.4551 26.8106C23.5889 26.6767 23.6631 26.4987 23.6631 26.3093C23.6631 26.1198 23.5889 25.9419 23.4551 25.8076C23.1792 25.5314 22.7287 25.5314 22.4521 25.8076Z" fill="#0C3226"/>
<path d="M24.8274 24.9412C24.6877 25.0806 24.4619 25.0802 24.3221 24.9412C24.183 24.8018 24.183 24.5752 24.3221 24.4362C24.3922 24.3665 24.4834 24.3316 24.5749 24.3316C24.6662 24.3316 24.7581 24.3665 24.8274 24.4362C24.9665 24.5752 24.9665 24.8018 24.8274 24.9412ZM24.0737 24.187C23.7971 24.4636 23.7971 24.9134 24.0737 25.19C24.2112 25.3283 24.3929 25.3972 24.5749 25.3972C24.7566 25.3972 24.9383 25.3283 25.0766 25.19C25.3525 24.9134 25.3525 24.4636 25.0766 24.187C24.8 23.9108 24.3503 23.9104 24.0737 24.187Z" fill="#0C3226"/>
<path d="M26.3358 23.4334C26.1968 23.5728 25.9699 23.5728 25.8308 23.4334C25.763 23.3662 25.7259 23.2761 25.7259 23.1808C25.7259 23.0856 25.763 22.9958 25.8308 22.9284C25.9005 22.8587 25.9917 22.8238 26.0829 22.8238C26.1742 22.8238 26.2661 22.8587 26.3358 22.9284C26.4029 22.9958 26.44 23.0856 26.44 23.1808C26.44 23.2761 26.4029 23.3662 26.3358 23.4334ZM25.5817 22.6796C25.4478 22.8131 25.374 22.9914 25.374 23.1808C25.374 23.3703 25.4478 23.5483 25.5817 23.6821C25.7192 23.8208 25.9013 23.8894 26.0829 23.8894C26.2646 23.8894 26.4456 23.8208 26.5846 23.6821C26.7188 23.5483 26.7919 23.3703 26.7919 23.1808C26.7919 22.9914 26.7188 22.8131 26.5846 22.6796C26.308 22.403 25.8583 22.403 25.5817 22.6796Z" fill="#0C3226"/>
<path d="M21.5474 24.903C21.4083 25.0424 21.1818 25.0424 21.0427 24.903C20.9753 24.8359 20.9386 24.7461 20.9386 24.6508C20.9386 24.5556 20.9753 24.4654 21.0427 24.3983C21.1124 24.3286 21.2037 24.2938 21.2956 24.2938C21.3868 24.2938 21.478 24.3286 21.5474 24.3983C21.6148 24.4658 21.6519 24.5556 21.6519 24.6508C21.6519 24.7461 21.6148 24.8359 21.5474 24.903ZM20.7936 24.1492C20.6597 24.283 20.5859 24.4614 20.5859 24.6508C20.5859 24.8403 20.6597 25.0183 20.7936 25.1521C20.9319 25.29 21.1139 25.3594 21.2956 25.3594C21.4765 25.3594 21.6582 25.29 21.7965 25.1521C21.9307 25.0183 22.0045 24.8403 22.0045 24.6508C22.0045 24.4614 21.9307 24.283 21.7965 24.1492C21.5199 23.8726 21.0702 23.8733 20.7936 24.1492Z" fill="#0C3226"/>
<path d="M22.6641 22.7774C22.7338 22.7077 22.8257 22.6732 22.9169 22.6732C23.0081 22.6732 23.0994 22.7077 23.1691 22.7774C23.2369 22.8448 23.274 22.9346 23.274 23.0299C23.274 23.1252 23.2369 23.2153 23.1691 23.2824C23.03 23.4218 22.8039 23.4221 22.6641 23.2824C22.597 23.2153 22.5599 23.1252 22.5599 23.0299C22.5599 22.9346 22.597 22.8448 22.6641 22.7774ZM22.9169 23.7388C23.0979 23.7388 23.2796 23.6694 23.4179 23.5315C23.5521 23.3973 23.6259 23.2193 23.6259 23.0299C23.6259 22.8404 23.5521 22.6624 23.4179 22.5286C23.142 22.252 22.6915 22.252 22.4149 22.5286C22.2818 22.6624 22.208 22.8404 22.208 23.0299C22.208 23.2193 22.2818 23.3973 22.4149 23.5315C22.5532 23.6694 22.7353 23.7388 22.9169 23.7388Z" fill="#0C3226"/>
<path d="M24.1713 21.2697C24.2406 21.2 24.3326 21.1651 24.4238 21.1651C24.515 21.1651 24.6062 21.2 24.6766 21.2697C24.7441 21.3372 24.7808 21.4265 24.7808 21.5222C24.7808 21.6175 24.7441 21.7076 24.6766 21.7747C24.5376 21.9137 24.311 21.9137 24.1713 21.7747C24.1038 21.7076 24.0667 21.6175 24.0667 21.5222C24.0667 21.4265 24.1038 21.3372 24.1713 21.2697ZM24.4238 22.2307C24.6051 22.2307 24.7868 22.1618 24.9251 22.0235C25.0589 21.8896 25.1327 21.7113 25.1327 21.5222C25.1327 21.3324 25.0589 21.1544 24.9251 21.0209C24.6485 20.7443 24.1987 20.7443 23.9221 21.0209C23.7886 21.1544 23.7148 21.3324 23.7148 21.5222C23.7148 21.7113 23.7886 21.8896 23.9221 22.0235C24.0604 22.1618 24.2421 22.2307 24.4238 22.2307Z" fill="#0C3226"/>
<path d="M19.9466 23.3013C19.8075 23.4407 19.581 23.4407 19.4419 23.3013C19.3022 23.1619 19.3022 22.9357 19.4419 22.7963C19.5113 22.7266 19.6025 22.6917 19.6937 22.6917C19.786 22.6917 19.8772 22.7266 19.9466 22.7963C20.0856 22.9357 20.0856 23.1619 19.9466 23.3013ZM19.1928 22.5475C18.9162 22.8237 18.9162 23.2738 19.1928 23.5501C19.3311 23.6884 19.5128 23.7573 19.6944 23.7573C19.8758 23.7573 20.0574 23.6884 20.195 23.5501C20.4716 23.2738 20.4716 22.8237 20.195 22.5475C19.9191 22.2705 19.4694 22.2713 19.1928 22.5475Z" fill="#0C3226"/>
<path d="M21.5665 21.6802C21.4319 21.8151 21.1965 21.8151 21.0619 21.6802C20.9944 21.613 20.9577 21.5233 20.9577 21.4276C20.9577 21.3324 20.9944 21.2426 21.0619 21.1752C21.1312 21.1058 21.2224 21.071 21.3148 21.071C21.406 21.071 21.4972 21.1058 21.5665 21.1752C21.634 21.243 21.6714 21.3324 21.6714 21.4276C21.6714 21.5233 21.634 21.613 21.5665 21.6802ZM20.8127 20.9264C20.6789 21.0602 20.6055 21.2385 20.6055 21.4276C20.6055 21.6175 20.6789 21.7955 20.8127 21.9289C20.9466 22.0632 21.1249 22.137 21.3148 22.137C21.5035 22.137 21.6818 22.0632 21.8157 21.9289C21.9495 21.7955 22.0237 21.6175 22.0237 21.4276C22.0237 21.2385 21.9495 21.0602 21.8157 20.9264C21.5391 20.6498 21.0893 20.6498 20.8127 20.9264Z" fill="#0C3226"/>
<path d="M22.5693 19.6677C22.639 19.598 22.731 19.5632 22.8222 19.5632C22.9134 19.5632 23.0046 19.598 23.0743 19.6677C23.1414 19.7348 23.1793 19.8249 23.1793 19.9202C23.1793 20.0155 23.1414 20.1056 23.0743 20.1727C22.9353 20.3121 22.7084 20.3117 22.5693 20.1727C22.5022 20.1056 22.4651 20.0155 22.4651 19.9202C22.4651 19.8249 22.5022 19.7348 22.5693 19.6677ZM22.8222 20.6292C23.0031 20.6292 23.1848 20.5598 23.3235 20.4215C23.4573 20.2876 23.5311 20.1097 23.5311 19.9202C23.5311 19.7308 23.4573 19.5528 23.3235 19.4186C23.0465 19.142 22.5971 19.1423 22.3202 19.4186C22.1863 19.5528 22.1133 19.7308 22.1133 19.9202C22.1133 20.1097 22.1863 20.2876 22.3202 20.4215C22.4585 20.5598 22.6405 20.6292 22.8222 20.6292Z" fill="#0C3226"/>
<path d="M24.814 30.2395C24.2542 30.2395 23.7269 30.0212 23.3302 29.6252L17.2443 23.5389L23.5382 17.2447L29.6248 23.3309C30.0208 23.7273 30.2396 24.2542 30.2396 24.8148C30.2396 25.375 30.0208 25.9019 29.6248 26.2982L26.2979 29.6252C25.9019 30.0212 25.3746 30.2395 24.814 30.2395ZM23.3302 2.37483C23.7395 1.96698 24.2768 1.76305 24.814 1.76305C25.3513 1.76305 25.8893 1.96698 26.2979 2.37483L29.6248 5.7014C30.0208 6.09775 30.2396 6.62461 30.2396 7.18522C30.2396 7.74546 30.0208 8.27271 29.6248 8.66907L8.6687 29.6252C8.27234 30.0212 7.74546 30.2395 7.18522 30.2395C6.62461 30.2395 6.09775 30.0212 5.70177 29.6252H5.70102L2.37444 26.2982C1.97845 25.9019 1.76007 25.375 1.76007 24.8148C1.76007 24.2542 1.97845 23.7273 2.37444 23.3309L23.3302 2.37483ZM8.6687 2.37483L14.7549 8.46105L8.46106 14.7549L2.37444 8.66871C1.97845 8.27272 1.76007 7.74546 1.76007 7.18522C1.76007 6.62461 1.97845 6.09775 2.37444 5.7014L5.70102 2.37483C6.09775 1.9781 6.62461 1.75932 7.18522 1.75932C7.74546 1.75932 8.27234 1.9781 8.6687 2.37483ZM0 24.8148C0 25.8452 0.401185 26.8144 1.12976 27.5429L4.45633 30.8699C5.1849 31.5984 6.15447 32 7.18522 32C8.21523 32 9.18444 31.5984 9.91338 30.8699L15.9993 24.7836L22.0862 30.8699C22.8144 31.5984 23.7836 32 24.814 32C25.8444 32 26.8144 31.5984 27.5426 30.8699L30.8695 27.5429C32.3737 26.0387 32.3737 23.5909 30.8695 22.0863L24.7829 16L30.8695 9.91377C32.3737 8.40917 32.3737 5.96129 30.8695 4.45855L27.5426 1.12901C26.0387 -0.372627 23.5901 -0.372627 22.0862 1.12901L15.9993 7.21639L9.91338 1.12901C8.40915 -0.376334 5.96056 -0.376334 4.45671 1.12901L1.12976 4.45855C0.401185 5.18563 0 6.15484 0 7.18522C0 8.21597 0.401185 9.1852 1.12976 9.91377L7.21638 16L1.12976 22.0863C0.401185 22.8148 0 23.784 0 24.8148Z" fill="#0C3226"/>
<path d="M17.124 12.2529C17.3891 11.9878 17.8511 11.9878 18.1169 12.2529L19.7635 13.8995C19.8959 14.0323 19.9693 14.2087 19.9693 14.396C19.9693 14.5836 19.8959 14.7597 19.7635 14.8924L15.3443 19.3113C15.071 19.585 14.625 19.5853 14.3514 19.3113L12.7047 17.6651C12.4304 17.3911 12.4304 16.9458 12.7044 16.6718L17.124 12.2529ZM13.3555 20.3076C13.7666 20.7184 14.3072 20.9246 14.8482 20.9246C15.3884 20.9246 15.929 20.7188 16.3402 20.3076L20.7591 15.8883C21.1584 15.4898 21.3775 14.9599 21.3775 14.396C21.3775 13.832 21.1584 13.3022 20.7591 12.9036L19.1125 11.257C18.7142 10.858 18.184 10.6389 17.6201 10.6389C17.0565 10.6389 16.5267 10.858 16.1281 11.257L11.7089 15.6763C10.8861 16.4994 10.8861 17.8379 11.7089 18.661L13.3555 20.3076Z" fill="#0C3226"/>
<path d="M19.9119 8.22756C19.9816 8.15823 20.0736 8.12339 20.1648 8.12339C20.256 8.12339 20.3472 8.15823 20.4177 8.22756C20.5567 8.36734 20.5567 8.59352 20.4177 8.73256C20.2786 8.87197 20.0517 8.87234 19.9119 8.73256C19.7729 8.59352 19.7729 8.36734 19.9119 8.22756ZM20.1648 9.18896C20.3465 9.18896 20.5274 9.11964 20.6661 8.98135C20.9427 8.70512 20.9427 8.255 20.6661 7.97877C20.3891 7.70218 19.9397 7.70218 19.6635 7.97877C19.3869 8.255 19.3869 8.70512 19.6635 8.98135C19.8014 9.11964 19.9831 9.18896 20.1648 9.18896Z" fill="#0C3226"/>
<path d="M21.5322 9.84817C21.6027 9.77883 21.6939 9.74399 21.7851 9.74399C21.8763 9.74399 21.9683 9.77883 22.038 9.84817C22.1051 9.91565 22.1421 10.0054 22.1421 10.1006C22.1421 10.1963 22.1051 10.2857 22.038 10.3532C21.8989 10.4929 21.672 10.4926 21.5322 10.3532C21.4658 10.2857 21.428 10.1963 21.428 10.1006C21.428 10.0054 21.4658 9.91565 21.5322 9.84817ZM21.7851 10.8096C21.9668 10.8096 22.1488 10.7406 22.2864 10.6023C22.421 10.4685 22.494 10.2909 22.494 10.1006C22.494 9.91155 22.421 9.73323 22.2864 9.59938C22.0102 9.32278 21.56 9.32315 21.2842 9.59938C21.15 9.73323 21.0762 9.91155 21.0762 10.1006C21.0762 10.2909 21.15 10.4685 21.2842 10.6023C21.4225 10.7406 21.6034 10.8096 21.7851 10.8096Z" fill="#0C3226"/>
<path d="M23.0404 11.356C23.1097 11.2866 23.2017 11.2514 23.2929 11.2514C23.3845 11.2514 23.4764 11.2866 23.5458 11.356C23.6132 11.4235 23.65 11.5132 23.65 11.6085C23.65 11.7042 23.6132 11.7935 23.5458 11.861C23.4067 12.0008 23.1802 12 23.0404 11.861C22.9737 11.7935 22.9362 11.7042 22.9362 11.6085C22.9362 11.5132 22.9737 11.4235 23.0404 11.356ZM23.2929 12.3174C23.4749 12.3174 23.6566 12.2481 23.7942 12.1098C23.9288 11.9759 24.0022 11.798 24.0022 11.6085C24.0022 11.419 23.9288 11.241 23.7942 11.1072C23.5183 10.8306 23.0678 10.8306 22.792 11.1072C22.6581 11.241 22.584 11.419 22.584 11.6085C22.584 11.798 22.6581 11.9763 22.792 12.1098C22.9303 12.2481 23.1112 12.3174 23.2929 12.3174Z" fill="#0C3226"/>
<path d="M21.571 6.56895C21.6404 6.49962 21.732 6.46478 21.8232 6.46478C21.9144 6.46478 22.0063 6.49962 22.0757 6.56895C22.1432 6.63643 22.1802 6.72581 22.1802 6.82147C22.1802 6.91676 22.1432 7.00647 22.0757 7.07395C21.9366 7.21299 21.7101 7.21299 21.571 7.07395C21.5028 7.00647 21.4661 6.91676 21.4661 6.82147C21.4661 6.72581 21.5028 6.63643 21.571 6.56895ZM21.8232 7.53003C22.0049 7.53003 22.1858 7.46141 22.3248 7.32274C22.4587 7.18889 22.5321 7.01093 22.5321 6.82147C22.5321 6.63237 22.4587 6.45404 22.3248 6.32056C22.0482 6.04396 21.5985 6.04359 21.3219 6.32056C21.188 6.45404 21.1143 6.63237 21.1143 6.82147C21.1143 7.01093 21.188 7.18889 21.3219 7.32274C21.4602 7.46141 21.6411 7.53003 21.8232 7.53003Z" fill="#0C3226"/>
<path d="M23.6966 8.69468C23.5575 8.83409 23.331 8.83372 23.1919 8.69468C23.0529 8.55564 23.0529 8.32913 23.1919 8.18972C23.2617 8.12038 23.3529 8.08551 23.4441 8.08551C23.536 8.08551 23.6273 8.12038 23.6966 8.18972C23.8356 8.32913 23.8356 8.55564 23.6966 8.69468ZM22.9428 7.94089C22.6662 8.21712 22.6662 8.66724 22.9428 8.94347C23.0811 9.08177 23.2628 9.15112 23.4441 9.15112C23.6258 9.15112 23.8074 9.08177 23.9457 8.94347C24.2223 8.66724 24.2223 8.21712 23.9457 7.94089C23.6691 7.6643 23.2194 7.6643 22.9428 7.94089Z" fill="#0C3226"/>
<path d="M24.699 9.69753C24.7687 9.6282 24.8599 9.59296 24.9511 9.59296C25.0423 9.59296 25.1343 9.6282 25.204 9.69753C25.2711 9.76501 25.3089 9.85435 25.3089 9.95001C25.3089 10.0453 25.2711 10.135 25.204 10.2025C25.0649 10.3419 24.838 10.3415 24.699 10.2025C24.6319 10.135 24.594 10.0453 24.594 9.95001C24.594 9.85435 24.6319 9.76501 24.699 9.69753ZM24.9511 10.6589C25.1328 10.6589 25.3148 10.5896 25.4531 10.4513C25.587 10.3175 25.66 10.1395 25.66 9.95001C25.66 9.76055 25.587 9.58259 25.4531 9.44874C25.1765 9.17215 24.7268 9.17215 24.4502 9.44874C24.316 9.58259 24.2422 9.76055 24.2422 9.95001C24.2422 10.1395 24.316 10.3175 24.4502 10.4513C24.5885 10.5896 24.7702 10.6589 24.9511 10.6589Z" fill="#0C3226"/>
<path d="M23.1726 4.96678C23.2423 4.89708 23.3335 4.86261 23.4255 4.86261C23.5159 4.86261 23.6079 4.89708 23.6776 4.96678C23.7447 5.03426 23.7818 5.12401 23.7818 5.2193C23.7818 5.31496 23.7447 5.4043 23.6776 5.47178C23.5378 5.61156 23.3116 5.61119 23.1726 5.47178C23.1055 5.4043 23.0677 5.31496 23.0677 5.2193C23.0677 5.12401 23.1055 5.03426 23.1726 4.96678ZM23.4247 5.92822C23.6064 5.92822 23.7881 5.85887 23.9264 5.72057C24.0599 5.58672 24.1336 5.40876 24.1336 5.2193C24.1336 5.0302 24.0599 4.85147 23.9264 4.71799C23.6498 4.43991 23.2 4.43991 22.9234 4.71799C22.7896 4.85147 22.7158 5.0302 22.7158 5.2193C22.7158 5.40876 22.7896 5.58709 22.9234 5.72057C23.0617 5.85887 23.2438 5.92822 23.4247 5.92822Z" fill="#0C3226"/>
<path d="M24.7935 6.58779C24.8632 6.51808 24.9544 6.48322 25.0456 6.48322C25.1369 6.48322 25.2288 6.51808 25.2985 6.58779C25.4376 6.7272 25.4376 6.95374 25.2985 7.09278C25.1595 7.23219 24.9326 7.23182 24.7935 7.09278C24.6545 6.95374 24.6545 6.7272 24.7935 6.58779ZM25.0456 7.54883C25.2273 7.54883 25.4094 7.47987 25.5477 7.34157C25.8243 7.06497 25.8243 6.6152 25.5477 6.3386C25.2707 6.06274 24.8213 6.062 24.5444 6.3386C24.2678 6.6152 24.2678 7.06497 24.5444 7.34157C24.683 7.47987 24.8647 7.54883 25.0456 7.54883Z" fill="#0C3226"/>
<path d="M26.3017 8.09548C26.3711 8.02577 26.4623 7.99127 26.5535 7.99127C26.6455 7.99127 26.737 8.02577 26.8064 8.09548C26.9461 8.23489 26.9461 8.4614 26.8064 8.60044C26.6673 8.73985 26.4408 8.73985 26.3017 8.60044C26.1627 8.4614 26.1627 8.23489 26.3017 8.09548ZM26.5535 9.05688C26.7356 9.05688 26.9172 8.98753 27.0555 8.84923C27.3321 8.573 27.3321 8.12292 27.0555 7.84669C26.7789 7.57047 26.3292 7.5701 26.0526 7.84669C25.7767 8.12292 25.7767 8.573 26.0526 8.84923C26.1909 8.98753 26.3726 9.05688 26.5535 9.05688Z" fill="#0C3226"/>
<path d="M5.9424 23.2069C5.80781 23.3415 5.57199 23.3415 5.4374 23.2069C5.29836 23.0675 5.29836 22.8409 5.4374 22.7019C5.50414 22.6344 5.5946 22.5974 5.68952 22.5974C5.78518 22.5974 5.87492 22.6344 5.9424 22.7019C6.08181 22.8409 6.08181 23.0675 5.9424 23.2069ZM5.18862 22.4527C4.91239 22.7293 4.91239 23.1791 5.18862 23.4557C5.32209 23.5899 5.5008 23.6633 5.68952 23.6633C5.87936 23.6633 6.05734 23.5899 6.19119 23.4557C6.46779 23.1791 6.46779 22.7293 6.19119 22.4527C5.92386 22.185 5.45631 22.185 5.18862 22.4527Z" fill="#0C3226"/>
<path d="M7.56375 24.8281C7.42434 24.9675 7.19781 24.9672 7.05877 24.8281C6.91936 24.6887 6.91936 24.4621 7.05877 24.3227C7.12811 24.253 7.21968 24.2186 7.31089 24.2186C7.40247 24.2186 7.49405 24.253 7.56375 24.3227C7.70279 24.4621 7.70279 24.6887 7.56375 24.8281ZM6.80999 24.074C6.53339 24.3505 6.53339 24.8003 6.80999 25.0769C6.94754 25.2152 7.12921 25.2842 7.31089 25.2842C7.49294 25.2842 7.67424 25.2152 7.81254 25.0769C8.08877 24.8003 8.08877 24.3505 7.81254 24.074C7.53594 23.7977 7.08621 23.7974 6.80999 24.074Z" fill="#0C3226"/>
<path d="M9.07197 26.3357C8.93255 26.4751 8.70563 26.4751 8.56659 26.3357C8.42718 26.1963 8.42718 25.9697 8.56659 25.8307C8.63629 25.7613 8.72751 25.7265 8.81872 25.7265C8.91068 25.7265 9.00189 25.7613 9.07197 25.8307C9.21101 25.9697 9.21101 26.1963 9.07197 26.3357ZM8.3178 25.5819C8.0412 25.8581 8.0412 26.3079 8.3178 26.5845C8.45573 26.7228 8.63779 26.7917 8.81872 26.7917C9.00077 26.7917 9.18244 26.7228 9.32037 26.5845C9.59697 26.3079 9.59697 25.8581 9.32037 25.5819C9.04415 25.3053 8.5944 25.3049 8.3178 25.5819Z" fill="#0C3226"/>
<path d="M7.60088 21.5481C7.46592 21.683 7.23123 21.683 7.09626 21.5481C6.95685 21.409 6.95685 21.1825 7.09626 21.0435C7.16337 20.976 7.25309 20.9389 7.34838 20.9389C7.44404 20.9389 7.53377 20.976 7.60088 21.0435C7.73992 21.1825 7.73992 21.409 7.60088 21.5481ZM6.8471 20.7943C6.5705 21.0709 6.5705 21.5207 6.8471 21.7973C6.98132 21.9315 7.15855 22.0049 7.34838 22.0049C7.53822 22.0049 7.71619 21.9315 7.85041 21.7973C8.1259 21.5207 8.1259 21.0709 7.85041 20.7943C7.58197 20.5266 7.11479 20.5266 6.8471 20.7943Z" fill="#0C3226"/>
<path d="M9.22187 23.1692C9.08283 23.3086 8.85667 23.3086 8.71726 23.1692C8.57784 23.0302 8.57784 22.8036 8.71726 22.6642C8.78696 22.5945 8.87816 22.56 8.96937 22.56C9.06096 22.56 9.15217 22.5945 9.22187 22.6642C9.36091 22.8036 9.36091 23.0302 9.22187 23.1692ZM8.46847 22.4154C8.1915 22.6916 8.1915 23.1418 8.46847 23.418C8.60677 23.5563 8.7877 23.6252 8.96975 23.6252C9.15106 23.6252 9.3331 23.5563 9.4714 23.418C9.74763 23.1418 9.74763 22.6916 9.4714 22.4154C9.19481 22.1388 8.74432 22.1392 8.46847 22.4154Z" fill="#0C3226"/>
<path d="M10.7298 24.6769C10.5952 24.8118 10.3601 24.8118 10.2255 24.6769C10.0858 24.5378 10.0858 24.3113 10.2255 24.1722C10.2926 24.1047 10.3824 24.0677 10.478 24.0677C10.5729 24.0677 10.663 24.1047 10.7298 24.1722C10.8696 24.3113 10.8696 24.5378 10.7298 24.6769ZM9.976 23.9231C9.69941 24.1997 9.69941 24.6494 9.976 24.926C10.1102 25.0599 10.2882 25.134 10.478 25.134C10.6671 25.134 10.8455 25.0599 10.9793 24.926C11.2552 24.6494 11.2552 24.1997 10.9793 23.9231C10.7116 23.6554 10.2444 23.6554 9.976 23.9231Z" fill="#0C3226"/>
<path d="M8.69889 19.4414C8.76822 19.3721 8.85942 19.3372 8.95101 19.3372C9.04259 19.3372 9.13379 19.3721 9.20312 19.4414C9.34291 19.5808 9.34291 19.807 9.20312 19.9464C9.06408 20.0858 8.83793 20.0858 8.69889 19.9464C8.55911 19.807 8.55911 19.5808 8.69889 19.4414ZM8.95101 20.4028C9.13306 20.4028 9.31436 20.3335 9.45265 20.1952C9.72851 19.919 9.72851 19.4689 9.45265 19.1923C9.17643 18.9161 8.72595 18.9161 8.44936 19.1923C8.17313 19.4689 8.17313 19.919 8.44936 20.1952C8.58803 20.3335 8.7697 20.4028 8.95101 20.4028Z" fill="#0C3226"/>
<path d="M10.8247 21.5674C10.6849 21.7064 10.4587 21.7064 10.3197 21.5674C10.1807 21.428 10.1807 21.2014 10.3197 21.062C10.389 20.9927 10.4806 20.9578 10.5722 20.9578C10.6634 20.9578 10.7546 20.9927 10.8247 21.062C10.9637 21.2014 10.9637 21.428 10.8247 21.5674ZM10.0702 20.8132C9.79432 21.0898 9.79432 21.54 10.0702 21.8162C10.2088 21.9545 10.3905 22.0234 10.5722 22.0234C10.7539 22.0234 10.9352 21.9545 11.0735 21.8162C11.3501 21.54 11.3501 21.0898 11.0735 20.8132C10.7973 20.537 10.3468 20.5366 10.0702 20.8132Z" fill="#0C3226"/>
<path d="M12.332 23.075C12.1971 23.2096 11.9616 23.2096 11.8271 23.075C11.688 22.9359 11.688 22.7094 11.8271 22.57C11.8945 22.5029 11.9839 22.4654 12.0799 22.4654C12.1752 22.4654 12.2649 22.5029 12.332 22.57C12.4711 22.7094 12.4711 22.9359 12.332 23.075ZM11.5783 22.3208C11.302 22.5978 11.302 23.0475 11.5783 23.3241C11.7121 23.458 11.8897 23.5317 12.0799 23.5317C12.2694 23.5317 12.447 23.458 12.5808 23.3241C12.8574 23.0475 12.8574 22.5978 12.5808 22.3208C12.3131 22.0535 11.846 22.0535 11.5783 22.3208Z" fill="#0C3226"/>
</svg>
