<svg width="30" height="32" viewBox="0 0 30 32" fill="none" xmlns="http://www.w3.org/2000/svg">
<path d="M25.4493 10.6551C27.1771 10.6551 28.5825 12.0609 28.5825 13.7886C28.5825 14.9887 27.9039 16.032 26.9108 16.558V13.7686C26.9108 12.9259 26.2251 12.2402 25.3824 12.2402C24.5396 12.2402 23.8539 12.9259 23.8539 13.7686V16.4808C22.9349 15.9338 22.3158 14.9333 22.3158 13.7886C22.3158 12.0609 23.7216 10.6551 25.4493 10.6551ZM24.771 22.5148V13.7686C24.771 13.4313 25.045 13.1573 25.3824 13.1573C25.7197 13.1573 25.9937 13.4313 25.9937 13.7686V22.5148C25.9937 27.2392 22.1503 31.0829 17.4256 31.0829C13.0273 31.0829 9.39445 27.751 8.91319 23.4795C9.09668 23.4895 9.28146 23.4956 9.46849 23.4956C9.69673 23.4956 9.92175 23.4853 10.1445 23.4705C10.6145 27.0702 13.6994 29.8599 17.4256 29.8599C21.4756 29.8599 24.771 26.5648 24.771 22.5148ZM14.7115 2.06026C14.7115 1.62825 15.0627 1.27672 15.4947 1.27672C15.6412 1.27672 15.7771 1.31986 15.8942 1.39004C15.8901 1.43639 15.8804 1.48113 15.8804 1.52845V2.7379C15.7661 2.80325 15.6357 2.84348 15.4947 2.84348C15.0627 2.84348 14.7115 2.49227 14.7115 2.06026ZM4.01556 2.06026C4.01556 2.49227 3.66404 2.84348 3.23203 2.84348C3.17183 2.84348 3.11356 2.83544 3.05722 2.82224V1.52845C3.05722 1.45216 3.04532 1.37876 3.0347 1.30505C3.09811 1.28831 3.16346 1.27672 3.23203 1.27672C3.66404 1.27672 4.01556 1.62825 4.01556 2.06026ZM0.917128 1.52845C0.917128 1.19141 1.1914 0.917145 1.52877 0.917145C1.86581 0.917145 2.14009 1.19141 2.14009 1.52845V13.11C2.14009 17.9648 5.15354 21.3555 9.46849 21.3555C13.7838 21.3555 16.7975 17.9648 16.7975 13.11V1.52845C16.7975 1.19141 17.0718 0.917145 17.4089 0.917145C17.7459 0.917145 18.0202 1.19141 18.0202 1.52845V13.11C18.0202 18.5964 14.4237 22.5785 9.46849 22.5785C4.51357 22.5785 0.917128 18.5964 0.917128 13.11V1.52845ZM7.98157 23.3846C8.42259 28.2082 12.4887 32 17.4256 32C22.6558 32 26.9108 27.7449 26.9108 22.5148V17.5618C28.4232 16.974 29.4997 15.5063 29.4997 13.7886C29.4997 11.5552 27.6825 9.73827 25.4493 9.73827C23.2156 9.73827 21.3987 11.5552 21.3987 13.7886C21.3987 15.4558 22.4114 16.8903 23.8539 17.5106V22.5148C23.8539 26.0594 20.9702 28.9431 17.4256 28.9431C14.1704 28.9431 11.4792 26.5088 11.0607 23.3662C15.7082 22.6071 18.9373 18.5282 18.9373 13.11V1.52845C18.9373 0.685679 18.2516 3.01581e-07 17.4089 3.01581e-07C17.0605 3.01581e-07 16.7435 0.121367 16.4859 0.318379C16.1933 0.150983 15.8553 0.0537734 15.4947 0.0537734C14.3886 0.0537734 13.4886 0.953835 13.4886 2.06026C13.4886 3.16668 14.3886 4.06644 15.4947 4.06644C15.6267 4.06644 15.7555 4.0526 15.8804 4.02845V13.11C15.8804 17.425 13.2439 20.4387 9.46849 20.4387C5.69371 20.4387 3.05722 17.425 3.05722 13.11V4.05775C3.11484 4.0629 3.17312 4.06644 3.23203 4.06644C4.33813 4.06644 5.23853 3.16668 5.23853 2.06026C5.23853 0.953835 4.33813 0.0537734 3.23203 0.0537734C2.92202 0.0537734 2.62908 0.126846 2.36704 0.253037C2.12592 0.0940109 1.83813 3.01581e-07 1.52877 3.01581e-07C0.685671 3.01581e-07 0 0.685679 0 1.52845V13.11C0 18.569 3.27742 22.6699 7.98157 23.3846Z" fill="#2093CA"/>
</svg>
