<svg width="32" height="32" viewBox="0 0 32 32" fill="none" xmlns="http://www.w3.org/2000/svg">
<path d="M30.7745 16.0002C30.7745 24.1469 24.1472 30.7749 15.9998 30.7749C7.85315 30.7749 1.22546 24.1469 1.22546 16.0002C1.22546 7.85315 7.85315 1.22515 15.9998 1.22515C24.1472 1.22515 30.7745 7.85315 30.7745 16.0002ZM15.9998 32C24.8223 32 31.9997 24.8227 31.9997 16.0002C31.9997 7.17799 24.8223 0 15.9998 0C7.17735 0 0 7.17799 0 16.0002C0 24.8227 7.17735 32 15.9998 32Z" fill="#0E374A"/>
<path d="M10.9587 25.459L14.6422 20.5059C15.3509 20.8939 16.1783 21.0142 16.9699 20.8417L20.0573 26.4226C18.577 27.0032 14.5138 28.1855 10.9587 25.459ZM17.8031 19.8168C17.6541 19.5472 17.3277 19.4304 17.0415 19.5436C16.3164 19.831 15.4915 19.6985 14.8899 19.1998C14.7603 19.0927 14.5916 19.0427 14.4257 19.0633C14.2587 19.0836 14.1074 19.171 14.0074 19.3062L9.62645 25.1971C9.43613 25.4539 9.47483 25.8142 9.71612 26.0245C11.8184 27.8571 14.1167 28.3997 16.1015 28.3997C18.9583 28.3997 21.1647 27.2755 21.2018 27.2561C21.3479 27.18 21.4576 27.0477 21.5054 26.8897C21.5528 26.7316 21.5344 26.561 21.4544 26.4168L17.8031 19.8168Z" fill="#0E374A"/>
<path d="M9.01719 6.76807L12.1784 12.3132C11.6204 12.8993 11.2927 13.6683 11.2549 14.4757L5.10787 15.0438C4.61755 10.5419 7.74075 7.72096 9.01719 6.76807ZM3.97885 15.8112C4.0295 16.108 4.2869 16.3206 4.58206 16.3206C4.60077 16.3206 4.6198 16.3193 4.63916 16.3177L11.9494 15.6422C12.1165 15.627 12.2701 15.5431 12.3739 15.4112C12.4781 15.2793 12.5233 15.1102 12.4991 14.9441C12.3865 14.1703 12.7026 13.3974 13.3249 12.927C13.5704 12.7416 13.6404 12.4022 13.4878 12.1351L9.75136 5.58292C9.67007 5.43905 9.5333 5.33518 9.37363 5.29325C9.21427 5.25196 9.0446 5.27647 8.90299 5.36164C8.84235 5.39776 2.83015 9.10611 3.97885 15.8112Z" fill="#0E374A"/>
<path d="M27.5459 14.7251L21.3759 14.5305C21.2892 13.7273 20.9153 12.9793 20.3227 12.4277L23.1398 6.70642C24.4624 7.58964 27.7533 10.2496 27.5459 14.7251ZM19.216 13.1106C19.8656 13.5422 20.2279 14.2944 20.1624 15.0734C20.1485 15.2409 20.204 15.4067 20.3156 15.5321C20.4269 15.6579 20.5856 15.7315 20.7534 15.737L28.0914 15.9679C28.0978 15.9683 28.1046 15.9683 28.111 15.9683C28.422 15.9683 28.6855 15.7338 28.7194 15.4225C29.4591 8.65963 23.2334 5.32353 23.1701 5.29031C23.0246 5.21353 22.8527 5.20063 22.6963 5.25095C22.5395 5.30256 22.4104 5.4145 22.3372 5.56257L19.005 12.3296C18.8689 12.6057 18.9592 12.9402 19.216 13.1106Z" fill="#0E374A"/>
<path d="M16.9039 13.8697C17.3968 14.0078 17.8055 14.3294 18.0562 14.7752C18.5729 15.6952 18.2449 16.8642 17.3249 17.3816V17.3813C16.8788 17.6319 16.3617 17.6939 15.8697 17.5555C15.3775 17.4174 14.9685 17.0958 14.7181 16.6497C14.2014 15.7297 14.5294 14.5607 15.4501 14.0432C15.7397 13.8807 16.0601 13.7974 16.3842 13.7974C16.5575 13.7974 16.7326 13.8213 16.9039 13.8697ZM13.6498 17.25C14.0604 17.9813 14.7313 18.5087 15.5384 18.7351C15.8204 18.8142 16.1071 18.8535 16.3917 18.8535C16.9229 18.8535 17.4484 18.7174 17.9246 18.4496C17.9246 18.4496 17.9246 18.4496 17.9246 18.4493C19.4336 17.6016 19.9723 15.6842 19.1242 14.1749C18.7136 13.4439 18.0433 12.9165 17.2355 12.6897C16.4275 12.4639 15.5807 12.5649 14.8491 12.9752C13.3401 13.8232 12.802 15.7406 13.6498 17.25Z" fill="#0E374A"/>
</svg>
