<svg width="35" height="33" viewBox="0 0 35 33" fill="none" xmlns="http://www.w3.org/2000/svg">
<path d="M20.4657 5.94382H14.5343V5.24602C14.5343 4.84281 15.0033 4.50241 15.5592 4.50241H19.4411C19.9964 4.50241 20.4657 4.84281 20.4657 5.24602V5.94382ZM13.5039 1.92877H21.4958C23.1341 1.92877 24.4668 3.00757 24.4668 4.33308V5.94382H22.0911V5.24602C22.0911 3.92745 20.9022 2.85454 19.4411 2.85454H15.5592C14.0975 2.85454 12.909 3.92745 12.909 5.24602V5.94382H10.5332V4.33308C10.5332 3.00757 11.8659 1.92877 13.5039 1.92877ZM33.3747 28.2769C33.3747 29.5781 32.3323 30.633 31.051 30.633H3.94902C2.66771 30.633 1.62534 29.5781 1.62534 28.2769V9.94637C1.62534 8.64793 2.66771 7.59133 3.94902 7.59133H31.051C32.3323 7.59133 33.3747 8.64793 33.3747 9.94637V28.2769ZM26.0921 5.94382V4.33308C26.0921 2.09914 24.0306 0.281249 21.4958 0.281249H13.5039C10.9694 0.281249 8.90789 2.09914 8.90789 4.33308V5.94382H3.94902C1.77151 5.94382 0 7.7395 0 9.94637V28.2769C0 30.4838 1.77151 32.2812 3.94902 32.2812H31.051C33.2285 32.2812 35 30.4838 35 28.2769V9.94637C35 7.7395 33.2285 5.94382 31.051 5.94382H26.0921Z" fill="#0C3226"/>
<path d="M23.4862 20.716H19.8952C19.6258 20.716 19.4074 20.9378 19.4074 21.2105V24.8522H16.243V21.2105C16.243 20.9378 16.0246 20.716 15.7555 20.716H12.1646V17.5088H15.7555C16.0246 17.5088 16.243 17.2871 16.243 17.0143V13.3744H19.4074V17.0143C19.4074 17.2871 19.6258 17.5088 19.8952 17.5088H23.4862V20.716ZM23.974 16.5199H20.383V12.8799C20.383 12.6072 20.1643 12.3855 19.8952 12.3855H15.7555C15.4861 12.3855 15.2677 12.6072 15.2677 12.8799V16.5199H11.6768C11.4074 16.5199 11.189 16.7412 11.189 17.0143V21.2105C11.189 21.4836 11.4074 21.705 11.6768 21.705H15.2677V25.3449C15.2677 25.619 15.4861 25.8376 15.7555 25.8376H19.8952C20.1643 25.8376 20.383 25.619 20.383 25.3449V21.705H23.974C24.2431 21.705 24.4615 21.4836 24.4615 21.2105V17.0143C24.4615 16.7412 24.2431 16.5199 23.974 16.5199Z" fill="#0C3226"/>
</svg>
