<svg width="30" height="32" viewBox="0 0 30 32" fill="none" xmlns="http://www.w3.org/2000/svg">
<path d="M11.5763 28.1129V25.4697H18.4234V28.1129H11.5763ZM23.7215 30.5864H6.27816V29.5262H23.7215V30.5864ZM1.4238 5.01403C1.4238 3.02878 3.05061 1.41361 5.04987 1.41361H24.9495C26.9494 1.41361 28.5762 3.02878 28.5762 5.01403V20.4559C28.5762 22.4412 26.9494 24.0561 24.9495 24.0561H5.04987C3.05061 24.0561 1.4238 22.4412 1.4238 20.4559V5.01403ZM5.04987 25.4697H10.1525V28.1129H5.56626C5.17313 28.1129 4.85436 28.4291 4.85436 28.8194V31.2932C4.85436 31.6835 5.17313 32 5.56626 32H24.4334C24.8269 32 25.1453 31.6835 25.1453 31.2932V28.8194C25.1453 28.4291 24.8269 28.1129 24.4334 28.1129H19.8472V25.4697H24.9495C27.7347 25.4697 30 23.2206 30 20.4559V5.01403C30 2.24933 27.7347 -2.30872e-07 24.9495 -2.30872e-07H5.04987C2.26524 -2.30872e-07 0 2.24933 0 5.01403V20.4559C0 23.2206 2.26524 25.4697 5.04987 25.4697Z" fill="#2093CA"/>
<path d="M24.8613 13.5437H20.5896C20.4642 13.5437 20.3518 13.46 20.3167 13.3406L19.483 10.5283L17.4199 16.5019C17.3803 16.6165 17.2721 16.693 17.1506 16.693V16.8344L17.141 16.693C17.0151 16.6888 16.9083 16.6052 16.8756 16.4843L14.7378 8.64396L11.8638 13.4061C11.8126 13.491 11.7193 13.5437 11.6198 13.5437H5.21234C5.0552 13.5437 4.92746 13.4165 4.92746 13.2608C4.92746 13.1048 5.0552 12.978 5.21234 12.978H11.4581L14.5936 7.78324C14.6524 7.68529 14.7636 7.63229 14.8767 7.64836C14.99 7.66414 15.0827 7.74483 15.1127 7.85469L17.1827 15.4458L19.2342 9.50529C19.274 9.39067 19.3916 9.31147 19.51 9.31415C19.6348 9.31683 19.7421 9.39841 19.7772 9.51691L20.8028 12.978H24.8613C25.0181 12.978 25.1459 13.1048 25.1459 13.2608C25.1459 13.4165 25.0181 13.5437 24.8613 13.5437ZM20.0957 19.9692H9.90507C7.90551 19.9692 6.27869 18.3543 6.27869 16.3688V13.8262H11.6198C11.8186 13.8262 12.0057 13.7208 12.1083 13.5514L14.6377 9.3597L16.6007 16.5582C16.6666 16.7996 16.8798 16.9675 17.1323 16.9756L17.1506 16.9759C17.3941 16.9759 17.61 16.8222 17.6895 16.5936L19.4624 11.4599L20.0435 13.4204C20.1143 13.6592 20.3389 13.8262 20.5896 13.8262H23.7221V16.3688C23.7221 18.3543 22.0953 19.9692 20.0957 19.9692ZM9.90507 5.49998H20.0957C22.0953 5.49998 23.7221 7.11514 23.7221 9.10038V12.6954H21.0157L20.0501 9.43711C19.9799 9.19982 19.7655 9.03697 19.5178 9.03131C19.2746 9.01821 19.0455 9.18048 18.9652 9.4133L17.2148 14.4818L15.3874 7.78086C15.328 7.56143 15.1427 7.39947 14.9169 7.3685C14.6899 7.33456 14.4677 7.44205 14.3492 7.63796L11.2971 12.6954H6.27869V9.10038C6.27869 7.11514 7.90551 5.49998 9.90507 5.49998ZM4.85489 13.6973V16.3688C4.85489 19.1338 7.12044 21.3828 9.90507 21.3828H20.0957C22.8803 21.3828 25.1459 19.1338 25.1459 16.3688V13.7476C25.3156 13.6494 25.4307 13.4692 25.4307 13.2608C25.4307 13.0524 25.3156 12.872 25.1459 12.7737V9.10038C25.1459 6.33569 22.8803 4.08637 20.0957 4.08637H9.90507C7.12044 4.08637 4.85489 6.33569 4.85489 9.10038V12.8241C4.72655 12.9277 4.64258 13.084 4.64258 13.2608C4.64258 13.4377 4.72655 13.5937 4.85489 13.6973Z" fill="#2093CA"/>
</svg>
