<svg width="32" height="29" viewBox="0 0 32 29" fill="none" xmlns="http://www.w3.org/2000/svg">
<path d="M4.25953 16.9076H27.7407V21.0095H4.25953V16.9076ZM1.0486 27.26V9.96047H3.21093V27.26H1.0486ZM28.7891 27.26V14.3815H30.9519V27.26H28.7891ZM31.4758 13.3329H28.2649C27.9754 13.3329 27.7407 13.5678 27.7407 13.8573V15.859H4.25953V9.43631C4.25953 9.14676 4.02491 8.91215 3.73537 8.91215H0.524436C0.234892 8.91215 0 9.14676 0 9.43631V27.7844C0 28.0737 0.234892 28.3088 0.524436 28.3088H3.73537C4.02491 28.3088 4.25953 28.0737 4.25953 27.7844V22.0581H27.7407V27.7844C27.7407 28.0737 27.9754 28.3088 28.2649 28.3088H31.4758C31.7651 28.3088 32 28.0737 32 27.7844V21.5337V16.3834V13.8573C32 13.5678 31.7651 13.3329 31.4758 13.3329Z" fill="#2093CA"/>
<path d="M10.747 13.761C10.747 14.05 10.5118 14.2852 10.2229 14.2852H6.35666C6.06767 14.2852 5.83278 14.05 5.83278 13.761V13.0489C5.83278 12.7599 6.06767 12.5244 6.35666 12.5244H10.2229C10.5118 12.5244 10.747 12.7599 10.747 13.0489V13.761ZM6.35666 11.4761C5.48968 11.4761 4.78418 12.1816 4.78418 13.0489V13.761C4.78418 14.628 5.48968 15.3335 6.35666 15.3335H10.2229C11.0901 15.3335 11.7956 14.628 11.7956 13.761V13.0489C11.7956 12.1816 11.0901 11.4761 10.2229 11.4761H6.35666Z" fill="#2093CA"/>
<path d="M16.8628 3.81703H19.4999C19.7171 3.81703 19.893 3.64066 19.893 3.42371V0.786336H22.1825V3.42371C22.1825 3.64066 22.3584 3.81703 22.5753 3.81703H25.2127V6.10606H22.5753C22.3584 6.10606 22.1825 6.28216 22.1825 6.49911V9.13647H19.893V6.49911C19.893 6.28216 19.7171 6.10606 19.4999 6.10606H16.8628V3.81703ZM19.4999 9.92285H22.5753C22.7928 9.92285 22.9689 9.74675 22.9689 9.52952V6.89244H25.606C25.823 6.89244 25.9991 6.71606 25.9991 6.49911V3.42371C25.9991 3.20703 25.823 3.03038 25.606 3.03038H22.9689V0.393292C22.9689 0.176341 22.7928 -3.53539e-05 22.5753 -3.53539e-05H19.4999C19.2827 -3.53539e-05 19.1066 0.176341 19.1066 0.393292V3.03038H16.4698C16.2523 3.03038 16.0762 3.20703 16.0762 3.42371V6.49911C16.0762 6.71606 16.2523 6.89244 16.4698 6.89244H19.1066V9.52952C19.1066 9.74675 19.2827 9.92285 19.4999 9.92285Z" fill="#2093CA"/>
</svg>
