<svg width="23" height="22" viewBox="0 0 23 22" fill="none" xmlns="http://www.w3.org/2000/svg">
<path d="M22.9802 8.8918C23.0934 8.33305 22.6406 7.66255 22.0746 7.66255L15.6224 6.76855L12.6793 0.957544C12.5661 0.734044 12.4529 0.622294 12.2265 0.510543C11.6605 0.175293 10.9813 0.398794 10.6417 0.957544L7.8118 6.76855L1.35959 7.66255C1.02 7.66255 0.793607 7.7743 0.68041 7.9978C0.227624 8.4448 0.227624 9.1153 0.68041 9.5623L5.32147 14.0323L4.18951 20.4021C4.18951 20.6256 4.18951 20.8491 4.3027 21.0726C4.64229 21.6313 5.32147 21.8548 5.88746 21.5196L11.6605 18.5023L17.4335 21.5196C17.5467 21.6313 17.7731 21.6313 17.9995 21.6313C18.1127 21.6313 18.1127 21.6313 18.2259 21.6313C18.7919 21.5196 19.2447 20.9608 19.1315 20.2903L17.9995 13.9206L22.6406 9.45055C22.867 9.3388 22.9802 9.1153 22.9802 8.8918Z" fill="#2093CA"/>
</svg>
