<svg width="30" height="32" viewBox="0 0 30 32" fill="none" xmlns="http://www.w3.org/2000/svg">
<path d="M11.5763 28.1129V25.4697H18.4234V28.1129H11.5763ZM23.7215 30.5864H6.27816V29.5262H23.7215V30.5864ZM1.4238 5.01403C1.4238 3.02878 3.05061 1.41361 5.04987 1.41361H24.9495C26.9494 1.41361 28.5762 3.02878 28.5762 5.01403V20.4559C28.5762 22.4412 26.9494 24.0561 24.9495 24.0561H5.04987C3.05061 24.0561 1.4238 22.4412 1.4238 20.4559V5.01403ZM5.04987 25.4697H10.1525V28.1129H5.56626C5.17313 28.1129 4.85436 28.4291 4.85436 28.8194V31.2932C4.85436 31.6835 5.17313 32 5.56626 32H24.4334C24.8269 32 25.1453 31.6835 25.1453 31.2932V28.8194C25.1453 28.4291 24.8269 28.1129 24.4334 28.1129H19.8472V25.4697H24.9495C27.7347 25.4697 30 23.2206 30 20.4559V5.01403C30 2.24933 27.7347 -2.30872e-07 24.9495 -2.30872e-07H5.04987C2.26524 -2.30872e-07 0 2.24933 0 5.01403V20.4559C0 23.2206 2.26524 25.4697 5.04987 25.4697Z" fill="#2093CA"/>
<path d="M24.8603 13.5437H20.5886C20.4633 13.5437 20.3508 13.46 20.3157 13.3406L19.4821 10.5283L17.4189 16.5019C17.3794 16.6165 17.2711 16.693 17.1497 16.693V16.8344L17.14 16.693C17.0141 16.6888 16.9074 16.6052 16.8747 16.4843L14.7369 8.64396L11.8629 13.4061C11.8116 13.491 11.7183 13.5437 11.6188 13.5437H5.21136C5.05423 13.5437 4.92648 13.4165 4.92648 13.2608C4.92648 13.1048 5.05423 12.978 5.21136 12.978H11.4571L14.5926 7.78324C14.6514 7.68529 14.7627 7.63229 14.8757 7.64836C14.9891 7.66414 15.0817 7.74483 15.1117 7.85469L17.1817 15.4458L19.2332 9.50529C19.2731 9.39067 19.3906 9.31147 19.5091 9.31415C19.6338 9.31683 19.7412 9.39841 19.7762 9.51691L20.8018 12.978H24.8603C25.0171 12.978 25.1449 13.1048 25.1449 13.2608C25.1449 13.4165 25.0171 13.5437 24.8603 13.5437ZM20.0947 19.9692H9.9041C7.90454 19.9692 6.27772 18.3543 6.27772 16.3688V13.8262H11.6188C11.8176 13.8262 12.0047 13.7208 12.1073 13.5514L14.6367 9.3597L16.5997 16.5582C16.6656 16.7996 16.8789 16.9675 17.1314 16.9756L17.1497 16.9759C17.3932 16.9759 17.6091 16.8222 17.6885 16.5936L19.4614 11.4599L20.0425 13.4204C20.1133 13.6592 20.3379 13.8262 20.5886 13.8262H23.7211V16.3688C23.7211 18.3543 22.0943 19.9692 20.0947 19.9692ZM9.9041 5.49998H20.0947C22.0943 5.49998 23.7211 7.11514 23.7211 9.10038V12.6954H21.0147L20.0491 9.43711C19.979 9.19982 19.7646 9.03697 19.5169 9.03131C19.2737 9.01821 19.0445 9.18048 18.9642 9.4133L17.2138 14.4818L15.3864 7.78086C15.327 7.56143 15.1417 7.39947 14.9159 7.3685C14.6889 7.33456 14.4667 7.44205 14.3482 7.63796L11.2961 12.6954H6.27772V9.10038C6.27772 7.11514 7.90454 5.49998 9.9041 5.49998ZM4.85391 13.6973V16.3688C4.85391 19.1338 7.11947 21.3828 9.9041 21.3828H20.0947C22.8793 21.3828 25.1449 19.1338 25.1449 16.3688V13.7476C25.3146 13.6494 25.4298 13.4692 25.4298 13.2608C25.4298 13.0524 25.3146 12.872 25.1449 12.7737V9.10038C25.1449 6.33569 22.8793 4.08637 20.0947 4.08637H9.9041C7.11947 4.08637 4.85391 6.33569 4.85391 9.10038V12.8241C4.72557 12.9277 4.6416 13.084 4.6416 13.2608C4.6416 13.4377 4.72557 13.5937 4.85391 13.6973Z" fill="#2093CA"/>
</svg>
