<svg width="32" height="32" viewBox="0 0 32 32" fill="none" xmlns="http://www.w3.org/2000/svg">
<path d="M8.73301 12.0871C8.59842 12.2221 8.36299 12.2221 8.22839 12.0871C8.08861 11.9477 8.08861 11.7216 8.22839 11.5822C8.2955 11.5147 8.38522 11.4776 8.48088 11.4776C8.57616 11.4776 8.6659 11.5147 8.73301 11.5822C8.87205 11.7216 8.87205 11.9477 8.73301 12.0871ZM7.97886 11.3334C7.70301 11.6096 7.70301 12.0597 7.97886 12.3363C8.11308 12.4702 8.29104 12.5439 8.48088 12.5439C8.67034 12.5439 8.84831 12.4702 8.98216 12.3363C9.25839 12.0597 9.25839 11.6096 8.98216 11.3334C8.71446 11.0657 8.24693 11.0657 7.97886 11.3334Z" fill="#2093CA"/>
<path d="M10.3538 10.4664C10.2147 10.6058 9.98784 10.6062 9.84843 10.4664C9.70865 10.3274 9.70865 10.1008 9.84843 9.96177C9.91813 9.89244 10.0097 9.85724 10.1009 9.85724C10.1921 9.85724 10.2833 9.89244 10.3538 9.96177C10.4928 10.1008 10.4928 10.3274 10.3538 10.4664ZM9.59926 9.71262C9.32303 9.98922 9.32303 10.439 9.59926 10.7156C9.73756 10.8539 9.91888 10.9229 10.1009 10.9229C10.2826 10.9229 10.4639 10.8539 10.6022 10.7156C10.8784 10.439 10.8784 9.98922 10.6022 9.71262C10.3256 9.43603 9.87549 9.4364 9.59926 9.71262Z" fill="#2093CA"/>
<path d="M11.3566 8.4536C11.4234 8.38612 11.5135 8.34906 11.6087 8.34906C11.7044 8.34906 11.7938 8.38612 11.8616 8.4536C12.0007 8.59301 12.0007 8.81919 11.8616 8.9586C11.7267 9.09356 11.4912 9.09356 11.3566 8.9586C11.2176 8.81919 11.2176 8.59301 11.3566 8.4536ZM11.6087 9.41504C11.7986 9.41504 11.9769 9.3416 12.1104 9.20738C12.3863 8.93116 12.3863 8.48104 12.1104 8.20481C11.8423 7.93674 11.3752 7.93674 11.1078 8.20481C10.8312 8.48104 10.8312 8.93116 11.1078 9.20738C11.2413 9.3416 11.4193 9.41504 11.6087 9.41504Z" fill="#2093CA"/>
<path d="M6.56941 9.92394C6.63874 9.85423 6.72994 9.81977 6.82115 9.81977C6.9131 9.81977 7.00431 9.85423 7.07439 9.92394C7.21343 10.063 7.21343 10.2895 7.07439 10.4289C6.93498 10.568 6.70845 10.568 6.56941 10.4289C6.43037 10.2895 6.43037 10.063 6.56941 9.92394ZM6.82115 10.8857C7.0032 10.8857 7.18451 10.816 7.32318 10.6777C7.5994 10.4015 7.5994 9.95138 7.32318 9.67515C7.04695 9.39855 6.59684 9.39818 6.32024 9.67515C6.04364 9.95138 6.04364 10.4015 6.32024 10.6777C6.45817 10.816 6.63984 10.8857 6.82115 10.8857Z" fill="#2093CA"/>
<path d="M8.6951 8.80824C8.55569 8.94765 8.32916 8.94765 8.19012 8.80824C8.05108 8.6692 8.05108 8.44265 8.19012 8.30324C8.25946 8.23354 8.35065 8.19904 8.4426 8.19904C8.53381 8.19904 8.62503 8.23354 8.6951 8.30324C8.83414 8.44265 8.83414 8.6692 8.6951 8.80824ZM7.94133 8.05446C7.66474 8.33105 7.66474 8.78079 7.94133 9.05739C8.07889 9.19569 8.26092 9.26465 8.4426 9.26465C8.62428 9.26465 8.80522 9.19569 8.94389 9.05739C9.22049 8.78079 9.22049 8.33105 8.94389 8.05446C8.66766 7.77823 8.21793 7.77786 7.94133 8.05446Z" fill="#2093CA"/>
<path d="M9.69766 6.79579C9.76736 6.72609 9.85858 6.69198 9.95054 6.69198C10.0417 6.69198 10.1329 6.72609 10.2027 6.79579C10.3421 6.93483 10.3421 7.16138 10.2027 7.30079C10.0632 7.4402 9.8367 7.43983 9.69766 7.30079C9.55862 7.16138 9.55862 6.93483 9.69766 6.79579ZM9.95054 7.75684C10.1318 7.75684 10.3135 7.68788 10.4514 7.54958C10.728 7.27335 10.728 6.82323 10.4514 6.54701C10.1752 6.27041 9.72547 6.27041 9.44887 6.54701C9.17264 6.82323 9.17264 7.27335 9.44887 7.54958C9.5868 7.68788 9.76849 7.75684 9.95054 7.75684Z" fill="#2093CA"/>
<path d="M5.47185 8.8264C5.33281 8.96581 5.10589 8.96581 4.96685 8.8264C4.82744 8.68736 4.82744 8.4608 4.96685 8.32176C5.03656 8.25206 5.12778 8.21723 5.21899 8.21723C5.31057 8.21723 5.40214 8.25206 5.47185 8.32176C5.61089 8.4608 5.61089 8.68736 5.47185 8.8264ZM4.7177 8.07261C4.4411 8.34921 4.4411 8.79895 4.7177 9.07555C4.85563 9.21348 5.03767 9.2832 5.21861 9.2832C5.40066 9.2832 5.58234 9.21348 5.72064 9.07555C5.99723 8.79895 5.99723 8.34921 5.72064 8.07261C5.44404 7.79639 4.9943 7.79602 4.7177 8.07261Z" fill="#2093CA"/>
<path d="M6.58769 6.70107C6.65739 6.63136 6.74859 6.59686 6.84055 6.59686C6.93176 6.59686 7.02296 6.63136 7.09267 6.70107C7.23208 6.84011 7.23208 7.06665 7.09267 7.20607C6.95362 7.34585 6.72673 7.34511 6.58769 7.20607C6.44865 7.06665 6.44865 6.84011 6.58769 6.70107ZM6.84017 7.66211C7.02185 7.66211 7.20316 7.59315 7.34183 7.45485C7.61843 7.17863 7.61843 6.72851 7.34183 6.45228C7.06524 6.17605 6.61549 6.17568 6.33852 6.45228C6.06229 6.72851 6.06229 7.17863 6.33852 7.45485C6.47682 7.59315 6.65886 7.66211 6.84017 7.66211Z" fill="#2093CA"/>
<path d="M8.0955 5.19289C8.16483 5.12356 8.25604 5.08908 8.348 5.08908C8.43921 5.08908 8.53078 5.12356 8.60012 5.19289C8.73953 5.3323 8.73953 5.55848 8.60012 5.69789C8.46108 5.8373 8.23454 5.8373 8.0955 5.69789C7.95646 5.55848 7.95646 5.3323 8.0955 5.19289ZM8.34762 6.1543C8.52967 6.1543 8.71098 6.08497 8.84928 5.94704C9.12588 5.67044 9.12588 5.22033 8.84928 4.9441C8.57269 4.66602 8.12256 4.66602 7.84633 4.9441C7.5701 5.22033 7.5701 5.67044 7.84633 5.94704C7.98426 6.08497 8.16631 6.1543 8.34762 6.1543Z" fill="#2093CA"/>
<path d="M23.2081 26.5612C23.0684 26.701 22.8426 26.7006 22.7028 26.5612C22.6353 26.4941 22.5986 26.4043 22.5986 26.309C22.5986 26.2134 22.6353 26.1236 22.7028 26.0565C22.7721 25.9868 22.8641 25.9523 22.9553 25.9523C23.0469 25.9523 23.1381 25.9868 23.2081 26.0565C23.2749 26.124 23.3123 26.2134 23.3123 26.309C23.3123 26.4043 23.2749 26.4941 23.2081 26.5612ZM22.4536 25.8074C22.3205 25.9416 22.2456 26.1196 22.2456 26.309C22.2456 26.4985 22.3205 26.6765 22.4536 26.8103C22.5919 26.9486 22.7736 27.0176 22.9553 27.0176C23.1373 27.0176 23.3183 26.9486 23.4566 26.8103C23.5904 26.6765 23.6646 26.4985 23.6646 26.309C23.6646 26.1196 23.5904 25.9416 23.4566 25.8074C23.1807 25.5312 22.7302 25.5312 22.4536 25.8074Z" fill="#2093CA"/>
<path d="M24.8294 24.9414C24.6896 25.0808 24.4638 25.0805 24.324 24.9414C24.185 24.802 24.185 24.5755 24.324 24.4364C24.3941 24.3667 24.4853 24.3318 24.5769 24.3318C24.6681 24.3318 24.7601 24.3667 24.8294 24.4364C24.9684 24.5755 24.9684 24.802 24.8294 24.9414ZM24.0756 24.1873C23.799 24.4639 23.799 24.9136 24.0756 25.1902C24.2132 25.3285 24.3948 25.3975 24.5769 25.3975C24.7586 25.3975 24.9403 25.3285 25.0786 25.1902C25.3544 24.9136 25.3544 24.4639 25.0786 24.1873C24.802 23.911 24.3522 23.9107 24.0756 24.1873Z" fill="#2093CA"/>
<path d="M26.3378 23.4336C26.1987 23.573 25.9718 23.573 25.8328 23.4336C25.7649 23.3665 25.7278 23.2764 25.7278 23.1811C25.7278 23.0858 25.7649 22.9961 25.8328 22.9286C25.9025 22.8589 25.9937 22.824 26.0849 22.824C26.1761 22.824 26.2681 22.8589 26.3378 22.9286C26.4049 22.9961 26.442 23.0858 26.442 23.1811C26.442 23.2764 26.4049 23.3665 26.3378 23.4336ZM25.5836 22.6798C25.4498 22.8133 25.376 22.9916 25.376 23.1811C25.376 23.3706 25.4498 23.5485 25.5836 23.6824C25.7212 23.8211 25.9032 23.8896 26.0849 23.8896C26.2666 23.8896 26.4475 23.8211 26.5865 23.6824C26.7208 23.5485 26.7938 23.3706 26.7938 23.1811C26.7938 22.9916 26.7208 22.8133 26.5865 22.6798C26.31 22.4032 25.8602 22.4032 25.5836 22.6798Z" fill="#2093CA"/>
<path d="M21.5488 24.903C21.4098 25.0424 21.1832 25.0424 21.0442 24.903C20.9767 24.8359 20.94 24.7461 20.94 24.6508C20.94 24.5556 20.9767 24.4654 21.0442 24.3983C21.1139 24.3286 21.2051 24.2938 21.2971 24.2938C21.3883 24.2938 21.4795 24.3286 21.5488 24.3983C21.6163 24.4658 21.6534 24.5556 21.6534 24.6508C21.6534 24.7461 21.6163 24.8359 21.5488 24.903ZM20.795 24.1492C20.6612 24.283 20.5874 24.4614 20.5874 24.6508C20.5874 24.8403 20.6612 25.0183 20.795 25.1521C20.9333 25.29 21.1154 25.3594 21.2971 25.3594C21.478 25.3594 21.6597 25.29 21.798 25.1521C21.9322 25.0183 22.006 24.8403 22.006 24.6508C22.006 24.4614 21.9322 24.283 21.798 24.1492C21.5214 23.8726 21.0716 23.8733 20.795 24.1492Z" fill="#2093CA"/>
<path d="M22.6655 22.7779C22.7352 22.7081 22.8272 22.6737 22.9184 22.6737C23.0096 22.6737 23.1008 22.7081 23.1705 22.7779C23.2384 22.8453 23.2754 22.9351 23.2754 23.0304C23.2754 23.1257 23.2384 23.2157 23.1705 23.2829C23.0315 23.4223 22.8053 23.4226 22.6655 23.2829C22.5984 23.2157 22.5613 23.1257 22.5613 23.0304C22.5613 22.9351 22.5984 22.8453 22.6655 22.7779ZM22.9184 23.7393C23.0993 23.7393 23.281 23.6699 23.4193 23.532C23.5535 23.3978 23.6273 23.2198 23.6273 23.0304C23.6273 22.8409 23.5535 22.6629 23.4193 22.5291C23.1435 22.2525 22.693 22.2525 22.4164 22.5291C22.2833 22.6629 22.2095 22.8409 22.2095 23.0304C22.2095 23.2198 22.2833 23.3978 22.4164 23.532C22.5547 23.6699 22.7367 23.7393 22.9184 23.7393Z" fill="#2093CA"/>
<path d="M24.1732 21.2704C24.2426 21.2007 24.3345 21.1659 24.4257 21.1659C24.5169 21.1659 24.6081 21.2007 24.6786 21.2704C24.7461 21.3379 24.7828 21.4273 24.7828 21.5229C24.7828 21.6182 24.7461 21.7083 24.6786 21.7754C24.5395 21.9144 24.313 21.9144 24.1732 21.7754C24.1057 21.7083 24.0687 21.6182 24.0687 21.5229C24.0687 21.4273 24.1057 21.3379 24.1732 21.2704ZM24.4257 22.2314C24.607 22.2314 24.7887 22.1625 24.927 22.0242C25.0609 21.8903 25.1346 21.712 25.1346 21.5229C25.1346 21.3331 25.0609 21.1551 24.927 21.0216C24.6504 20.745 24.2007 20.745 23.9241 21.0216C23.7906 21.1551 23.7168 21.3331 23.7168 21.5229C23.7168 21.712 23.7906 21.8903 23.9241 22.0242C24.0624 22.1625 24.244 22.2314 24.4257 22.2314Z" fill="#2093CA"/>
<path d="M19.948 23.3018C19.809 23.4412 19.5825 23.4412 19.4434 23.3018C19.3036 23.1624 19.3036 22.9362 19.4434 22.7968C19.5127 22.7271 19.604 22.6922 19.6952 22.6922C19.7875 22.6922 19.8787 22.7271 19.948 22.7968C20.0871 22.9362 20.0871 23.1624 19.948 23.3018ZM19.1943 22.548C18.9177 22.8242 18.9177 23.2743 19.1943 23.5506C19.3326 23.6889 19.5142 23.7578 19.6959 23.7578C19.8772 23.7578 20.0589 23.6889 20.1965 23.5506C20.4731 23.2743 20.4731 22.8242 20.1965 22.548C19.9206 22.271 19.4709 22.2718 19.1943 22.548Z" fill="#2093CA"/>
<path d="M21.568 21.6809C21.4334 21.8159 21.1979 21.8159 21.0634 21.6809C20.9959 21.6138 20.9592 21.524 20.9592 21.4284C20.9592 21.3331 20.9959 21.2434 21.0634 21.1759C21.1327 21.1066 21.2239 21.0717 21.3162 21.0717C21.4074 21.0717 21.4987 21.1066 21.568 21.1759C21.6355 21.2437 21.6729 21.3331 21.6729 21.4284C21.6729 21.524 21.6355 21.6138 21.568 21.6809ZM20.8142 20.9271C20.6804 21.061 20.6069 21.2393 20.6069 21.4284C20.6069 21.6182 20.6804 21.7962 20.8142 21.9297C20.9481 22.0639 21.1264 22.1377 21.3162 22.1377C21.505 22.1377 21.6833 22.0639 21.8171 21.9297C21.951 21.7962 22.0251 21.6182 22.0251 21.4284C22.0251 21.2393 21.951 21.061 21.8171 20.9271C21.5405 20.6505 21.0908 20.6505 20.8142 20.9271Z" fill="#2093CA"/>
<path d="M22.5708 19.6675C22.6405 19.5978 22.7324 19.5629 22.8237 19.5629C22.9149 19.5629 23.0061 19.5978 23.0758 19.6675C23.1429 19.7346 23.1807 19.8247 23.1807 19.92C23.1807 20.0153 23.1429 20.1054 23.0758 20.1725C22.9367 20.3119 22.7098 20.3115 22.5708 20.1725C22.5037 20.1054 22.4666 20.0153 22.4666 19.92C22.4666 19.8247 22.5037 19.7346 22.5708 19.6675ZM22.8237 20.6289C23.0046 20.6289 23.1863 20.5595 23.3249 20.4213C23.4588 20.2874 23.5326 20.1094 23.5326 19.92C23.5326 19.7305 23.4588 19.5525 23.3249 19.4183C23.048 19.1417 22.5986 19.1421 22.3216 19.4183C22.1878 19.5525 22.1147 19.7305 22.1147 19.92C22.1147 20.1094 22.1878 20.2874 22.3216 20.4213C22.4599 20.5595 22.642 20.6289 22.8237 20.6289Z" fill="#2093CA"/>
<path d="M24.8158 30.2398C24.2559 30.2398 23.7286 30.0214 23.3319 29.6254L17.2456 23.5392L23.5399 17.2449L29.627 23.3312C30.023 23.7275 30.2417 24.2544 30.2417 24.815C30.2417 25.3753 30.023 25.9021 29.627 26.2985L26.2998 29.6254C25.9038 30.0214 25.3765 30.2398 24.8158 30.2398ZM23.3319 2.37507C23.7412 1.96722 24.2785 1.76329 24.8158 1.76329C25.3531 1.76329 25.8911 1.96722 26.2998 2.37507L29.627 5.70164C30.023 6.098 30.2417 6.62485 30.2417 7.18546C30.2417 7.7457 30.023 8.27296 29.627 8.66932L8.66933 29.6254C8.27294 30.0214 7.74602 30.2398 7.18574 30.2398C6.62509 30.2398 6.0982 30.0214 5.70218 29.6254L2.37461 26.2985C1.97859 25.9021 1.7602 25.3753 1.7602 24.815C1.7602 24.2544 1.97859 23.7275 2.37461 23.3312L23.3319 2.37507ZM8.66933 2.37507L14.756 8.4613L8.46167 14.7552L2.37461 8.66895C1.97859 8.27297 1.7602 7.7457 1.7602 7.18546C1.7602 6.62485 1.97859 6.098 2.37461 5.70164L5.70144 2.37507C6.09819 1.97834 6.62509 1.75957 7.18574 1.75957C7.74602 1.75957 8.27294 1.97834 8.66933 2.37507ZM0 24.815C0 25.8454 0.401214 26.8146 1.12984 27.5432L4.45665 30.8701C5.18527 31.5987 6.15492 32.0002 7.18574 32.0002C8.21583 32.0002 9.1851 31.5987 9.9141 30.8701L16.0004 24.7839L22.0879 30.8701C22.8161 31.5987 23.7854 32.0002 24.8158 32.0002C25.8463 32.0002 26.8163 31.5987 27.5446 30.8701L30.8717 27.5432C32.3761 26.0389 32.3761 23.5911 30.8717 22.0865L24.7847 16.0002L30.8717 9.91401C32.3761 8.40942 32.3761 5.96154 30.8717 4.45879L27.5446 1.12925C26.0406 -0.372383 23.5918 -0.372383 22.0879 1.12925L16.0004 7.21664L9.9141 1.12925C8.40976 -0.376091 5.961 -0.376091 4.45703 1.12925L1.12984 4.45879C0.401214 5.18588 0 6.15508 0 7.18546C0 8.21621 0.401214 9.18544 1.12984 9.91401L7.2169 16.0002L1.12984 22.0865C0.401214 22.8151 0 23.7843 0 24.815Z" fill="#2093CA"/>
<path d="M17.125 12.2532C17.3901 11.9881 17.8521 11.9881 18.1179 12.2532L19.7645 13.8998C19.8969 14.0325 19.9703 14.209 19.9703 14.3962C19.9703 14.5838 19.8969 14.7599 19.7645 14.8927L15.3453 19.3116C15.072 19.5852 14.626 19.5856 14.3523 19.3116L12.7057 17.6653C12.4314 17.3913 12.4314 16.946 12.7054 16.672L17.125 12.2532ZM13.3564 20.3078V20.3082C13.7676 20.719 14.3082 20.9248 14.8492 20.9248C15.3894 20.9248 15.93 20.719 16.3412 20.3078L20.76 15.8886C21.1594 15.49 21.3785 14.9602 21.3785 14.3962C21.3785 13.8323 21.1594 13.3024 20.76 12.9039L19.1134 11.2572C18.7152 10.8583 18.185 10.6392 17.6211 10.6392C17.0575 10.6392 16.5277 10.8583 16.1291 11.2572L11.7098 15.6765C10.8871 16.4996 10.8871 17.8381 11.7098 18.6612L13.3564 20.3078Z" fill="#2093CA"/>
<path d="M19.9134 8.22805C19.9831 8.15871 20.075 8.12388 20.1663 8.12388C20.2575 8.12388 20.3487 8.15871 20.4191 8.22805C20.5582 8.36783 20.5582 8.59401 20.4191 8.73305C20.2801 8.87246 20.0532 8.87283 19.9134 8.73305C19.7743 8.59401 19.7743 8.36783 19.9134 8.22805ZM20.1663 9.18945C20.3479 9.18945 20.5289 9.12013 20.6675 8.98183C20.9441 8.70561 20.9441 8.25549 20.6675 7.97926C20.3906 7.70266 19.9412 7.70266 19.665 7.97926C19.3884 8.25549 19.3884 8.70561 19.665 8.98183C19.8029 9.12013 19.9846 9.18945 20.1663 9.18945Z" fill="#2093CA"/>
<path d="M21.5337 9.84817C21.6041 9.77883 21.6953 9.74399 21.7866 9.74399C21.8778 9.74399 21.9697 9.77883 22.0394 9.84817C22.1065 9.91565 22.1436 10.0054 22.1436 10.1006C22.1436 10.1963 22.1065 10.2857 22.0394 10.3532C21.9004 10.4929 21.6735 10.4926 21.5337 10.3532C21.4673 10.2857 21.4295 10.1963 21.4295 10.1006C21.4295 10.0054 21.4673 9.91565 21.5337 9.84817ZM21.7866 10.8096C21.9682 10.8096 22.1503 10.7406 22.2878 10.6023C22.4224 10.4685 22.4955 10.2909 22.4955 10.1006C22.4955 9.91155 22.4224 9.73323 22.2878 9.59938C22.0116 9.32278 21.5615 9.32315 21.2856 9.59938C21.1514 9.73323 21.0776 9.91155 21.0776 10.1006C21.0776 10.2909 21.1514 10.4685 21.2856 10.6023C21.4239 10.7406 21.6049 10.8096 21.7866 10.8096Z" fill="#2093CA"/>
<path d="M23.0419 11.356C23.1112 11.2866 23.2031 11.2514 23.2944 11.2514C23.3859 11.2514 23.4779 11.2866 23.5472 11.356C23.6147 11.4235 23.6514 11.5132 23.6514 11.6085C23.6514 11.7042 23.6147 11.7935 23.5472 11.861C23.4082 12.0008 23.1817 12 23.0419 11.861C22.9751 11.7935 22.9377 11.7042 22.9377 11.6085C22.9377 11.5132 22.9751 11.4235 23.0419 11.356ZM23.2944 12.3174C23.4764 12.3174 23.6581 12.2481 23.7956 12.1098C23.9302 11.9759 24.0037 11.798 24.0037 11.6085C24.0037 11.419 23.9302 11.241 23.7956 11.1072C23.5198 10.8306 23.0693 10.8306 22.7934 11.1072C22.6596 11.241 22.5854 11.419 22.5854 11.6085C22.5854 11.798 22.6596 11.9763 22.7934 12.1098C22.9317 12.2481 23.1127 12.3174 23.2944 12.3174Z" fill="#2093CA"/>
<path d="M21.5725 6.56919C21.6418 6.49986 21.7334 6.46502 21.8246 6.46502C21.9159 6.46502 22.0078 6.49986 22.0771 6.56919C22.1446 6.63668 22.1817 6.72605 22.1817 6.82171C22.1817 6.917 22.1446 7.00671 22.0771 7.07419C21.9381 7.21323 21.7115 7.21323 21.5725 7.07419C21.5043 7.00671 21.4676 6.917 21.4676 6.82171C21.4676 6.72605 21.5043 6.63668 21.5725 6.56919ZM21.8246 7.53027C22.0063 7.53027 22.1873 7.46165 22.3263 7.32298C22.4601 7.18913 22.5336 7.01118 22.5336 6.82171C22.5336 6.63262 22.4601 6.45428 22.3263 6.32081C22.0497 6.04421 21.6 6.04384 21.3234 6.32081C21.1895 6.45428 21.1157 6.63262 21.1157 6.82171C21.1157 7.01118 21.1895 7.18913 21.3234 7.32298C21.4617 7.46165 21.6426 7.53027 21.8246 7.53027Z" fill="#2093CA"/>
<path d="M23.698 8.69492C23.559 8.83434 23.3325 8.83396 23.1934 8.69492C23.0544 8.55588 23.0544 8.32937 23.1934 8.18996C23.2631 8.12063 23.3543 8.08576 23.4456 8.08576C23.5375 8.08576 23.6287 8.12063 23.698 8.18996C23.8371 8.32937 23.8371 8.55588 23.698 8.69492ZM22.9443 7.94114C22.6677 8.21737 22.6677 8.66749 22.9443 8.94371C23.0826 9.08201 23.2642 9.15137 23.4456 9.15137C23.6272 9.15137 23.8089 9.08201 23.9472 8.94371C24.2238 8.66749 24.2238 8.21737 23.9472 7.94114C23.6706 7.66454 23.2209 7.66454 22.9443 7.94114Z" fill="#2093CA"/>
<path d="M24.7009 9.69778C24.7706 9.62844 24.8618 9.59321 24.953 9.59321C25.0443 9.59321 25.1362 9.62844 25.2059 9.69778C25.273 9.76526 25.3109 9.8546 25.3109 9.95026C25.3109 10.0455 25.273 10.1353 25.2059 10.2027C25.0669 10.3421 24.84 10.3418 24.7009 10.2027C24.6338 10.1353 24.596 10.0455 24.596 9.95026C24.596 9.8546 24.6338 9.76526 24.7009 9.69778ZM24.953 10.6592C25.1347 10.6592 25.3168 10.5899 25.4551 10.4516C25.5889 10.3177 25.662 10.1397 25.662 9.95026C25.662 9.76079 25.5889 9.58284 25.4551 9.44899C25.1785 9.17239 24.7287 9.17239 24.4521 9.44899C24.3179 9.58284 24.2441 9.76079 24.2441 9.95026C24.2441 10.1397 24.3179 10.3177 24.4521 10.4516C24.5904 10.5899 24.7721 10.6592 24.953 10.6592Z" fill="#2093CA"/>
<path d="M23.1741 4.96727C23.2438 4.89756 23.335 4.8631 23.4269 4.8631C23.5174 4.8631 23.6094 4.89756 23.6791 4.96727C23.7462 5.03475 23.7833 5.1245 23.7833 5.21979C23.7833 5.31545 23.7462 5.40479 23.6791 5.47227C23.5393 5.61205 23.3131 5.61168 23.1741 5.47227C23.107 5.40479 23.0691 5.31545 23.0691 5.21979C23.0691 5.1245 23.107 5.03475 23.1741 4.96727ZM23.4262 5.92871C23.6079 5.92871 23.7896 5.85935 23.9279 5.72106C24.0613 5.58721 24.1351 5.40925 24.1351 5.21979C24.1351 5.03069 24.0613 4.85196 23.9279 4.71848C23.6513 4.4404 23.2015 4.4404 22.9249 4.71848C22.7911 4.85196 22.7173 5.03069 22.7173 5.21979C22.7173 5.40925 22.7911 5.58758 22.9249 5.72106C23.0632 5.85935 23.2453 5.92871 23.4262 5.92871Z" fill="#2093CA"/>
<path d="M24.7955 6.58779C24.8652 6.51808 24.9564 6.48322 25.0476 6.48322C25.1388 6.48322 25.2308 6.51808 25.3005 6.58779C25.4395 6.7272 25.4395 6.95374 25.3005 7.09278C25.1614 7.23219 24.9345 7.23182 24.7955 7.09278C24.6564 6.95374 24.6564 6.7272 24.7955 6.58779ZM25.0476 7.54883C25.2293 7.54883 25.4113 7.47987 25.5496 7.34157C25.8262 7.06497 25.8262 6.6152 25.5496 6.3386C25.2727 6.06274 24.8233 6.062 24.5463 6.3386C24.2697 6.6152 24.2697 7.06497 24.5463 7.34157C24.685 7.47987 24.8667 7.54883 25.0476 7.54883Z" fill="#2093CA"/>
<path d="M26.3037 8.09621C26.373 8.02651 26.4642 7.99201 26.5555 7.99201C26.6474 7.99201 26.739 8.02651 26.8083 8.09621C26.9481 8.23562 26.9481 8.46213 26.8083 8.60117C26.6693 8.74059 26.4427 8.74059 26.3037 8.60117C26.1647 8.46213 26.1647 8.23562 26.3037 8.09621ZM26.5555 9.05762C26.7375 9.05762 26.9192 8.98826 27.0575 8.84996C27.3341 8.57374 27.3341 8.12365 27.0575 7.84743C26.7809 7.5712 26.3311 7.57083 26.0545 7.84743C25.7787 8.12365 25.7787 8.57374 26.0545 8.84996C26.1928 8.98826 26.3745 9.05762 26.5555 9.05762Z" fill="#2093CA"/>
<path d="M5.94289 23.2076C5.8083 23.3422 5.57248 23.3422 5.43789 23.2076C5.29885 23.0682 5.29885 22.8417 5.43789 22.7026C5.50463 22.6351 5.59509 22.5981 5.69001 22.5981C5.78567 22.5981 5.87541 22.6351 5.94289 22.7026C6.0823 22.8417 6.0823 23.0682 5.94289 23.2076ZM5.1891 22.4535C4.91288 22.7301 4.91288 23.1798 5.1891 23.4564C5.32258 23.5906 5.50129 23.6641 5.69001 23.6641C5.87985 23.6641 6.05783 23.5906 6.19168 23.4564C6.46827 23.1798 6.46827 22.7301 6.19168 22.4535C5.92435 22.1858 5.4568 22.1858 5.1891 22.4535Z" fill="#2093CA"/>
<path d="M7.56424 24.8281C7.42483 24.9675 7.1983 24.9672 7.05926 24.8281C6.91985 24.6887 6.91985 24.4621 7.05926 24.3227C7.1286 24.253 7.22017 24.2186 7.31138 24.2186C7.40296 24.2186 7.49454 24.253 7.56424 24.3227C7.70328 24.4621 7.70328 24.6887 7.56424 24.8281ZM6.81048 24.074C6.53388 24.3505 6.53388 24.8003 6.81048 25.0769C6.94803 25.2152 7.1297 25.2842 7.31138 25.2842C7.49343 25.2842 7.67473 25.2152 7.81303 25.0769C8.08926 24.8003 8.08926 24.3505 7.81303 24.074C7.53643 23.7977 7.0867 23.7974 6.81048 24.074Z" fill="#2093CA"/>
<path d="M9.07245 26.3359C8.93304 26.4753 8.70612 26.4753 8.56708 26.3359C8.42766 26.1965 8.42766 25.97 8.56708 25.8309C8.63678 25.7616 8.728 25.7267 8.81921 25.7267C8.91116 25.7267 9.00238 25.7616 9.07245 25.8309C9.21149 25.97 9.21149 26.1965 9.07245 26.3359ZM8.31829 25.5821C8.04169 25.8584 8.04169 26.3081 8.31829 26.5847C8.45622 26.723 8.63827 26.792 8.81921 26.792C9.00126 26.792 9.18293 26.723 9.32086 26.5847C9.59746 26.3081 9.59746 25.8584 9.32086 25.5821C9.04463 25.3055 8.59488 25.3052 8.31829 25.5821Z" fill="#2093CA"/>
<path d="M7.60137 21.5481C7.46641 21.683 7.23171 21.683 7.09675 21.5481C6.95734 21.409 6.95734 21.1825 7.09675 21.0435C7.16386 20.976 7.25358 20.9389 7.34887 20.9389C7.44453 20.9389 7.53426 20.976 7.60137 21.0435C7.74041 21.1825 7.74041 21.409 7.60137 21.5481ZM6.84758 20.7943C6.57099 21.0709 6.57099 21.5207 6.84758 21.7973C6.9818 21.9315 7.15904 22.0049 7.34887 22.0049C7.53871 22.0049 7.71668 21.9315 7.8509 21.7973C8.12638 21.5207 8.12638 21.0709 7.8509 20.7943C7.58246 20.5266 7.11528 20.5266 6.84758 20.7943Z" fill="#2093CA"/>
<path d="M9.22236 23.169C9.08332 23.3084 8.85715 23.3084 8.71774 23.169C8.57833 23.0299 8.57833 22.8034 8.71774 22.664C8.78745 22.5943 8.87865 22.5598 8.96986 22.5598C9.06144 22.5598 9.15266 22.5943 9.22236 22.664C9.3614 22.8034 9.3614 23.0299 9.22236 23.169ZM8.46896 22.4152C8.19199 22.6914 8.19199 23.1415 8.46896 23.4177C8.60725 23.556 8.78819 23.625 8.97024 23.625C9.15155 23.625 9.33359 23.556 9.47189 23.4177C9.74812 23.1415 9.74812 22.6914 9.47189 22.4152C9.19529 22.1386 8.74481 22.1389 8.46896 22.4152Z" fill="#2093CA"/>
<path d="M10.7303 24.6766C10.5957 24.8116 10.3606 24.8116 10.226 24.6766C10.0862 24.5376 10.0862 24.311 10.226 24.172C10.2931 24.1045 10.3829 24.0674 10.4785 24.0674C10.5734 24.0674 10.6635 24.1045 10.7303 24.172C10.8701 24.311 10.8701 24.5376 10.7303 24.6766ZM9.97649 23.9228C9.69989 24.1994 9.69989 24.6492 9.97649 24.9258C10.1107 25.0596 10.2887 25.1338 10.4785 25.1338C10.6676 25.1338 10.846 25.0596 10.9798 24.9258C11.2557 24.6492 11.2557 24.1994 10.9798 23.9228C10.7121 23.6551 10.2449 23.6551 9.97649 23.9228Z" fill="#2093CA"/>
<path d="M8.69938 19.4419C8.76871 19.3726 8.85991 19.3377 8.95149 19.3377C9.04308 19.3377 9.13428 19.3726 9.20361 19.4419C9.34339 19.5813 9.34339 19.8075 9.20361 19.9469C9.06457 20.0863 8.83842 20.0863 8.69938 19.9469C8.55959 19.8075 8.55959 19.5813 8.69938 19.4419ZM8.95149 20.4033C9.13354 20.4033 9.31484 20.334 9.45314 20.1957C9.729 19.9195 9.729 19.4694 9.45314 19.1928C9.17692 18.9165 8.72644 18.9165 8.44985 19.1928C8.17362 19.4694 8.17362 19.9195 8.44985 20.1957C8.58851 20.334 8.77019 20.4033 8.95149 20.4033Z" fill="#2093CA"/>
<path d="M10.8252 21.5674C10.6854 21.7064 10.4592 21.7064 10.3202 21.5674C10.1812 21.428 10.1812 21.2014 10.3202 21.062C10.3895 20.9927 10.4811 20.9578 10.5727 20.9578C10.6639 20.9578 10.7551 20.9927 10.8252 21.062C10.9642 21.2014 10.9642 21.428 10.8252 21.5674ZM10.0707 20.8132C9.79481 21.0898 9.79481 21.54 10.0707 21.8162C10.2093 21.9545 10.391 22.0234 10.5727 22.0234C10.7544 22.0234 10.9357 21.9545 11.074 21.8162C11.3506 21.54 11.3506 21.0898 11.074 20.8132C10.7978 20.537 10.3473 20.5366 10.0707 20.8132Z" fill="#2093CA"/>
<path d="M12.333 23.0755C12.1981 23.21 11.9626 23.21 11.828 23.0755C11.689 22.9364 11.689 22.7099 11.828 22.5705C11.8955 22.5034 11.9849 22.4659 12.0809 22.4659C12.1762 22.4659 12.2659 22.5034 12.333 22.5705C12.4721 22.7099 12.4721 22.9364 12.333 23.0755ZM11.5792 22.3213C11.303 22.5983 11.303 23.048 11.5792 23.3246C11.7131 23.4585 11.8907 23.5322 12.0809 23.5322C12.2704 23.5322 12.448 23.4585 12.5818 23.3246C12.8584 23.048 12.8584 22.5983 12.5818 22.3213C12.3141 22.054 11.8469 22.054 11.5792 22.3213Z" fill="#2093CA"/>
</svg>
