<svg width="24" height="32" viewBox="0 0 24 32" fill="none" xmlns="http://www.w3.org/2000/svg">
<path d="M15.9265 8.91826V15.3287C15.9265 19.8505 12.9887 23.1337 8.94093 23.1337H8.10378C5.37368 23.1337 3.14971 21.6369 1.99064 19.2781H5.21479C5.52317 19.2781 5.77358 19.0284 5.77358 18.7205C5.77358 18.4129 5.52317 18.1632 5.21479 18.1632H1.95944C1.81732 18.1632 1.68873 18.2178 1.59015 18.3052C1.39094 17.7159 1.25206 17.0855 1.17908 16.4213H6.93882C7.24749 16.4213 7.49761 16.1719 7.49761 15.864C7.49761 15.5561 7.24749 15.3066 6.93882 15.3066H1.11817V13.1686H5.21479C5.52317 13.1686 5.77358 12.9191 5.77358 12.6112C5.77358 12.3034 5.52317 12.0539 5.21479 12.0539H1.11817V10.312H6.93882C7.24749 10.312 7.49761 10.0623 7.49761 9.75471C7.49761 9.44684 7.24749 9.19708 6.93882 9.19708H1.11817V8.91826V7.03729H5.21479C5.52317 7.03729 5.77358 6.78782 5.77358 6.47966C5.77358 6.17208 5.52317 5.92232 5.21479 5.92232H1.11817V4.18017H6.93882C7.24749 4.18017 7.49761 3.931 7.49761 3.62284C7.49761 3.31526 7.24749 3.0655 6.93882 3.0655H1.11817V1.11467H15.9265V8.91826ZM22.0441 15.2397C22.0441 15.009 22.2321 14.8215 22.4631 14.8215C22.6944 14.8215 22.8824 15.009 22.8824 15.2397V23.213C22.8824 27.4451 19.4314 30.8847 15.19 30.8847C11.2938 30.8847 8.067 27.9822 7.56735 24.2284C7.7442 24.2402 7.92281 24.246 8.10378 24.246H8.41451C8.91563 27.5273 11.7628 30.0483 15.19 30.0483C18.9694 30.0483 22.0441 26.9843 22.0441 23.213V15.2397ZM0.0229527 16.0128C0.273363 20.1997 2.81131 23.3362 6.42329 24.0788C6.86025 28.5193 10.625 32 15.19 32C20.0482 32 24 28.0584 24 23.213V15.2397C24 14.3945 23.3109 13.7068 22.4631 13.7068C21.6159 13.7068 20.9262 14.3945 20.9262 15.2397V23.213C20.9262 26.368 18.353 28.936 15.19 28.936C12.3731 28.936 10.0291 26.8962 9.54856 24.2226C13.9274 23.9144 17.0444 20.2701 17.0444 15.3287V0.557337C17.0444 0.249466 16.794 5.74375e-07 16.4853 5.74375e-07H0.559084C0.250411 5.74375e-07 0 0.249466 0 0.557337V15.3287C0 15.478 0.00382732 15.626 0.00941816 15.773C0.00471009 15.8026 0 15.8326 0 15.864C0 15.9159 0.00971127 15.9652 0.0229527 16.0128Z" fill="#2093CA"/>
<path d="M1.11842 10.3486C6.05454 10.3486 10.9907 10.3486 15.9268 10.3486C16.6368 10.3486 16.638 9.24805 15.9268 9.24805C10.9907 9.24805 6.05454 9.24805 1.11842 9.24805C0.408382 9.24805 0.407205 10.3486 1.11842 10.3486Z" fill="#2093CA"/>
</svg>
