<svg width="35" height="32" viewBox="0 0 35 32" fill="none" xmlns="http://www.w3.org/2000/svg">
<path d="M20.4657 5.66257H14.5343V4.96477C14.5343 4.56156 15.0033 4.22116 15.5592 4.22116H19.4411C19.9964 4.22116 20.4657 4.56156 20.4657 4.96477V5.66257ZM13.5039 1.64752H21.4958C23.1341 1.64752 24.4668 2.72632 24.4668 4.05183V5.66257H22.0911V4.96477C22.0911 3.6462 20.9022 2.57329 19.4411 2.57329H15.5592C14.0975 2.57329 12.909 3.6462 12.909 4.96477V5.66257H10.5332V4.05183C10.5332 2.72632 11.8659 1.64752 13.5039 1.64752ZM33.3747 27.9957C33.3747 29.2969 32.3323 30.3518 31.051 30.3518H3.94902C2.66771 30.3518 1.62534 29.2969 1.62534 27.9957V9.66512C1.62534 8.36668 2.66771 7.31008 3.94902 7.31008H31.051C32.3323 7.31008 33.3747 8.36668 33.3747 9.66512V27.9957ZM26.0921 5.66257V4.05183C26.0921 1.81789 24.0306 -1.20091e-06 21.4958 -1.20091e-06H13.5039C10.9694 -1.20091e-06 8.90789 1.81789 8.90789 4.05183V5.66257H3.94902C1.77151 5.66257 0 7.45825 0 9.66512V27.9957C0 30.2025 1.77151 32 3.94902 32H31.051C33.2285 32 35 30.2025 35 27.9957V9.66512C35 7.45825 33.2285 5.66257 31.051 5.66257H26.0921Z" fill="#2093CA"/>
<path d="M23.4862 20.435H19.8952C19.6258 20.435 19.4074 20.6568 19.4074 20.9295V24.5712H16.243V20.9295C16.243 20.6568 16.0246 20.435 15.7555 20.435H12.1646V17.2278H15.7555C16.0246 17.2278 16.243 17.0061 16.243 16.7333V13.0934H19.4074V16.7333C19.4074 17.0061 19.6258 17.2278 19.8952 17.2278H23.4862V20.435ZM23.974 16.2389H20.383V12.5989C20.383 12.3262 20.1643 12.1045 19.8952 12.1045H15.7555C15.4861 12.1045 15.2677 12.3262 15.2677 12.5989V16.2389H11.6768C11.4074 16.2389 11.189 16.4602 11.189 16.7333V20.9295C11.189 21.2026 11.4074 21.424 11.6768 21.424H15.2677V25.0639C15.2677 25.338 15.4861 25.5566 15.7555 25.5566H19.8952C20.1643 25.5566 20.383 25.338 20.383 25.0639V21.424H23.974C24.2431 21.424 24.4615 21.2026 24.4615 20.9295V16.7333C24.4615 16.4602 24.2431 16.2389 23.974 16.2389Z" fill="#2093CA"/>
</svg>
